<svg width="40" height="40" viewBox="0 0 40 40" fill="none" xmlns="http://www.w3.org/2000/svg">
<g clip-path="url(#clip0_101_596)">
<path d="M11.5879 37.2504C14.1506 38.4896 17.0257 39.1847 20.0632 39.1847C23.1007 39.1847 25.9757 38.4896 28.5385 37.2504L30.2335 19.6915L28.5385 2.13249C25.9757 0.893297 23.1007 0.198242 20.0632 0.198242C17.0257 0.198242 14.1506 0.893297 11.5879 2.13249L9.89282 19.6915L11.5879 37.2504Z" fill="#FFDA44"/>
<path d="M28.5378 37.2494C35.0582 34.0965 39.5558 27.4193 39.5558 19.6911C39.5558 11.9629 35.0582 5.28569 28.5378 2.13281V37.2494Z" fill="#D80027"/>
<path d="M11.5873 37.2494V2.13281C5.06686 5.28569 0.569336 11.9628 0.569336 19.6911C0.569336 27.4194 5.06686 34.0965 11.5873 37.2494Z" fill="#0052B4"/>
<path d="M20.0625 26.4716C20.0625 23.361 20.0625 19.6914 20.0625 19.6914H25.1477V22.234C25.1477 22.6757 24.3002 24.2942 22.2083 25.6241C21.416 26.1279 20.5958 26.2899 20.0625 26.4716Z" fill="#D80027"/>
<path d="M20.0625 14.6064H14.9773V19.6917H20.0625V14.6064Z" fill="#D80027"/>
<path d="M22.605 12.9109C22.605 11.9747 21.8461 11.2158 20.9099 11.2158C20.6008 11.2158 20.3119 11.2999 20.0624 11.4444C19.8129 11.2999 19.5241 11.2158 19.2149 11.2158C18.2788 11.2158 17.5199 11.9747 17.5199 12.9109H13.2822V21.3861C13.2822 24.5413 15.7879 26.3659 17.7528 27.3118C17.6058 27.563 17.5199 27.8544 17.5199 28.1665C17.5199 29.1027 18.2788 29.8616 19.2149 29.8616C19.5241 29.8616 19.813 29.7775 20.0624 29.633C20.312 29.7775 20.6008 29.8616 20.9099 29.8616C21.8461 29.8616 22.605 29.1027 22.605 28.1665C22.605 27.8544 22.5191 27.563 22.372 27.3118C24.3369 26.3659 26.8427 24.5414 26.8427 21.3861V12.9109H22.605ZM24.3001 21.3861C24.3001 21.8278 24.3001 23.1719 22.2082 24.5018C21.4158 25.0056 20.5958 25.3323 20.0624 25.5139C19.5291 25.3323 18.709 25.0056 17.9167 24.5018C15.8248 23.1719 15.8248 21.8278 15.8248 21.3861V15.4535H24.3001V21.3861Z" fill="#FF9811"/>
</g>
<defs>
<clipPath id="clip0_101_596">
<rect width="38.9864" height="38.9864" fill="white" transform="translate(0.569336 0.198242)"/>
</clipPath>
</defs>
</svg>
