<svg width="40" height="40" viewBox="0 0 40 40" fill="none" xmlns="http://www.w3.org/2000/svg">
<g clip-path="url(#clip0_101_174)">
<path d="M20.4546 39.9593C31.2205 39.9593 39.9479 31.2319 39.9479 20.4661C39.9479 9.70031 31.2205 0.9729 20.4546 0.9729C9.68884 0.9729 0.961426 9.70031 0.961426 20.4661C0.961426 31.2319 9.68884 39.9593 20.4546 39.9593Z" fill="#F0F0F0"/>
<path d="M20.4545 0.9729C12.7262 0.9729 6.04854 5.47043 2.89551 11.9908H38.0134C34.8604 5.47043 28.1827 0.9729 20.4545 0.9729Z" fill="#338AF3"/>
<path d="M20.4545 39.9596C28.1827 39.9596 34.8604 35.4621 38.0135 28.9417H2.89551C6.04854 35.4621 12.7262 39.9596 20.4545 39.9596Z" fill="#338AF3"/>
<path d="M26.2809 20.466L23.9003 21.5859L25.168 23.8915L22.5829 23.3969L22.2553 26.0084L20.4547 24.0877L18.654 26.0084L18.3265 23.3969L15.7414 23.8914L17.009 21.5858L14.6284 20.466L17.0091 19.3461L15.7414 17.0406L18.3264 17.5351L18.6541 14.9236L20.4547 16.8443L22.2554 14.9236L22.5829 17.5351L25.1681 17.0406L23.9003 19.3462L26.2809 20.466Z" fill="#FFDA44"/>
</g>
<defs>
<clipPath id="clip0_101_174">
<rect width="38.9864" height="38.9864" fill="white" transform="translate(0.961426 0.9729)"/>
</clipPath>
</defs>
</svg>
