<svg width="40" height="40" viewBox="0 0 40 40" fill="none" xmlns="http://www.w3.org/2000/svg">
<g clip-path="url(#clip0_101_70)">
<path d="M39.5758 20.4662C39.5758 18.0817 39.1469 15.7976 38.3633 13.686L20.0826 12.8384L1.80182 13.6859C1.01828 15.7976 0.589355 18.0817 0.589355 20.4662C0.589355 22.8506 1.01828 25.1347 1.80182 27.2464L20.0826 28.0939L38.3633 27.2464C39.1469 25.1347 39.5758 22.8506 39.5758 20.4662Z" fill="#0052B4"/>
<path d="M20.0828 39.9593C28.4642 39.9593 35.6093 34.6694 38.3635 27.2463H1.802C4.55626 34.6694 11.7014 39.9593 20.0828 39.9593Z" fill="#FF9811"/>
<path d="M1.802 13.6859H38.3636C35.6093 6.26287 28.4642 0.9729 20.0828 0.9729C11.7014 0.9729 4.55626 6.26287 1.802 13.6859Z" fill="#D80027"/>
</g>
<defs>
<clipPath id="clip0_101_70">
<rect width="38.9864" height="38.9864" fill="white" transform="translate(0.589355 0.9729)"/>
</clipPath>
</defs>
</svg>
