<svg width="40" height="40" viewBox="0 0 40 40" fill="none" xmlns="http://www.w3.org/2000/svg">
<g clip-path="url(#clip0_101_623)">
<path d="M39.8566 19.6915C39.8566 30.4572 31.1291 39.1847 20.3633 39.1847C9.5976 39.1847 0.870117 30.4572 0.870117 19.6915C0.870117 19.696 20.3633 0.20045 20.3633 0.198242C31.1291 0.198242 39.8566 8.92572 39.8566 19.6915Z" fill="#0052B4"/>
<path d="M20.3108 19.6918H20.363C20.363 19.6741 20.363 19.6572 20.363 19.6396C20.3456 19.6571 20.3282 19.6744 20.3108 19.6918Z" fill="#F0F0F0"/>
<path d="M20.3633 10.3696C20.3633 6.93961 20.3633 4.69203 20.3633 0.199219H20.3601C9.59577 0.20097 0.870117 8.92761 0.870117 19.6924H11.0405V13.9653L16.7675 19.6924H20.3113C20.3287 19.675 20.3461 19.6576 20.3634 19.6402C20.3634 18.3269 20.3634 17.1551 20.3634 16.0967L14.6363 10.3696H20.3633Z" fill="#F0F0F0"/>
<path d="M10.7325 2.74072C7.6837 4.47676 5.14912 7.01134 3.41309 10.0601V19.6914H8.4983V7.82602V7.82594H20.3637C20.3637 6.22209 20.3637 4.69416 20.3637 2.74072H10.7325V2.74072Z" fill="#D80027"/>
<path d="M20.364 17.2943L13.4384 10.3687H11.0413C11.0413 10.3686 11.0413 10.3687 11.0413 10.3687L20.364 19.6914H20.364C20.364 19.6914 20.364 18.0387 20.364 17.2943Z" fill="#D80027"/>
<path d="M12.6271 23.0815L13.697 25.3185L16.1128 24.7602L15.031 26.9914L16.9737 28.532L14.5548 29.0772L14.5616 31.5568L12.6271 30.0055L10.6927 31.5568L10.6995 29.0772L8.28052 28.532L10.2234 26.9914L9.14134 24.7602L11.5574 25.3185L12.6271 23.0815Z" fill="#F0F0F0"/>
<path d="M30.0561 27.3188L30.591 28.4373L31.799 28.1581L31.258 29.2737L32.2294 30.0441L31.0199 30.3167L31.0233 31.5565L30.0561 30.7808L29.0889 31.5565L29.0922 30.3167L27.8828 30.0441L28.8542 29.2737L28.3133 28.1581L29.5212 28.4373L30.0561 27.3188Z" fill="#F0F0F0"/>
<path d="M25.0798 15.4536L25.6147 16.5722L26.8227 16.2929L26.2817 17.4085L27.2531 18.1789L26.0437 18.4515L26.047 19.6913L25.0798 18.9156L24.1126 19.6913L24.1159 18.4515L22.9065 18.1789L23.8779 17.4085L23.3369 16.2929L24.5449 16.5722L25.0798 15.4536Z" fill="#F0F0F0"/>
<path d="M30.0561 8.67334L30.591 9.79192L31.799 9.51269L31.258 10.6283L32.2293 11.3986L31.0199 11.6713L31.0233 12.9111L30.0561 12.1354L29.0889 12.9111L29.0922 11.6713L27.8828 11.3986L28.8541 10.6283L28.3133 9.51269L29.5212 9.79192L30.0561 8.67334Z" fill="#F0F0F0"/>
<path d="M34.4031 13.7588L34.9379 14.8774L36.1459 14.5981L35.605 15.7137L36.5763 16.484L35.3669 16.7567L35.3702 17.9964L34.4031 17.2208L33.4359 17.9964L33.4392 16.7567L32.2297 16.484L33.2011 15.7137L32.6602 14.5981L33.8681 14.8774L34.4031 13.7588Z" fill="#F0F0F0"/>
<path d="M31.2948 19.6914L31.7155 20.9863H33.0771L31.9755 21.7867L32.3964 23.0816L31.2948 22.2813L30.1933 23.0816L30.614 21.7867L29.5125 20.9863H30.874L31.2948 19.6914Z" fill="#F0F0F0"/>
</g>
<defs>
<clipPath id="clip0_101_623">
<rect width="38.9864" height="38.9864" fill="white" transform="translate(0.870117 0.198242)"/>
</clipPath>
</defs>
</svg>
