<svg width="40" height="40" viewBox="0 0 40 40" fill="none" xmlns="http://www.w3.org/2000/svg">
<g clip-path="url(#clip0_101_590)">
<path d="M38.3917 27.0243C39.1753 24.9126 39.6041 22.6285 39.6041 20.2441C39.6041 17.8597 39.1753 15.5757 38.3917 13.4639L20.1109 11.7688L1.83014 13.4639C1.0466 15.5757 0.617676 17.8597 0.617676 20.2441C0.617676 22.6285 1.0466 24.9126 1.83014 27.0243L20.1109 28.7194L38.3917 27.0243Z" fill="#F0F0F0"/>
<path d="M20.1112 39.7377C28.4925 39.7377 35.6377 34.4477 38.3918 27.0247H1.83032C4.58465 34.4477 11.7297 39.7377 20.1112 39.7377Z" fill="#D80027"/>
<path d="M20.1112 0.751221C11.7297 0.751221 4.58465 6.04119 1.83032 13.4642H38.3919C35.6377 6.04119 28.4925 0.751221 20.1112 0.751221Z" fill="#D80027"/>
</g>
<defs>
<clipPath id="clip0_101_590">
<rect width="38.9864" height="38.9864" fill="white" transform="translate(0.617676 0.751221)"/>
</clipPath>
</defs>
</svg>
