<svg width="39" height="39" viewBox="0 0 39 39" fill="none" xmlns="http://www.w3.org/2000/svg">
<g clip-path="url(#clip0_101_687)">
<path d="M33.2775 33.2772C25.665 40.8898 13.3225 40.8898 5.70991 33.2772C-1.90265 25.6647 -1.90265 13.3222 5.70991 5.70957C5.71265 5.70957 23.2278 0.53419 30.8404 8.14675C38.453 15.7593 33.2828 33.2719 33.2775 33.2772Z" fill="#FFDA44"/>
<path d="M33.2766 33.2771C40.8891 25.6646 40.8891 13.3221 33.2766 5.70945C25.664 -1.90319 13.3216 -1.90311 5.70898 5.70945L33.2766 33.2771Z" fill="#D80027"/>
<path d="M24.5883 24.5903C23.7875 24.9048 22.8571 24.8714 22.0499 24.4184C20.6237 23.618 20.1146 21.8062 20.9152 20.3797L20.6722 20.2434C23.1142 19.6546 24.9209 17.438 24.8893 14.8223C24.8696 13.196 24.143 11.7411 23.0063 10.7456L21.2266 12.569C21.8994 13.1052 22.3357 13.9277 22.3469 14.8531C22.3667 16.4887 21.0522 17.8355 19.4167 17.8552L19.4201 18.1337C17.6891 16.3134 14.8663 15.857 12.6168 17.1923C11.2184 18.0226 10.3218 19.3792 10.0278 20.8614L12.4968 21.4911C12.6248 20.6402 13.1189 19.8512 13.9147 19.3787C15.3212 18.5438 17.1447 19.0089 17.9796 20.4153L18.2193 20.2731C17.5083 22.6822 18.5244 25.3552 20.8057 26.6356C22.224 27.4316 23.8471 27.5298 25.2777 27.0433L24.5883 24.5903ZM19.4372 19.5499L19.437 19.55L19.4372 19.5499Z" fill="#FF9811"/>
<path d="M26.7104 13.2021L25.3326 18.1189L21.1987 17.3555L18.5377 11.8704L11.3491 14.4213L10.7822 12.8238L8.90137 12.5921L10.3185 16.5858L15.2656 15.3206L16.6715 19.2824L13.2516 24.3293L19.0552 29.2793L17.9551 30.5689L18.6949 32.3138L21.4451 29.0895L17.8759 25.4378L20.6039 22.2395L26.6847 22.6776L28.0698 15.1765L29.7367 15.4844L30.878 13.9714L26.7104 13.2021ZM19.4914 19.6258V19.6259V19.6258Z" fill="#FFEACF"/>
</g>
<defs>
<clipPath id="clip0_101_687">
<rect width="38.9864" height="38.9864" fill="white"/>
</clipPath>
</defs>
</svg>
