<svg width="40" height="40" viewBox="0 0 40 40" fill="none" xmlns="http://www.w3.org/2000/svg">
<g clip-path="url(#clip0_101_693)">
<path d="M39.8082 20.2445C39.8082 17.8601 39.3794 15.5759 38.5958 13.4643L20.315 12.6167L2.03424 13.4642C1.25063 15.5759 0.821777 17.8601 0.821777 20.2445C0.821777 22.6289 1.25063 24.913 2.03424 27.0247L20.315 27.8723L38.5958 27.0248C39.3794 24.913 39.8082 22.6289 39.8082 20.2445Z" fill="#FFDA44"/>
<path d="M20.3149 39.7377C28.6963 39.7377 35.8414 34.4477 38.5957 27.0247H2.03418C4.78844 34.4477 11.9335 39.7377 20.3149 39.7377Z" fill="#6DA544"/>
<path d="M2.03418 13.4642H38.5958C35.8414 6.04119 28.6963 0.751221 20.3149 0.751221C11.9335 0.751221 4.78843 6.04119 2.03418 13.4642Z" fill="#D80027"/>
</g>
<defs>
<clipPath id="clip0_101_693">
<rect width="38.9864" height="38.9864" fill="white" transform="translate(0.821777 0.751221)"/>
</clipPath>
</defs>
</svg>
