<svg width="40" height="40" viewBox="0 0 40 40" fill="none" xmlns="http://www.w3.org/2000/svg">
<g clip-path="url(#clip0_101_615)">
<path d="M20.3209 39.1847C31.0867 39.1847 39.8141 30.4573 39.8141 19.6915C39.8141 8.92565 31.0867 0.198242 20.3209 0.198242C9.55505 0.198242 0.827637 8.92565 0.827637 19.6915C0.827637 30.4573 9.55505 39.1847 20.3209 39.1847Z" fill="#6DA544"/>
<path d="M20.3204 7.82617L36.4234 19.6916L20.3204 31.557L4.21729 19.6916L20.3204 7.82617Z" fill="#FFDA44"/>
<path d="M20.3207 26.4716C24.0654 26.4716 27.101 23.436 27.101 19.6913C27.101 15.9467 24.0654 12.9111 20.3207 12.9111C16.5761 12.9111 13.5405 15.9467 13.5405 19.6913C13.5405 23.436 16.5761 26.4716 20.3207 26.4716Z" fill="#F0F0F0"/>
<path d="M16.9304 19.2681C15.7514 19.2681 14.6135 19.4474 13.5425 19.7801C13.5899 23.4839 16.6056 26.4721 20.3206 26.4721C22.6177 26.4721 24.6465 25.3286 25.873 23.581C23.7747 20.9542 20.546 19.2681 16.9304 19.2681Z" fill="#0052B4"/>
<path d="M26.9745 20.9909C27.0561 20.5703 27.1002 20.1363 27.1002 19.6918C27.1002 15.9472 24.0646 12.9116 20.32 12.9116C17.5259 12.9116 15.1274 14.6021 14.0894 17.0158C15.0069 16.8256 15.9569 16.7255 16.93 16.7255C20.868 16.7254 24.4305 18.3624 26.9745 20.9909Z" fill="#0052B4"/>
</g>
<defs>
<clipPath id="clip0_101_615">
<rect width="38.9864" height="38.9864" fill="white" transform="translate(0.827637 0.198242)"/>
</clipPath>
</defs>
</svg>
