<svg width="40" height="40" viewBox="0 0 40 40" fill="none" xmlns="http://www.w3.org/2000/svg">
<g clip-path="url(#clip0_101_281)">
<path d="M20.3194 39.9593C31.0852 39.9593 39.8126 31.2319 39.8126 20.4661C39.8126 9.70031 31.0852 0.9729 20.3194 0.9729C9.55358 0.9729 0.826172 9.70031 0.826172 20.4661C0.826172 31.2319 9.55358 39.9593 20.3194 39.9593Z" fill="#F0F0F0"/>
<path d="M32.1887 5.00083C25.2098 -0.369404 15.4291 -0.369404 8.4502 5.00075L20.3194 16.87L32.1887 5.00083Z" fill="#D80027"/>
<path d="M20.3193 24.0617L8.4502 35.9308C15.4291 41.301 25.2098 41.301 32.1887 35.9308L20.3194 24.0615L20.3193 24.0617Z" fill="#D80027"/>
<path d="M16.7235 20.4662L4.85433 8.59692C-0.515898 15.5758 -0.515898 25.3565 4.85433 32.3354L16.7235 20.4662Z" fill="#6DA544"/>
<path d="M23.9155 20.4662L35.7846 32.3354C41.1548 25.3565 41.1548 15.5758 35.7846 8.59692L23.9155 20.4662Z" fill="#6DA544"/>
<path d="M20.319 28.9411C24.9998 28.9411 28.7943 25.1465 28.7943 20.4658C28.7943 15.785 24.9998 11.9905 20.319 11.9905C15.6383 11.9905 11.8438 15.785 11.8438 20.4658C11.8438 25.1465 15.6383 28.9411 20.319 28.9411Z" fill="#F0F0F0"/>
<path d="M20.3191 14.5334L21.053 15.8048H22.521L21.787 17.076L22.521 18.3473H21.053L20.3191 19.6187L19.5851 18.3473H18.1172L18.8512 17.076L18.1172 15.8048H19.5851L20.3191 14.5334Z" fill="#D80027"/>
<path d="M16.5887 20.4661L17.3227 21.7374H18.7906L18.0566 23.0086L18.7906 24.28H17.3227L16.5887 25.5513L15.8546 24.28H14.3867L15.1207 23.0086L14.3867 21.7374H15.8546L16.5887 20.4661Z" fill="#D80027"/>
<path d="M24.0501 20.4661L24.7841 21.7374H26.252L25.518 23.0086L26.252 24.28H24.7841L24.0501 25.5513L23.3161 24.28H21.8481L22.5821 23.0086L21.8481 21.7374H23.3161L24.0501 20.4661Z" fill="#D80027"/>
</g>
<defs>
<clipPath id="clip0_101_281">
<rect width="38.9864" height="38.9864" fill="white" transform="translate(0.826172 0.9729)"/>
</clipPath>
</defs>
</svg>
