<svg width="40" height="40" viewBox="0 0 40 40" fill="none" xmlns="http://www.w3.org/2000/svg">
<g clip-path="url(#clip0_101_654)">
<path d="M19.7823 39.9593C30.5481 39.9593 39.2755 31.2319 39.2755 20.4661C39.2755 9.70031 30.5481 0.9729 19.7823 0.9729C9.01647 0.9729 0.289062 9.70031 0.289062 20.4661C0.289062 31.2319 9.01647 39.9593 19.7823 39.9593Z" fill="#F0F0F0"/>
<path d="M36.9051 11.1432C34.3862 6.52659 30.0548 3.04149 24.8673 1.64331L24.0198 11.1432H36.9051Z" fill="#0052B4"/>
<path d="M2.65942 11.1432H15.5447L14.6972 1.64331C9.50969 3.04149 5.17839 6.52666 2.65942 11.1432Z" fill="#0052B4"/>
<path d="M24.0195 20.4661V29.7889H36.9048C38.4159 27.0194 39.2751 23.8431 39.2751 20.4661H24.0195Z" fill="#6DA544"/>
<path d="M15.5446 20.4661H0.289062C0.289062 23.8431 1.14821 27.0194 2.65924 29.7889H15.5446V20.4661H15.5446Z" fill="#6DA544"/>
<path d="M2.65942 29.7888C5.17839 34.4054 9.50969 37.8905 14.6972 39.2887L15.5447 30.9806L2.65942 29.7888Z" fill="#FFDA44"/>
<path d="M24.8673 39.2887C30.0548 37.8905 34.3862 34.4054 36.9051 29.7888L24.0198 30.9804L24.8673 39.2887Z" fill="#FFDA44"/>
<path d="M24.0198 30.9804L36.9052 29.7888H24.0198V30.9804Z" fill="#FFDA44"/>
<path d="M15.5448 29.7888H2.65942L15.5448 30.9804V29.7888Z" fill="#FFDA44"/>
<path d="M19.7822 0.9729C18.0228 0.9729 16.3185 1.20743 14.697 1.64443V39.2879C16.3185 39.7248 18.0228 39.9593 19.7822 39.9593C21.5417 39.9593 23.246 39.7248 24.8675 39.2878V1.64443C23.246 1.20743 21.5417 0.9729 19.7822 0.9729Z" fill="#D80027"/>
<path d="M10.7739 5.21069L11.2997 6.82932H13.0018L11.6249 7.82971L12.1509 9.44834L10.7739 8.44801L9.39691 9.44834L9.923 7.82971L8.54614 6.82932H10.2481L10.7739 5.21069Z" fill="#FFDA44"/>
</g>
<defs>
<clipPath id="clip0_101_654">
<rect width="38.9864" height="38.9864" fill="white" transform="translate(0.289062 0.9729)"/>
</clipPath>
</defs>
</svg>
