<svg width="40" height="40" viewBox="0 0 40 40" fill="none" xmlns="http://www.w3.org/2000/svg">
<g clip-path="url(#clip0_101_698)">
<path d="M19.754 39.7377C30.5198 39.7377 39.2472 31.0103 39.2472 20.2444C39.2472 9.47863 30.5198 0.751221 19.754 0.751221C8.98815 0.751221 0.260742 9.47863 0.260742 20.2444C0.260742 31.0103 8.98815 39.7377 19.754 39.7377Z" fill="#F0F0F0"/>
<path d="M39.2472 20.244C39.2472 31.0097 30.5197 39.7372 19.754 39.7372C8.98822 39.7372 0.260742 31.0097 0.260742 20.244C0.260742 9.47826 19.754 20.244 19.754 20.244C19.754 20.244 34.508 20.244 39.2472 20.244Z" fill="#D80027"/>
<path d="M0.260742 20.2444C0.260742 9.4787 8.98822 0.751221 19.754 0.751221C19.754 8.16436 19.754 20.2444 19.754 20.2444C19.754 20.2444 7.04096 20.2444 0.260742 20.2444Z" fill="#0052B4"/>
<path d="M11.8645 7.53125L13.1268 11.416H17.2114L13.9069 13.8169L15.1691 17.7017L11.8645 15.3007L8.55995 17.7017L9.82214 13.8169L6.51758 11.416H10.6022L11.8645 7.53125Z" fill="#F0F0F0"/>
</g>
<defs>
<clipPath id="clip0_101_698">
<rect width="38.9864" height="38.9864" fill="white" transform="translate(0.260742 0.751221)"/>
</clipPath>
</defs>
</svg>
