<svg width="39" height="39" viewBox="0 0 39 39" fill="none" xmlns="http://www.w3.org/2000/svg">
<g clip-path="url(#clip0_101_26)">
<path d="M19.4932 38.9864C30.259 38.9864 38.9864 30.259 38.9864 19.4932C38.9864 8.72741 30.259 0 19.4932 0C8.72741 0 0 8.72741 0 19.4932C0 30.259 8.72741 38.9864 19.4932 38.9864Z" fill="#F0F0F0"/>
<path d="M37.774 12.7129H1.21246C0.428927 14.8246 0 17.1087 0 19.4931C0 21.8775 0.428927 24.1616 1.21246 26.2733H37.7741C38.5576 24.1616 38.9864 21.8775 38.9864 19.4931C38.9864 17.1087 38.5576 14.8246 37.774 12.7129Z" fill="#D80027"/>
<path d="M19.4927 0C13.5845 0 8.29062 2.62884 4.71582 6.78022H34.2695C30.6947 2.62884 25.4009 0 19.4927 0Z" fill="#0052B4"/>
<path d="M34.2695 32.2065H4.71582C8.29062 36.3579 13.5845 38.9868 19.4927 38.9868C25.4009 38.9868 30.6947 36.3579 34.2695 32.2065Z" fill="#0052B4"/>
</g>
<defs>
<clipPath id="clip0_101_26">
<rect width="38.9864" height="38.9864" fill="white"/>
</clipPath>
</defs>
</svg>
