<svg width="39" height="40" viewBox="0 0 39 40" fill="none" xmlns="http://www.w3.org/2000/svg">
<g clip-path="url(#clip0_101_732)">
<path d="M19.4932 39.7377C30.259 39.7377 38.9864 31.0103 38.9864 20.2444C38.9864 9.47863 30.259 0.751221 19.4932 0.751221C8.72741 0.751221 0 9.47863 0 20.2444C0 31.0103 8.72741 39.7377 19.4932 39.7377Z" fill="#FCFCFC"/>
<path d="M30.5113 17.7014C29.9181 17.7014 29.1835 17.7014 27.9687 17.7014C27.9687 22.3822 24.1741 26.1767 19.4934 26.1767C14.8126 26.1767 11.0182 22.3822 11.0182 17.7014C10.1988 17.7014 9.29476 17.7014 8.47559 17.7014C8.47559 22.7434 11.8622 26.9943 16.485 28.3035C15.9782 29.2663 16.0554 30.4784 16.7794 31.3819C17.7303 30.6198 18.7148 29.8308 19.5499 29.1617C20.3851 29.8309 21.3697 30.6199 22.3205 31.3819C23.0516 30.4695 23.1236 29.2419 22.5999 28.2745C27.1721 26.9332 30.5113 22.7075 30.5113 17.7014Z" fill="#6DA544"/>
<path d="M12.7129 16.8539C12.7129 16.8539 12.7129 21.0915 16.9505 21.0915L17.798 21.939H19.4931C19.4931 21.939 20.3406 19.3964 22.0357 19.3964C22.0357 19.3964 22.0357 17.7014 23.7307 17.7014C25.4258 17.7014 26.2733 17.7014 26.2733 17.7014C26.2733 17.7014 25.4258 14.3112 29.6635 11.7686L27.9684 10.9211C27.9684 10.9211 22.0357 15.1588 17.798 14.3113V16.0064H16.103L15.2555 15.1589L12.7129 16.8539Z" fill="#FFDA44"/>
</g>
<defs>
<clipPath id="clip0_101_732">
<rect width="38.9864" height="38.9864" fill="white" transform="translate(0 0.751221)"/>
</clipPath>
</defs>
</svg>
