<svg width="40" height="40" viewBox="0 0 40 40" fill="none" xmlns="http://www.w3.org/2000/svg">
<g clip-path="url(#clip0_101_670)">
<path d="M19.8631 39.9593C30.6289 39.9593 39.3563 31.2319 39.3563 20.4661C39.3563 9.70031 30.6289 0.9729 19.8631 0.9729C9.09729 0.9729 0.369873 9.70031 0.369873 20.4661C0.369873 31.2319 9.09729 39.9593 19.8631 39.9593Z" fill="#F0F0F0"/>
<path d="M18.1676 20.4661C18.1676 20.4661 6.09028 34.2526 6.07886 34.2498C9.60637 37.7774 14.4797 39.9593 19.8627 39.9593C30.6284 39.9593 39.3559 31.2318 39.3559 20.4661H18.1676Z" fill="#D80027"/>
<path d="M6.08003 6.68213C-1.53253 14.2947 -1.53253 26.6372 6.08003 34.2498C9.22582 31.104 12.2513 28.0785 19.8639 20.466L6.08003 6.68213Z" fill="#0052B4"/>
</g>
<defs>
<clipPath id="clip0_101_670">
<rect width="38.9864" height="38.9864" fill="white" transform="translate(0.369873 0.9729)"/>
</clipPath>
</defs>
</svg>
