<svg width="39" height="40" viewBox="0 0 39 40" fill="none" xmlns="http://www.w3.org/2000/svg">
<g clip-path="url(#clip0_101_570)">
<path d="M19.4932 39.1847C30.259 39.1847 38.9864 30.4573 38.9864 19.6915C38.9864 8.92565 30.259 0.198242 19.4932 0.198242C8.72741 0.198242 0 8.92565 0 19.6915C0 30.4573 8.72741 39.1847 19.4932 39.1847Z" fill="#F0F0F0"/>
<path d="M15.2559 17.1489H38.8217C37.5757 7.5845 29.3975 0.198242 19.4935 0.198242C18.038 0.198242 16.6204 0.359137 15.2559 0.661587V17.1489H15.2559Z" fill="#D80027"/>
<path d="M10.1704 17.1488V2.56836C4.8179 5.48884 0.986115 10.8457 0.165039 17.1488H10.1704V17.1488Z" fill="#D80027"/>
<path d="M10.1703 22.2339H0.165039C0.986115 28.537 4.8179 33.8939 10.1704 36.8143L10.1703 22.2339Z" fill="#D80027"/>
<path d="M15.2559 22.234V38.7212C16.6204 39.0236 18.038 39.1845 19.4935 39.1845C29.3975 39.1845 37.5757 31.7983 38.8217 22.2339H15.2559V22.234Z" fill="#D80027"/>
</g>
<defs>
<clipPath id="clip0_101_570">
<rect width="38.9864" height="38.9864" fill="white" transform="translate(0 0.198242)"/>
</clipPath>
</defs>
</svg>
