<svg width="40" height="40" viewBox="0 0 40 40" fill="none" xmlns="http://www.w3.org/2000/svg">
<g clip-path="url(#clip0_101_704)">
<path d="M19.898 39.7377C30.6638 39.7377 39.3912 31.0103 39.3912 20.2444C39.3912 9.47863 30.6638 0.751221 19.898 0.751221C9.1322 0.751221 0.404785 9.47863 0.404785 20.2444C0.404785 31.0103 9.1322 39.7377 19.898 39.7377Z" fill="#F0F0F0"/>
<path d="M1.07617 25.3293C2.8761 32.0075 8.13447 37.266 14.8127 39.0659V25.3293H1.07617Z" fill="#D80027"/>
<path d="M14.8126 1.42285C8.13447 3.2227 2.87602 8.48115 1.07617 15.1593H14.8127V1.42285H14.8126Z" fill="#0052B4"/>
<path d="M38.7196 15.1593C36.9198 8.48115 31.6613 3.2227 24.9832 1.42285V15.1594H38.7196V15.1593Z" fill="#D80027"/>
<path d="M24.9832 39.0659C31.6613 37.266 36.9198 32.0076 38.7197 25.3293H24.9832V39.0659Z" fill="#0052B4"/>
<path d="M24.9832 20.2446C24.9832 23.0532 22.7065 25.3299 19.898 25.3299C17.0895 25.3299 14.8127 23.0532 14.8127 20.2446C14.8127 17.4361 19.898 15.1594 19.898 15.1594C19.898 15.1594 24.9832 17.4361 24.9832 20.2446Z" fill="#496E2D"/>
<path d="M14.8127 20.2446C14.8127 17.4361 17.0895 15.1594 19.898 15.1594C22.7065 15.1594 24.9832 17.4361 24.9832 20.2446" fill="#0052B4"/>
<path d="M17.0381 17.7019V20.8801C17.0381 22.4599 18.3187 23.7405 19.8985 23.7405C21.4783 23.7405 22.7589 22.4599 22.7589 20.8801V17.7019H17.0381Z" fill="#D80027"/>
</g>
<defs>
<clipPath id="clip0_101_704">
<rect width="38.9864" height="38.9864" fill="white" transform="translate(0.404785 0.751221)"/>
</clipPath>
</defs>
</svg>
