<svg width="39" height="39" viewBox="0 0 39 39" fill="none" xmlns="http://www.w3.org/2000/svg">
<g clip-path="url(#clip0_101_115)">
<path d="M19.4932 38.9864C30.259 38.9864 38.9864 30.259 38.9864 19.4932C38.9864 8.72741 30.259 0 19.4932 0C8.72741 0 0 8.72741 0 19.4932C0 30.259 8.72741 38.9864 19.4932 38.9864Z" fill="#FFDA44"/>
<path d="M19.4933 0C14.7208 0 10.3496 1.71609 6.96094 4.5637L27.9686 19.4932L6.96094 34.4227C10.3496 37.2704 14.7208 38.9864 19.4933 38.9864C30.2591 38.9864 38.9866 30.259 38.9866 19.4932C38.9866 8.72748 30.2591 0 19.4933 0Z" fill="#D80027"/>
<path d="M5.70991 5.70923C-1.90265 13.3218 -1.90265 25.6643 5.70991 33.2769C8.8557 30.1311 11.8812 27.1056 19.4937 19.4931L5.70991 5.70923Z" fill="white"/>
<path d="M5.40497 15.0276L8.3716 17.8352L11.9587 15.881L10.2054 19.5703L13.1721 22.378L9.12163 21.8505L7.36815 25.5396L6.61835 21.5243L2.56787 20.9966L6.15478 19.0427L5.40497 15.0276Z" fill="#F0F0F0"/>
</g>
<defs>
<clipPath id="clip0_101_115">
<rect width="38.9864" height="38.9864" fill="white"/>
</clipPath>
</defs>
</svg>
