<svg width="40" height="40" viewBox="0 0 40 40" fill="none" xmlns="http://www.w3.org/2000/svg">
<g clip-path="url(#clip0_101_714)">
<path d="M20.2918 39.7377C31.0576 39.7377 39.785 31.0103 39.785 20.2444C39.785 9.47863 31.0576 0.751221 20.2918 0.751221C9.526 0.751221 0.798584 9.47863 0.798584 20.2444C0.798584 31.0103 9.526 39.7377 20.2918 39.7377Z" fill="#F0F0F0"/>
<path d="M39.62 17.7017H16.0542H16.0542V1.21436C14.2527 1.61381 12.5448 2.26128 10.9689 3.12119V17.7015V17.7016H0.963591C0.855084 18.5339 0.798584 19.3825 0.798584 20.2442C0.798584 21.106 0.855084 21.9545 0.963591 22.7868H10.9689H10.9689V37.3672C12.5448 38.227 14.2527 38.8747 16.0542 39.274V22.787V22.7869H39.62C39.7284 21.9545 39.785 21.106 39.785 20.2442C39.785 19.3825 39.7284 18.5339 39.62 17.7017Z" fill="#0052B4"/>
</g>
<defs>
<clipPath id="clip0_101_714">
<rect width="38.9864" height="38.9864" fill="white" transform="translate(0.798584 0.751221)"/>
</clipPath>
</defs>
</svg>
