<svg width="40" height="40" viewBox="0 0 40 40" fill="none" xmlns="http://www.w3.org/2000/svg">
<g clip-path="url(#clip0_101_610)">
<path d="M39.6139 19.6913C39.6139 17.3068 39.185 15.0227 38.4014 12.911L20.1207 12.0635L1.8399 12.911C1.05637 15.0227 0.627441 17.3068 0.627441 19.6913C0.627441 22.0757 1.05637 24.3598 1.8399 26.4715L20.1207 27.319L38.4014 26.4715C39.185 24.3598 39.6139 22.0757 39.6139 19.6913Z" fill="#F0F0F0"/>
<path d="M20.1208 39.1847C28.5022 39.1847 35.6474 33.8947 38.4016 26.4717H1.84009C4.59434 33.8947 11.7394 39.1847 20.1208 39.1847Z" fill="#0052B4"/>
<path d="M1.84009 12.9112H38.4017C35.6473 5.48822 28.5022 0.198242 20.1208 0.198242C11.7394 0.198242 4.59434 5.48822 1.84009 12.9112Z" fill="#6DA544"/>
</g>
<defs>
<clipPath id="clip0_101_610">
<rect width="38.9864" height="38.9864" fill="white" transform="translate(0.627441 0.198242)"/>
</clipPath>
</defs>
</svg>
