<svg width="40" height="40" viewBox="0 0 40 40" fill="none" xmlns="http://www.w3.org/2000/svg">
<g clip-path="url(#clip0_101_718)">
<path d="M0.0349121 20.2445C0.0349121 22.6289 0.463839 24.913 1.24738 27.0247L19.5281 27.8723L37.8089 27.0248C38.5925 24.913 39.0214 22.6289 39.0214 20.2445C39.0214 17.8601 38.5925 15.576 37.8089 13.4643L19.5281 12.6167L1.24738 13.4642C0.463839 15.576 0.0349121 17.8601 0.0349121 20.2445Z" fill="#FFDA44"/>
<path d="M19.5283 0.751221C11.1469 0.751221 4.00181 6.04119 1.24756 13.4642H37.8092C35.0548 6.04119 27.9097 0.751221 19.5283 0.751221Z" fill="#D80027"/>
<path d="M37.8091 27.0247H1.24756C4.00181 34.4476 11.1469 39.7377 19.5283 39.7377C27.9097 39.7377 35.0548 34.4476 37.8091 27.0247Z" fill="#496E2D"/>
<path d="M19.528 13.4644L21.2108 18.6438H26.6573L22.2513 21.8451L23.9341 27.0248L19.528 23.8236L15.1218 27.0248L16.8049 21.8451L12.3989 18.6438H17.8451L19.528 13.4644Z" fill="white"/>
</g>
<defs>
<clipPath id="clip0_101_718">
<rect width="38.9864" height="38.9864" fill="white" transform="translate(0.0349121 0.751221)"/>
</clipPath>
</defs>
</svg>
