<svg width="40" height="40" viewBox="0 0 40 40" fill="none" xmlns="http://www.w3.org/2000/svg">
<g clip-path="url(#clip0_101_645)">
<path d="M20.4158 39.9593C31.1816 39.9593 39.909 31.2319 39.909 20.4661C39.909 9.70031 31.1816 0.9729 20.4158 0.9729C9.65002 0.9729 0.922607 9.70031 0.922607 20.4661C0.922607 31.2319 9.65002 39.9593 20.4158 39.9593Z" fill="#F0F0F0"/>
<path d="M39.9093 20.4662C39.9093 12.0849 34.6193 4.93973 27.1963 2.18555V38.7471C34.6193 35.9927 39.9093 28.8477 39.9093 20.4662Z" fill="#FF9811"/>
<path d="M0.922607 20.4662C0.922607 28.8477 6.21258 35.9927 13.6356 38.7471V2.18555C6.21258 4.93973 0.922607 12.0849 0.922607 20.4662Z" fill="#6DA544"/>
</g>
<defs>
<clipPath id="clip0_101_645">
<rect width="38.9864" height="38.9864" fill="white" transform="translate(0.922607 0.9729)"/>
</clipPath>
</defs>
</svg>
