<svg width="39" height="40" viewBox="0 0 39 40" fill="none" xmlns="http://www.w3.org/2000/svg">
<g clip-path="url(#clip0_101_737)">
<path d="M19.4932 39.7377C30.259 39.7377 38.9864 31.0103 38.9864 20.2444C38.9864 9.47863 30.259 0.751221 19.4932 0.751221C8.72741 0.751221 0 9.47863 0 20.2444C0 31.0103 8.72741 39.7377 19.4932 39.7377Z" fill="#F0F0F0"/>
<path d="M26.8328 16.0064H21.9395L19.493 11.7688L17.0465 16.0064H12.1531L14.5999 20.2441L12.1531 24.4817H17.0465L19.493 28.7194L21.9395 24.4817H26.8328L24.386 20.2441L26.8328 16.0064ZM22.4988 20.2441L20.996 22.8474H17.9902L16.4871 20.2441L17.9901 17.6408H20.9959L22.4988 20.2441ZM19.493 15.0375L20.0523 16.0064H18.9337L19.493 15.0375ZM14.9841 17.6408H16.1028L15.5435 18.6097L14.9841 17.6408ZM14.9841 22.8474L15.5435 21.8785L16.1029 22.8474H14.9841ZM19.493 25.4506L18.9337 24.4817H20.0523L19.493 25.4506ZM24.0018 22.8474H22.8831L23.4425 21.8785L24.0018 22.8474ZM22.8831 17.6408H24.0018L23.4425 18.6097L22.8831 17.6408Z" fill="#0052B4"/>
<path d="M31.6273 4.98828H7.35867C5.57969 6.40519 4.05404 8.12623 2.86084 10.0735H36.1251C34.9318 8.12631 33.4062 6.40519 31.6273 4.98828Z" fill="#0052B4"/>
<path d="M7.35867 35.4995H31.6272C33.4062 34.0826 34.9318 32.3616 36.125 30.4143H2.86084C4.05411 32.3615 5.57976 34.0826 7.35867 35.4995Z" fill="#0052B4"/>
</g>
<defs>
<clipPath id="clip0_101_737">
<rect width="38.9864" height="38.9864" fill="white" transform="translate(0 0.751221)"/>
</clipPath>
</defs>
</svg>
