<svg width="39" height="40" viewBox="0 0 39 40" fill="none" xmlns="http://www.w3.org/2000/svg">
<g clip-path="url(#clip0_101_640)">
<path d="M19.4932 39.7377C30.259 39.7377 38.9864 31.0103 38.9864 20.2444C38.9864 9.47863 30.259 0.751221 19.4932 0.751221C8.72741 0.751221 0 9.47863 0 20.2444C0 31.0103 8.72741 39.7377 19.4932 39.7377Z" fill="#F0F0F0"/>
<path d="M38.9867 20.2446C38.9867 11.8632 33.6967 4.71812 26.2737 1.96387V38.5255C33.6967 35.7711 38.9867 28.626 38.9867 20.2446Z" fill="#D80027"/>
<path d="M0 20.2446C0 28.626 5.28997 35.7711 12.713 38.5254V1.96387C5.28997 4.71812 0 11.8632 0 20.2446Z" fill="#6DA544"/>
</g>
<defs>
<clipPath id="clip0_101_640">
<rect width="38.9864" height="38.9864" fill="white" transform="translate(0 0.751221)"/>
</clipPath>
</defs>
</svg>
