<svg width="40" height="40" viewBox="0 0 40 40" fill="none" xmlns="http://www.w3.org/2000/svg">
<g clip-path="url(#clip0_101_605)">
<path d="M19.7967 39.1847C22.1811 39.1847 24.4653 38.7558 26.5769 37.9722L27.4245 19.6915L26.577 1.41071C24.4653 0.627169 22.1811 0.198242 19.7967 0.198242C17.4123 0.198242 15.1282 0.627169 13.0165 1.41071L12.1689 19.6915L13.0164 37.9722C15.1282 38.7558 17.4123 39.1847 19.7967 39.1847Z" fill="#F0F0F0"/>
<path d="M0.303467 19.6914C0.303467 28.0728 5.59344 35.2179 13.0165 37.9722V1.41064C5.59344 4.1649 0.303467 11.31 0.303467 19.6914Z" fill="#FF9811"/>
<path d="M26.5771 1.41064V37.9722C34.0002 35.2179 39.2902 28.0728 39.2902 19.6914C39.2902 11.31 34.0002 4.1649 26.5771 1.41064Z" fill="#6DA544"/>
</g>
<defs>
<clipPath id="clip0_101_605">
<rect width="38.9864" height="38.9864" fill="white" transform="translate(0.303467 0.198242)"/>
</clipPath>
</defs>
</svg>
