<svg width="39" height="40" viewBox="0 0 39 40" fill="none" xmlns="http://www.w3.org/2000/svg">
<g clip-path="url(#clip0_101_675)">
<path d="M0 20.2444C0 9.4787 8.72748 0.751221 19.4932 0.751221C30.259 0.751221 38.9864 9.4787 38.9864 20.2444" fill="#D80027"/>
<path d="M26.2733 18.8796L23.5028 20.1827L24.9782 22.866L21.9697 22.2904L21.5886 25.3295L19.4931 23.0942L17.3976 25.3295L17.0165 22.2904L14.008 22.8658L15.4834 20.1827L12.7129 18.8796L15.4834 17.5763L14.008 14.8933L17.0164 15.4687L17.3977 12.4297L19.4931 14.6648L21.5886 12.4297L21.9697 15.4687L24.9782 14.8933L23.503 17.5765L26.2733 18.8796Z" fill="#FFDA44"/>
<path d="M24.5784 7.1075H20.7645C20.7645 6.40552 20.1952 5.83618 19.4932 5.83618C18.7911 5.83618 18.2219 6.40544 18.2219 7.1075H14.408C14.408 7.80957 15.0196 8.37883 15.7216 8.37883H15.6792C15.6792 9.08089 16.2483 9.65015 16.9505 9.65015C16.9505 10.3522 17.5196 10.9215 18.2219 10.9215H20.7644C21.4664 10.9215 22.0358 10.3523 22.0358 9.65015C22.7377 9.65015 23.3071 9.08097 23.3071 8.37883H23.2647C23.9668 8.37883 24.5784 7.80964 24.5784 7.1075Z" fill="#FFDA44"/>
<path d="M38.9864 20.2444C38.9864 31.0101 30.259 39.7376 19.4932 39.7376C8.72748 39.7376 0 31.0101 0 20.2444C0.847498 20.2444 38.9864 20.2444 38.9864 20.2444Z" fill="#F0F0F0"/>
<path d="M19.4936 39.7375C25.5869 39.7375 31.0263 36.9412 34.601 32.5625C33.958 32.1241 33.6109 31.4155 32.4888 31.4155C30.8644 31.4155 30.8644 32.9008 29.2401 32.9008C27.6157 32.9008 27.6157 31.4155 25.9913 31.4155C24.3669 31.4155 24.3669 32.9008 22.7424 32.9008C21.1179 32.9008 21.1179 31.4155 19.4933 31.4155C17.8689 31.4155 17.8689 32.9008 16.2446 32.9008C14.6204 32.9008 14.6204 31.4155 12.996 31.4155C11.3714 31.4155 11.3714 32.9008 9.74685 32.9008C8.12229 32.9008 8.12229 31.4155 6.49773 31.4155C5.3758 31.4155 5.02865 32.124 4.38599 32.5624C7.96056 36.9412 13.4002 39.7375 19.4936 39.7375Z" fill="#0052B4"/>
<path d="M35.7374 22.7311C34.1129 22.7311 34.1129 21.2458 32.4885 21.2458C30.864 21.2458 30.864 22.7311 29.2397 22.7311C27.6154 22.7311 27.6153 21.2458 25.991 21.2458C24.3666 21.2458 24.3666 22.7311 22.7421 22.7311C21.1176 22.7311 21.1175 21.2458 19.493 21.2458C17.8685 21.2458 17.8685 22.7311 16.2442 22.7311C14.62 22.7311 14.62 21.2458 12.9956 21.2458C11.3711 21.2458 11.3711 22.7311 9.74649 22.7311C8.12193 22.7311 8.12193 21.2458 6.49737 21.2458C4.87319 21.2458 4.87319 22.7311 3.24878 22.7311C1.63312 22.7311 1.62376 21.2622 0.0253906 21.2465C0.0703926 22.1382 0.176844 23.0136 0.337815 23.8696C1.63259 24.0599 1.74597 25.3302 3.24885 25.3302C4.87326 25.3302 4.87326 23.8451 6.49744 23.8451C8.12201 23.8451 8.12201 25.3302 9.74657 25.3302C11.3711 25.3302 11.3711 23.8451 12.9957 23.8451C14.6201 23.8451 14.6201 25.3302 16.2443 25.3302C17.8687 25.3302 17.8687 23.8451 19.493 23.8451C21.1176 23.8451 21.1176 25.3302 22.7421 25.3302C24.3667 25.3302 24.3667 23.8451 25.991 23.8451C27.6155 23.8451 27.6155 25.3302 29.2398 25.3302C30.8641 25.3302 30.8642 23.8451 32.4885 23.8451C34.1131 23.8451 34.1131 25.3302 35.7374 25.3302C37.2405 25.3302 37.3538 24.06 38.6487 23.8697C38.8097 23.0136 38.916 22.1383 38.9613 21.2466C37.3626 21.2624 37.3531 22.7311 35.7374 22.7311Z" fill="#0052B4"/>
<path d="M32.4882 26.3306C30.8638 26.3306 30.8638 27.8159 29.2395 27.8159C27.6151 27.8159 27.6151 26.3306 25.9907 26.3306C24.3663 26.3306 24.3663 27.8159 22.7418 27.8159C21.1173 27.8159 21.1173 26.3306 19.4927 26.3306C17.8683 26.3306 17.8683 27.8159 16.244 27.8159C14.6198 27.8159 14.6198 26.3306 12.9954 26.3306C11.3708 26.3306 11.3708 27.8159 9.74624 27.8159C8.12168 27.8159 8.12168 26.3306 6.49712 26.3306C4.87294 26.3306 4.87294 27.8159 3.24853 27.8159C2.08784 27.8159 1.7563 27.0578 1.06909 26.6246C1.52657 27.9464 2.12173 29.2038 2.83848 30.3792C2.96313 30.4022 3.09882 30.4149 3.24853 30.4149C4.87294 30.4149 4.87294 28.9298 6.49712 28.9298C8.12168 28.9298 8.12168 30.4149 9.74624 30.4149C11.3708 30.4149 11.3708 28.9298 12.9954 28.9298C14.6198 28.9298 14.6198 30.4149 16.244 30.4149C17.8684 30.4149 17.8684 28.9298 19.4927 28.9298C21.1173 28.9298 21.1173 30.4149 22.7418 30.4149C24.3664 30.4149 24.3664 28.9298 25.9907 28.9298C27.6151 28.9298 27.6151 30.4149 29.2395 30.4149C30.8638 30.4149 30.8639 28.9298 32.4882 28.9298C34.1128 28.9298 34.1128 30.4149 35.7371 30.4149C35.887 30.4149 36.0226 30.4022 36.1473 30.3791C36.8641 29.2038 37.4591 27.9464 37.9168 26.6247C37.2295 27.0576 36.8979 27.8159 35.7371 27.8159C34.1128 27.8159 34.1128 26.3306 32.4882 26.3306Z" fill="#0052B4"/>
<path d="M38.926 18.7046C37.3627 18.7415 37.3412 20.1882 35.7373 20.1882C34.1129 20.1882 34.1129 18.7029 32.4884 18.7029C30.864 18.7029 30.864 20.1882 29.2397 20.1882C27.6153 20.1882 27.6153 18.7029 25.9909 18.7029C24.3665 18.7029 24.3665 20.1882 22.742 20.1882C21.1176 20.1882 21.1175 18.7029 19.4929 18.7029C17.8685 18.7029 17.8685 20.1882 16.2442 20.1882C14.62 20.1882 14.62 18.7029 12.9956 18.7029C11.371 18.7029 11.371 20.1882 9.74646 20.1882C8.1219 20.1882 8.1219 18.7029 6.49733 18.7029C4.87315 18.7029 4.87315 20.1882 3.24874 20.1882C1.6452 20.1882 1.6235 18.7416 0.0603833 18.7046C0.0207115 19.2127 0 19.7263 0 20.2446C0 20.5997 0.0100512 20.9524 0.0290114 21.3028C1.62372 21.3207 1.63431 22.7872 3.24882 22.7872C4.87323 22.7872 4.87323 21.302 6.49741 21.302C8.12197 21.302 8.12197 22.7872 9.74653 22.7872C11.3711 22.7872 11.3711 21.302 12.9957 21.302C14.6201 21.302 14.6201 22.7872 16.2442 22.7872C17.8687 22.7872 17.8687 21.302 19.493 21.302C21.1176 21.302 21.1176 22.7872 22.7421 22.7872C24.3667 22.7872 24.3667 21.302 25.991 21.302C27.6154 21.302 27.6154 22.7872 29.2398 22.7872C30.8641 22.7872 30.8642 21.302 32.4885 21.302C34.1131 21.302 34.1131 22.7872 35.7374 22.7872C37.3521 22.7872 37.3626 21.3207 38.9577 21.3028C38.9764 20.9524 38.9864 20.5997 38.9864 20.2446C38.9864 19.7263 38.9657 19.2127 38.926 18.7046Z" fill="#F0F0F0"/>
</g>
<defs>
<clipPath id="clip0_101_675">
<rect width="38.9864" height="38.9864" fill="white" transform="translate(0 0.751221)"/>
</clipPath>
</defs>
</svg>
