<svg width="39" height="40" viewBox="0 0 39 40" fill="none" xmlns="http://www.w3.org/2000/svg">
<g clip-path="url(#clip0_101_578)">
<path d="M37.0518 11.7692C33.8988 5.24875 27.2211 0.751221 19.4928 0.751221C11.7645 0.751221 5.08687 5.24875 1.93384 11.7692L19.4928 13.4642L37.0518 11.7692Z" fill="#D80027"/>
<path d="M1.93384 28.7197C5.08687 35.2401 11.7645 39.7377 19.4928 39.7377C27.2211 39.7377 33.8988 35.2401 37.0518 28.7197L19.4928 27.0247L1.93384 28.7197Z" fill="#D80027"/>
<path d="M37.0522 11.7695H1.93425C0.695055 14.3322 0 17.2073 0 20.2448C0 23.2823 0.695055 26.1574 1.93425 28.7201H37.0521C38.2915 26.1574 38.9864 23.2823 38.9864 20.2448C38.9864 17.2073 38.2915 14.3322 37.0522 11.7695Z" fill="#0052B4"/>
<path d="M19.4931 27.0248C23.2377 27.0248 26.2733 23.9892 26.2733 20.2446C26.2733 16.5 23.2377 13.4644 19.4931 13.4644C15.7485 13.4644 12.7129 16.5 12.7129 20.2446C12.7129 23.9892 15.7485 27.0248 19.4931 27.0248Z" fill="#F0F0F0"/>
</g>
<defs>
<clipPath id="clip0_101_578">
<rect width="38.9864" height="38.9864" fill="white" transform="translate(0 0.751221)"/>
</clipPath>
</defs>
</svg>
