<svg width="40" height="40" viewBox="0 0 40 40" fill="none" xmlns="http://www.w3.org/2000/svg">
<g clip-path="url(#clip0_101_724)">
<path d="M2.10856 11.7698C0.869372 14.3325 0.174316 17.2076 0.174316 20.2451C0.174316 23.2826 0.869372 26.1576 2.10856 28.7204L19.6675 30.4154L37.2265 28.7204C38.4657 26.1576 39.1608 23.2826 39.1608 20.2451C39.1608 17.2076 38.4657 14.3325 37.2265 11.7698L19.6675 10.0747L2.10856 11.7698Z" fill="white"/>
<path d="M2.10913 28.72C5.26201 35.2404 11.9391 39.7379 19.6674 39.7379C27.3956 39.7379 34.0728 35.2404 37.2257 28.72H2.10913Z" fill="#496E2D"/>
<path d="M2.10913 11.7692H37.2257C34.0728 5.24875 27.3956 0.751221 19.6674 0.751221C11.9391 0.751221 5.26201 5.24875 2.10913 11.7692Z" fill="#D80027"/>
<path d="M24.2049 16.6792L25.8042 18.8832L28.3945 18.0433L26.7925 20.2455L28.3917 22.4494L25.8025 21.6063L24.2005 23.8085L24.2022 21.0854L21.6128 20.2423L24.2031 19.4025L24.2049 16.6792Z" fill="#F0F0F0"/>
<path d="M19.84 25.7534C16.7975 25.7534 14.331 23.2869 14.331 20.2444C14.331 17.2019 16.7975 14.7354 19.84 14.7354C20.7886 14.7354 21.6812 14.9753 22.4605 15.3976C21.2379 14.202 19.5661 13.4641 17.7211 13.4641C13.9765 13.4641 10.9409 16.4997 10.9409 20.2443C10.9409 23.9889 13.9765 27.0245 17.7211 27.0245C19.5661 27.0245 21.238 26.2866 22.4605 25.0911C21.6811 25.5135 20.7886 25.7534 19.84 25.7534Z" fill="#F0F0F0"/>
</g>
<defs>
<clipPath id="clip0_101_724">
<rect width="38.9864" height="38.9864" fill="white" transform="translate(0.174316 0.751221)"/>
</clipPath>
</defs>
</svg>
