<svg width="40" height="40" viewBox="0 0 40 40" fill="none" xmlns="http://www.w3.org/2000/svg">
<g clip-path="url(#clip0_101_49)">
<path d="M27.0758 1.41071C24.9641 0.627169 22.68 0.198242 20.2956 0.198242C17.9112 0.198242 15.6271 0.627169 13.5154 1.41071L11.8203 19.6915L13.5154 37.9722C15.6271 38.7558 17.9112 39.1847 20.2956 39.1847C22.68 39.1847 24.9641 38.7558 27.0758 37.9722L28.7709 19.6915L27.0758 1.41071Z" fill="#FFDA44"/>
<path d="M39.7892 19.6913C39.7892 11.31 34.4992 4.16482 27.0762 1.41064V37.9722C34.4992 35.2178 39.7892 28.0728 39.7892 19.6913Z" fill="#D80027"/>
<path d="M0.80249 19.6913C0.80249 28.0728 6.09246 35.2178 13.5155 37.9722V1.41064C6.09246 4.16482 0.80249 11.31 0.80249 19.6913Z" fill="#6DA544"/>
</g>
<defs>
<clipPath id="clip0_101_49">
<rect width="38.9864" height="38.9864" fill="white" transform="translate(0.80249 0.198242)"/>
</clipPath>
</defs>
</svg>
