<svg width="40" height="40" fill="none" xmlns="http://www.w3.org/2000/svg"><g clip-path="url(#clip0_101_596)"><path d="M11.588 37.25a19.416 19.416 0 008.475 1.935c3.038 0 5.913-.695 8.476-1.935l1.694-17.558-1.695-17.56A19.416 19.416 0 0020.063.198a19.42 19.42 0 00-8.475 1.934l-1.695 17.56 1.695 17.558z" fill="#FFDA44"/><path d="M28.538 37.25c6.52-3.154 11.018-9.83 11.018-17.559 0-7.728-4.498-14.405-11.018-17.558v35.116z" fill="#D80027"/><path d="M11.587 37.25V2.132C5.067 5.286.57 11.963.57 19.69s4.497 14.406 11.017 17.56z" fill="#0052B4"/><path d="M20.063 26.472v-6.78h5.085v2.542c0 .442-.848 2.06-2.94 3.39-.792.504-1.612.666-2.145.848zm0-11.866h-5.086v5.086h5.085v-5.086z" fill="#D80027"/><path d="M22.605 12.91a1.695 1.695 0 00-2.543-1.466 1.695 1.695 0 00-2.543 1.466h-4.237v8.476c0 3.155 2.506 4.98 4.47 5.926a1.695 1.695 0 002.31 2.321 1.695 1.695 0 002.31-2.321c1.965-.946 4.47-2.77 4.47-5.926v-8.475h-4.237zm1.695 8.476c0 .442 0 1.786-2.092 3.116-.792.504-1.612.83-2.146 1.012a10.262 10.262 0 01-2.145-1.012c-2.092-1.33-2.092-2.674-2.092-3.116v-5.932H24.3v5.932z" fill="#FF9811"/></g><defs><clipPath id="clip0_101_596"><path fill="#fff" transform="translate(.57 .198)" d="M0 0h38.986v38.986H0z"/></clipPath></defs></svg>