<svg width="40" height="40" fill="none" xmlns="http://www.w3.org/2000/svg"><g clip-path="url(#clip0_101_174)"><path d="M20.455 39.96c10.766 0 19.493-8.728 19.493-19.494S31.22.973 20.455.973C9.689.973.96 9.7.96 20.466c0 10.766 8.728 19.493 19.494 19.493z" fill="#F0F0F0"/><path d="M20.454.973C12.726.973 6.05 5.47 2.896 11.99h35.117C34.86 5.47 28.183.973 20.455.973zm0 38.987c7.729 0 14.406-4.498 17.56-11.018H2.895c3.153 6.52 9.83 11.018 17.558 11.018z" fill="#338AF3"/><path d="M26.28 20.466l-2.38 1.12 1.268 2.306-2.585-.495-.328 2.611-1.8-1.92-1.801 1.92-.328-2.611-2.585.494 1.268-2.305-2.38-1.12 2.38-1.12-1.268-2.305 2.585.494.328-2.611 1.8 1.92 1.801-1.92.328 2.611 2.585-.494-1.268 2.305 2.38 1.12z" fill="#FFDA44"/></g><defs><clipPath id="clip0_101_174"><path fill="#fff" transform="translate(.961 .973)" d="M0 0h38.986v38.986H0z"/></clipPath></defs></svg>