<svg width="40" height="40" fill="none" xmlns="http://www.w3.org/2000/svg"><g clip-path="url(#clip0_101_70)"><path d="M39.576 20.466c0-2.384-.43-4.668-1.213-6.78l-18.28-.848-18.281.848a19.451 19.451 0 00-1.213 6.78c0 2.385.43 4.669 1.213 6.78l18.28.848 18.281-.848a19.45 19.45 0 001.213-6.78z" fill="#0052B4"/><path d="M20.083 39.96c8.381 0 15.526-5.29 18.28-12.714H1.803c2.754 7.423 9.9 12.713 18.28 12.713z" fill="#FF9811"/><path d="M1.802 13.686h36.562C35.609 6.263 28.464.973 20.083.973 11.7.973 4.556 6.263 1.802 13.686z" fill="#D80027"/></g><defs><clipPath id="clip0_101_70"><path fill="#fff" transform="translate(.59 .973)" d="M0 0h38.986v38.986H0z"/></clipPath></defs></svg>