<svg width="40" height="40" fill="none" xmlns="http://www.w3.org/2000/svg"><g clip-path="url(#clip0_101_623)"><path d="M39.857 19.692c0 10.765-8.728 19.493-19.494 19.493C9.598 39.185.87 30.457.87 19.69.87 19.697 20.363.202 20.363.199c10.766 0 19.494 8.728 19.494 19.494z" fill="#0052B4"/><path d="M20.31 19.692h.053v-.052l-.052.052zm.053-9.322V.2h-.003C9.596.2.87 8.927.87 19.691h10.17v-5.727l5.727 5.727h3.544l.052-.052v-3.543l-5.727-5.727h5.727z" fill="#F0F0F0"/><path d="M10.732 2.74a19.586 19.586 0 00-7.319 7.32v9.631h5.085V7.826h11.866V2.74h-9.632z" fill="#D80027"/><path d="M20.364 17.294l-6.926-6.925h-2.397l9.323 9.322v-2.397z" fill="#D80027"/><path d="M12.627 23.081l1.07 2.238 2.416-.559-1.082 2.231 1.943 1.541-2.42.545.008 2.48-1.935-1.551-1.934 1.55.007-2.479-2.42-.545 1.943-1.54-1.082-2.232 2.416.558 1.07-2.237zm17.429 4.238l.535 1.118 1.208-.279-.541 1.116.971.77-1.21.273.004 1.24-.967-.776-.967.776.003-1.24-1.21-.273.972-.77-.54-1.116 1.207.28.535-1.12zM25.08 15.454l.535 1.118 1.208-.28-.541 1.116.971.77-1.21.273.004 1.24-.967-.775-.967.775.003-1.24-1.21-.272.972-.77-.541-1.116 1.208.28.535-1.12zm4.976-6.781l.535 1.119 1.208-.28-.541 1.116.971.77-1.21.273.004 1.24-.967-.776-.967.776.003-1.24-1.21-.272.972-.77-.54-1.116 1.207.279.535-1.119zm4.347 5.086l.535 1.118 1.208-.279-.541 1.116.971.77-1.21.273.004 1.24-.967-.776-.967.775.003-1.24-1.21-.272.972-.77-.54-1.116 1.207.28.535-1.12zm-3.108 5.932l.42 1.295h1.362l-1.101.8.42 1.296-1.101-.8-1.102.8.421-1.295-1.102-.8h1.362l.42-1.296z" fill="#F0F0F0"/></g><defs><clipPath id="clip0_101_623"><path fill="#fff" transform="translate(.87 .198)" d="M0 0h38.986v38.986H0z"/></clipPath></defs></svg>