<svg width="40" height="40" fill="none" xmlns="http://www.w3.org/2000/svg"><g clip-path="url(#clip0_101_590)"><path d="M38.392 27.024a19.45 19.45 0 001.212-6.78 19.45 19.45 0 00-1.212-6.78L20.11 11.769 1.83 13.464a19.452 19.452 0 00-1.213 6.78c0 2.384.429 4.669 1.212 6.78l18.28 1.695 18.282-1.695z" fill="#F0F0F0"/><path d="M20.111 39.738c8.381 0 15.527-5.29 18.28-12.713H1.832c2.754 7.423 9.899 12.713 18.28 12.713zm0-38.987c-8.381 0-15.526 5.29-18.28 12.713h36.56C35.639 6.041 28.494.751 20.112.751z" fill="#D80027"/></g><defs><clipPath id="clip0_101_590"><path fill="#fff" transform="translate(.618 .751)" d="M0 0h38.986v38.986H0z"/></clipPath></defs></svg>