<svg width="39" height="39" fill="none" xmlns="http://www.w3.org/2000/svg"><g clip-path="url(#clip0_101_687)"><path d="M33.278 33.277c-7.613 7.613-19.956 7.613-27.568 0-7.613-7.612-7.613-19.955 0-27.567.003 0 17.518-5.176 25.13 2.437 7.613 7.612 2.443 25.125 2.438 25.13z" fill="#FFDA44"/><path d="M33.277 33.277c7.612-7.612 7.612-19.955 0-27.568-7.613-7.612-19.955-7.612-27.568 0l27.568 27.568z" fill="#D80027"/><path d="M24.588 24.59a2.96 2.96 0 01-2.538-.172 2.97 2.97 0 01-1.135-4.038l-.243-.137a5.518 5.518 0 004.217-5.42 5.496 5.496 0 00-1.883-4.077l-1.78 1.823a2.961 2.961 0 011.12 2.284 2.97 2.97 0 01-2.93 3.002l.004.279a5.518 5.518 0 00-6.803-.942 5.497 5.497 0 00-2.59 3.67l2.47.63a2.961 2.961 0 011.418-2.113 2.97 2.97 0 014.065 1.036l.24-.142a5.517 5.517 0 002.586 6.363 5.496 5.496 0 004.472.407l-.69-2.453zm-5.15-5.04h-.001z" fill="#FF9811"/><path d="M26.71 13.202l-1.377 4.917-4.134-.764-2.661-5.485-7.189 2.551-.567-1.597-1.88-.232 1.417 3.994 4.947-1.265 1.406 3.961-3.42 5.047 5.803 4.95-1.1 1.29.74 1.745 2.75-3.224-3.57-3.652 2.729-3.198 6.08.438 1.386-7.502 1.667.308 1.141-1.513-4.168-.769zm-7.219 6.424z" fill="#FFEACF"/></g><defs><clipPath id="clip0_101_687"><path fill="#fff" d="M0 0h38.986v38.986H0z"/></clipPath></defs></svg>