<svg width="40" height="40" fill="none" xmlns="http://www.w3.org/2000/svg"><g clip-path="url(#clip0_101_693)"><path d="M39.808 20.244a19.45 19.45 0 00-1.212-6.78l-18.281-.847-18.28.847a19.45 19.45 0 00-1.213 6.78c0 2.385.429 4.669 1.212 6.78l18.281.848 18.28-.847a19.45 19.45 0 001.213-6.78z" fill="#FFDA44"/><path d="M20.315 39.738c8.381 0 15.526-5.29 18.28-12.713H2.036c2.753 7.423 9.899 12.713 18.28 12.713z" fill="#6DA544"/><path d="M2.034 13.464h36.562C35.84 6.041 28.696.751 20.315.751c-8.382 0-15.527 5.29-18.28 12.713z" fill="#D80027"/></g><defs><clipPath id="clip0_101_693"><path fill="#fff" transform="translate(.822 .751)" d="M0 0h38.986v38.986H0z"/></clipPath></defs></svg>