<svg width="40" height="40" fill="none" xmlns="http://www.w3.org/2000/svg"><g clip-path="url(#clip0_101_615)"><path d="M20.32 39.185c10.767 0 19.494-8.728 19.494-19.494C39.814 8.927 31.087.199 20.321.199 9.555.198.828 8.926.828 19.692c0 10.765 8.727 19.493 19.493 19.493z" fill="#6DA544"/><path d="M20.32 7.826l16.103 11.866L20.32 31.557 4.217 19.692 20.32 7.826z" fill="#FFDA44"/><path d="M20.32 26.472a6.78 6.78 0 100-13.56 6.78 6.78 0 000 13.56z" fill="#F0F0F0"/><path d="M16.93 19.268c-1.179 0-2.316.18-3.387.512a6.78 6.78 0 0012.33 3.801 11.426 11.426 0 00-8.943-4.313zm10.044 1.722a6.78 6.78 0 00-12.885-3.975c.918-.19 1.868-.29 2.841-.29 3.938 0 7.5 1.637 10.044 4.266z" fill="#0052B4"/></g><defs><clipPath id="clip0_101_615"><path fill="#fff" transform="translate(.828 .198)" d="M0 0h38.986v38.986H0z"/></clipPath></defs></svg>