<svg width="40" height="40" fill="none" xmlns="http://www.w3.org/2000/svg"><g clip-path="url(#clip0_101_281)"><path d="M20.32 39.96c10.765 0 19.493-8.728 19.493-19.494S31.085.973 20.319.973C9.554.973.826 9.7.826 20.466c0 10.766 8.728 19.493 19.493 19.493z" fill="#F0F0F0"/><path d="M32.189 5C25.209-.37 15.429-.37 8.45 5l11.87 11.87L32.188 5zM20.32 24.062L8.45 35.93c6.98 5.37 16.76 5.37 23.739 0l-11.87-11.87z" fill="#D80027"/><path d="M16.724 20.466L4.854 8.596c-5.37 6.98-5.37 16.76 0 23.74l11.87-11.87zm7.192 0l11.869 11.87c5.37-6.98 5.37-16.76 0-23.74l-11.87 11.87z" fill="#6DA544"/><path d="M20.319 28.941a8.475 8.475 0 100-16.95 8.475 8.475 0 000 16.95z" fill="#F0F0F0"/><path d="M20.32 14.533l.733 1.272h1.468l-.734 1.271.734 1.271h-1.468l-.734 1.272-.734-1.272h-1.468l.734-1.271-.734-1.271h1.468l.734-1.272zm-3.731 5.933l.734 1.271h1.468l-.734 1.272.734 1.271h-1.468l-.734 1.271-.734-1.271h-1.468l.734-1.271-.734-1.272h1.468l.734-1.27zm7.461 0l.734 1.271h1.468l-.734 1.272.734 1.271h-1.468l-.734 1.271-.734-1.271h-1.468l.734-1.271-.734-1.272h1.468l.734-1.27z" fill="#D80027"/></g><defs><clipPath id="clip0_101_281"><path fill="#fff" transform="translate(.826 .973)" d="M0 0h38.986v38.986H0z"/></clipPath></defs></svg>