<svg width="40" height="40" fill="none" xmlns="http://www.w3.org/2000/svg"><g clip-path="url(#clip0_101_654)"><path d="M19.782 39.96c10.766 0 19.494-8.728 19.494-19.494S30.547.973 19.782.973.29 9.7.29 20.466c0 10.766 8.727 19.493 19.493 19.493z" fill="#F0F0F0"/><path d="M36.905 11.143a19.537 19.537 0 00-12.038-9.5l-.847 9.5h12.885zm-34.245 0h12.885l-.848-9.5a19.538 19.538 0 00-12.038 9.5z" fill="#0052B4"/><path d="M24.02 20.466v9.323h12.885a19.406 19.406 0 002.37-9.323H24.02zm-8.475 0H.289c0 3.377.86 6.553 2.37 9.323h12.886v-9.323z" fill="#6DA544"/><path d="M2.66 29.789a19.538 19.538 0 0012.037 9.5l.848-8.308-12.886-1.192zm22.207 9.5a19.537 19.537 0 0012.038-9.5L24.02 30.98l.847 8.309z" fill="#FFDA44"/><path d="M24.02 30.98l12.885-1.191H24.02v1.191zm-8.475-1.191H2.659l12.886 1.191v-1.19z" fill="#FFDA44"/><path d="M19.782.973c-1.76 0-3.463.234-5.085.671v37.644a19.52 19.52 0 005.085.671c1.76 0 3.464-.234 5.085-.671V1.644a19.515 19.515 0 00-5.085-.671z" fill="#D80027"/><path d="M10.774 5.21l.526 1.62h1.702l-1.377 1 .526 1.618-1.377-1-1.377 1 .526-1.618-1.377-1h1.702l.526-1.62z" fill="#FFDA44"/></g><defs><clipPath id="clip0_101_654"><path fill="#fff" transform="translate(.29 .973)" d="M0 0h38.986v38.986H0z"/></clipPath></defs></svg>