<svg width="40" height="40" fill="none" xmlns="http://www.w3.org/2000/svg"><g clip-path="url(#clip0_101_698)"><path d="M19.754 39.738c10.766 0 19.493-8.728 19.493-19.494C39.247 9.48 30.52.751 19.754.751 8.988.751.261 9.48.261 20.244c0 10.766 8.727 19.494 19.493 19.494z" fill="#F0F0F0"/><path d="M39.247 20.244c0 10.766-8.727 19.493-19.493 19.493C8.988 39.737.261 31.01.261 20.244c0-10.766 19.493 0 19.493 0h19.493z" fill="#D80027"/><path d="M.26 20.244C.26 9.48 8.989.751 19.755.751v19.493H.261z" fill="#0052B4"/><path d="M11.864 7.531l1.263 3.885h4.084l-3.304 2.4 1.262 3.886-3.305-2.401-3.304 2.4 1.262-3.884-3.304-2.401h4.084l1.262-3.885z" fill="#F0F0F0"/></g><defs><clipPath id="clip0_101_698"><path fill="#fff" transform="translate(.26 .751)" d="M0 0h38.986v38.986H0z"/></clipPath></defs></svg>