<svg width="39" height="39" fill="none" xmlns="http://www.w3.org/2000/svg"><g clip-path="url(#clip0_101_26)"><path d="M19.493 38.986c10.766 0 19.493-8.727 19.493-19.493C38.986 8.727 30.26 0 19.493 0 8.727 0 0 8.727 0 19.493 0 30.26 8.727 38.986 19.493 38.986z" fill="#F0F0F0"/><path d="M37.774 12.713H1.212A19.451 19.451 0 000 19.493c0 2.385.429 4.669 1.212 6.78h36.562a19.452 19.452 0 001.212-6.78 19.45 19.45 0 00-1.212-6.78z" fill="#D80027"/><path d="M19.493 0A19.449 19.449 0 004.716 6.78h29.553A19.448 19.448 0 0019.494 0zM34.27 32.206H4.716a19.447 19.447 0 0014.777 6.78 19.447 19.447 0 0014.777-6.78z" fill="#0052B4"/></g><defs><clipPath id="clip0_101_26"><path fill="#fff" d="M0 0h38.986v38.986H0z"/></clipPath></defs></svg>