<svg width="39" height="40" fill="none" xmlns="http://www.w3.org/2000/svg"><g clip-path="url(#clip0_101_732)"><path d="M19.493 39.738c10.766 0 19.493-8.728 19.493-19.494C38.986 9.48 30.26.751 19.493.751 8.727.751 0 9.48 0 20.244 0 31.01 8.727 39.738 19.493 39.738z" fill="#FCFCFC"/><path d="M30.511 17.701H27.97a8.475 8.475 0 01-16.95 0H8.475c0 5.042 3.386 9.293 8.009 10.602a2.82 2.82 0 00.294 3.079l2.77-2.22 2.771 2.22a2.82 2.82 0 00.28-3.108c4.572-1.34 7.911-5.567 7.911-10.573z" fill="#6DA544"/><path d="M12.713 16.854s0 4.238 4.238 4.238l.847.847h1.695s.848-2.543 2.543-2.543c0 0 0-1.695 1.695-1.695h2.542s-.847-3.39 3.39-5.932l-1.695-.848s-5.932 4.238-10.17 3.39v1.695h-1.695l-.848-.847-2.542 1.695z" fill="#FFDA44"/></g><defs><clipPath id="clip0_101_732"><path fill="#fff" transform="translate(0 .751)" d="M0 0h38.986v38.986H0z"/></clipPath></defs></svg>