<svg width="40" height="40" fill="none" xmlns="http://www.w3.org/2000/svg"><g clip-path="url(#clip0_101_670)"><path d="M19.863 39.96c10.766 0 19.493-8.728 19.493-19.494S30.63.973 19.863.973C9.097.973.37 9.7.37 20.466c0 10.766 8.727 19.493 19.493 19.493z" fill="#F0F0F0"/><path d="M18.168 20.466S6.09 34.253 6.078 34.25a19.432 19.432 0 0013.785 5.71c10.765 0 19.493-8.728 19.493-19.494H18.168z" fill="#D80027"/><path d="M6.08 6.682c-7.613 7.613-7.613 19.955 0 27.568l13.784-13.784L6.08 6.682z" fill="#0052B4"/></g><defs><clipPath id="clip0_101_670"><path fill="#fff" transform="translate(.37 .973)" d="M0 0h38.986v38.986H0z"/></clipPath></defs></svg>