<svg width="39" height="40" fill="none" xmlns="http://www.w3.org/2000/svg"><g clip-path="url(#clip0_101_570)"><path d="M19.493 39.185c10.766 0 19.493-8.728 19.493-19.494C38.986 8.927 30.26.199 19.493.199 8.727.198 0 8.926 0 19.692c0 10.765 8.727 19.493 19.493 19.493z" fill="#F0F0F0"/><path d="M15.256 17.149h23.566C37.576 7.584 29.397.199 19.493.199c-1.455 0-2.873.16-4.237.463v16.487zm-5.086 0V2.569C4.818 5.488.986 10.845.165 17.148H10.17zm0 5.085H.165c.821 6.303 4.653 11.66 10.005 14.58v-14.58zm5.086 0v16.487c1.364.303 2.782.464 4.238.464 9.904 0 18.082-7.387 19.328-16.951H15.256z" fill="#D80027"/></g><defs><clipPath id="clip0_101_570"><path fill="#fff" transform="translate(0 .198)" d="M0 0h38.986v38.986H0z"/></clipPath></defs></svg>