<svg width="40" height="40" fill="none" xmlns="http://www.w3.org/2000/svg"><g clip-path="url(#clip0_101_704)"><path d="M19.898 39.738c10.766 0 19.493-8.728 19.493-19.494C39.391 9.48 30.664.751 19.898.751 9.132.751.405 9.48.405 20.244c0 10.766 8.727 19.494 19.493 19.494z" fill="#F0F0F0"/><path d="M1.076 25.33a19.528 19.528 0 0013.737 13.736V25.329H1.076z" fill="#D80027"/><path d="M14.813 1.423A19.527 19.527 0 001.076 15.159h13.737V1.423z" fill="#0052B4"/><path d="M38.72 15.16A19.527 19.527 0 0024.983 1.422v13.736H38.72z" fill="#D80027"/><path d="M24.983 39.066A19.527 19.527 0 0038.72 25.329H24.983v13.737z" fill="#0052B4"/><path d="M24.983 20.245a5.085 5.085 0 11-10.17 0c0-2.809 5.085-5.086 5.085-5.086s5.085 2.277 5.085 5.086z" fill="#496E2D"/><path d="M14.813 20.245a5.085 5.085 0 0110.17 0" fill="#0052B4"/><path d="M17.038 17.702v3.178a2.86 2.86 0 105.72 0v-3.178h-5.72z" fill="#D80027"/></g><defs><clipPath id="clip0_101_704"><path fill="#fff" transform="translate(.405 .751)" d="M0 0h38.986v38.986H0z"/></clipPath></defs></svg>