<svg width="39" height="39" fill="none" xmlns="http://www.w3.org/2000/svg"><g clip-path="url(#clip0_101_115)"><path d="M19.493 38.986c10.766 0 19.493-8.727 19.493-19.493C38.986 8.727 30.26 0 19.493 0 8.727 0 0 8.727 0 19.493 0 30.26 8.727 38.986 19.493 38.986z" fill="#FFDA44"/><path d="M19.493 0A19.413 19.413 0 006.961 4.564l21.008 14.93L6.96 34.422a19.413 19.413 0 0012.532 4.563c10.766 0 19.494-8.727 19.494-19.493C38.987 8.727 30.259 0 19.493 0z" fill="#D80027"/><path d="M5.71 5.71c-7.613 7.612-7.613 19.954 0 27.567l13.784-13.784L5.71 5.71z" fill="#fff"/><path d="M5.405 15.028l2.967 2.807 3.587-1.954-1.754 3.69 2.967 2.807-4.05-.527-1.754 3.689-.75-4.016-4.05-.527 3.587-1.954-.75-4.015z" fill="#F0F0F0"/></g><defs><clipPath id="clip0_101_115"><path fill="#fff" d="M0 0h38.986v38.986H0z"/></clipPath></defs></svg>