<svg width="40" height="40" fill="none" xmlns="http://www.w3.org/2000/svg"><g clip-path="url(#clip0_101_714)"><path d="M20.292 39.738c10.766 0 19.493-8.728 19.493-19.494C39.785 9.48 31.058.751 20.292.751 9.526.751.799 9.48.799 20.244c0 10.766 8.727 19.494 19.493 19.494z" fill="#F0F0F0"/><path d="M39.62 17.702H16.054V1.214a19.36 19.36 0 00-5.085 1.907v14.58H.964a19.66 19.66 0 000 5.086h10.005v14.58a19.359 19.359 0 005.085 1.907V22.787H39.62a19.68 19.68 0 000-5.085z" fill="#0052B4"/></g><defs><clipPath id="clip0_101_714"><path fill="#fff" transform="translate(.799 .751)" d="M0 0h38.986v38.986H0z"/></clipPath></defs></svg>