<svg width="40" height="40" fill="none" xmlns="http://www.w3.org/2000/svg"><g clip-path="url(#clip0_101_610)"><path d="M39.614 19.691a19.45 19.45 0 00-1.213-6.78l-18.28-.848-18.281.848a19.451 19.451 0 00-1.213 6.78c0 2.385.43 4.669 1.213 6.78l18.28.848 18.281-.848a19.45 19.45 0 001.213-6.78z" fill="#F0F0F0"/><path d="M20.12 39.185c8.382 0 15.527-5.29 18.282-12.713H1.84c2.754 7.423 9.9 12.713 18.28 12.713z" fill="#0052B4"/><path d="M1.84 12.911h36.562C35.647 5.488 28.502.198 20.12.198S4.593 5.488 1.84 12.911z" fill="#6DA544"/></g><defs><clipPath id="clip0_101_610"><path fill="#fff" transform="translate(.627 .198)" d="M0 0h38.986v38.986H0z"/></clipPath></defs></svg>