<svg width="40" height="40" fill="none" xmlns="http://www.w3.org/2000/svg"><g clip-path="url(#clip0_101_718)"><path d="M.035 20.244c0 2.385.429 4.669 1.212 6.78l18.281.848 18.28-.847a19.45 19.45 0 001.213-6.78 19.45 19.45 0 00-1.212-6.78l-18.28-.848-18.282.847a19.452 19.452 0 00-1.212 6.78z" fill="#FFDA44"/><path d="M19.528.751c-8.381 0-15.526 5.29-18.28 12.713h36.561C35.055 6.041 27.91.751 19.53.751z" fill="#D80027"/><path d="M37.81 27.025H1.247c2.754 7.423 9.899 12.713 18.28 12.713 8.382 0 15.527-5.29 18.281-12.713z" fill="#496E2D"/><path d="M19.528 13.464l1.683 5.18h5.446l-4.406 3.201 1.683 5.18-4.406-3.201-4.406 3.2 1.683-5.179-4.406-3.201h5.446l1.683-5.18z" fill="#fff"/></g><defs><clipPath id="clip0_101_718"><path fill="#fff" transform="translate(.035 .751)" d="M0 0h38.986v38.986H0z"/></clipPath></defs></svg>