<svg width="40" height="40" fill="none" xmlns="http://www.w3.org/2000/svg"><g clip-path="url(#clip0_101_645)"><path d="M20.416 39.96c10.766 0 19.493-8.728 19.493-19.494S31.182.973 20.416.973C9.65.973.923 9.7.923 20.466c0 10.766 8.727 19.493 19.493 19.493z" fill="#F0F0F0"/><path d="M39.91 20.466c0-8.381-5.29-15.526-12.714-18.28v36.561c7.423-2.754 12.713-9.9 12.713-18.28z" fill="#FF9811"/><path d="M.923 20.466c0 8.382 5.29 15.527 12.713 18.281V2.186C6.213 4.94.923 12.085.923 20.466z" fill="#6DA544"/></g><defs><clipPath id="clip0_101_645"><path fill="#fff" transform="translate(.923 .973)" d="M0 0h38.986v38.986H0z"/></clipPath></defs></svg>