<svg width="39" height="40" fill="none" xmlns="http://www.w3.org/2000/svg"><g clip-path="url(#clip0_101_737)"><path d="M19.493 39.738c10.766 0 19.493-8.728 19.493-19.494C38.986 9.48 30.26.751 19.493.751 8.727.751 0 9.48 0 20.244 0 31.01 8.727 39.738 19.493 39.738z" fill="#F0F0F0"/><path d="M26.833 16.006H21.94l-2.447-4.237-2.446 4.237h-4.894l2.447 4.238-2.447 4.238h4.894l2.446 4.237 2.447-4.237h4.893l-2.447-4.238 2.447-4.238zm-4.334 4.238l-1.503 2.603H17.99l-1.503-2.603 1.503-2.603h3.006l1.503 2.603zm-3.006-5.207l.56.97h-1.12l.56-.97zm-4.509 2.604h1.119l-.56.969-.559-.97zm0 5.206l.56-.969.559.97h-1.119zm4.509 2.604l-.56-.97h1.12l-.56.97zm4.509-2.604h-1.119l.56-.969.559.97zm-1.119-5.206h1.119l-.56.969-.559-.97zm8.744-12.653H7.36a19.592 19.592 0 00-4.498 5.085h33.264a19.596 19.596 0 00-4.498-5.085zM7.359 35.5h24.268a19.59 19.59 0 004.498-5.086H2.861A19.595 19.595 0 007.359 35.5z" fill="#0052B4"/></g><defs><clipPath id="clip0_101_737"><path fill="#fff" transform="translate(0 .751)" d="M0 0h38.986v38.986H0z"/></clipPath></defs></svg>