<svg width="39" height="40" fill="none" xmlns="http://www.w3.org/2000/svg"><g clip-path="url(#clip0_101_640)"><path d="M19.493 39.738c10.766 0 19.493-8.728 19.493-19.494C38.986 9.48 30.26.751 19.493.751 8.727.751 0 9.48 0 20.244 0 31.01 8.727 39.738 19.493 39.738z" fill="#F0F0F0"/><path d="M38.987 20.245c0-8.382-5.29-15.527-12.713-18.281v36.562c7.423-2.755 12.713-9.9 12.713-18.281z" fill="#D80027"/><path d="M0 20.245c0 8.381 5.29 15.526 12.713 18.28V1.964C5.29 4.718 0 11.864 0 20.244z" fill="#6DA544"/></g><defs><clipPath id="clip0_101_640"><path fill="#fff" transform="translate(0 .751)" d="M0 0h38.986v38.986H0z"/></clipPath></defs></svg>