<svg width="40" height="40" fill="none" xmlns="http://www.w3.org/2000/svg"><g clip-path="url(#clip0_101_605)"><path d="M19.797 39.185a19.45 19.45 0 006.78-1.213l.847-18.28-.847-18.281a19.452 19.452 0 00-6.78-1.213c-2.385 0-4.669.43-6.78 1.213l-.848 18.28.847 18.281a19.45 19.45 0 006.78 1.213z" fill="#F0F0F0"/><path d="M.303 19.691c0 8.382 5.29 15.527 12.714 18.281V1.411C5.593 4.165.303 11.31.303 19.69z" fill="#FF9811"/><path d="M26.577 1.41v36.562c7.423-2.754 12.713-9.9 12.713-18.28C39.29 11.31 34 4.164 26.577 1.41z" fill="#6DA544"/></g><defs><clipPath id="clip0_101_605"><path fill="#fff" transform="translate(.303 .198)" d="M0 0h38.986v38.986H0z"/></clipPath></defs></svg>