<svg width="39" height="40" fill="none" xmlns="http://www.w3.org/2000/svg"><g clip-path="url(#clip0_101_675)"><path d="M0 20.244C0 9.48 8.727.751 19.493.751c10.766 0 19.493 8.728 19.493 19.493" fill="#D80027"/><path d="M26.273 18.88l-2.77 1.303 1.475 2.683-3.008-.576-.381 3.04-2.096-2.236-2.095 2.235-.381-3.039-3.009.576 1.475-2.683-2.77-1.303 2.77-1.304-1.475-2.683 3.008.576.382-3.04 2.095 2.236 2.096-2.235.38 3.039 3.01-.576-1.476 2.683 2.77 1.304zM24.578 7.107h-3.813a1.271 1.271 0 00-2.543 0h-3.814c0 .703.612 1.272 1.314 1.272h-.043c0 .702.57 1.271 1.272 1.271a1.27 1.27 0 001.27 1.271h2.543c.702 0 1.272-.569 1.272-1.27.702 0 1.271-.57 1.271-1.272h-.042c.702 0 1.313-.57 1.313-1.271z" fill="#FFDA44"/><path d="M38.986 20.244c0 10.766-8.727 19.494-19.493 19.494C8.727 39.738 0 31.01 0 20.244h38.986z" fill="#F0F0F0"/><path d="M19.494 39.737c6.093 0 11.532-2.796 15.107-7.175-.643-.438-.99-1.146-2.112-1.146-1.625 0-1.625 1.485-3.249 1.485s-1.624-1.486-3.249-1.486c-1.624 0-1.624 1.486-3.249 1.486-1.624 0-1.624-1.486-3.249-1.486-1.624 0-1.624 1.486-3.248 1.486-1.625 0-1.625-1.486-3.249-1.486-1.625 0-1.625 1.486-3.25 1.486-1.624 0-1.624-1.486-3.248-1.486-1.122 0-1.47.709-2.112 1.147 3.575 4.38 9.014 7.175 15.108 7.175zm16.243-17.006c-1.624 0-1.624-1.485-3.248-1.485-1.625 0-1.625 1.485-3.25 1.485-1.624 0-1.624-1.485-3.248-1.485s-1.624 1.485-3.249 1.485c-1.624 0-1.625-1.485-3.249-1.485s-1.624 1.485-3.249 1.485c-1.624 0-1.624-1.485-3.248-1.485-1.625 0-1.625 1.485-3.25 1.485-1.624 0-1.624-1.485-3.249-1.485-1.624 0-1.624 1.485-3.248 1.485-1.616 0-1.625-1.469-3.224-1.485.045.892.152 1.768.313 2.624 1.295.19 1.408 1.46 2.91 1.46 1.625 0 1.625-1.485 3.25-1.485 1.624 0 1.624 1.485 3.249 1.485 1.624 0 1.624-1.485 3.249-1.485 1.624 0 1.624 1.485 3.248 1.485 1.625 0 1.625-1.485 3.249-1.485 1.625 0 1.625 1.485 3.25 1.485 1.624 0 1.624-1.485 3.248-1.485 1.625 0 1.625 1.485 3.249 1.485s1.624-1.485 3.249-1.485c1.624 0 1.624 1.485 3.248 1.485 1.503 0 1.617-1.27 2.912-1.46.16-.856.267-1.732.312-2.623-1.598.015-1.608 1.484-3.224 1.484zm-3.249 3.599c-1.624 0-1.624 1.486-3.248 1.486-1.625 0-1.625-1.485-3.25-1.485-1.624 0-1.624 1.485-3.248 1.485-1.625 0-1.625-1.485-3.25-1.485-1.624 0-1.624 1.485-3.248 1.485s-1.624-1.485-3.249-1.485c-1.624 0-1.624 1.485-3.249 1.485-1.624 0-1.624-1.485-3.249-1.485-1.624 0-1.624 1.485-3.248 1.485-1.161 0-1.493-.758-2.18-1.191a19.395 19.395 0 001.77 3.754c.124.023.26.036.41.036 1.624 0 1.624-1.485 3.248-1.485 1.625 0 1.625 1.485 3.25 1.485 1.624 0 1.624-1.485 3.248-1.485 1.625 0 1.625 1.485 3.249 1.485s1.624-1.485 3.249-1.485c1.624 0 1.624 1.485 3.249 1.485 1.624 0 1.624-1.485 3.249-1.485 1.624 0 1.624 1.485 3.248 1.485 1.625 0 1.625-1.485 3.25-1.485 1.624 0 1.624 1.485 3.248 1.485.15 0 .286-.013.41-.036a19.403 19.403 0 001.77-3.754c-.688.433-1.02 1.19-2.18 1.19-1.624 0-1.624-1.484-3.249-1.484z" fill="#0052B4"/><path d="M38.926 18.705c-1.563.037-1.585 1.483-3.189 1.483-1.624 0-1.624-1.485-3.249-1.485-1.624 0-1.624 1.485-3.248 1.485-1.625 0-1.625-1.485-3.25-1.485-1.623 0-1.623 1.485-3.248 1.485-1.624 0-1.625-1.485-3.25-1.485-1.623 0-1.623 1.485-3.248 1.485-1.624 0-1.624-1.485-3.248-1.485-1.625 0-1.625 1.485-3.25 1.485-1.624 0-1.624-1.485-3.249-1.485-1.624 0-1.624 1.485-3.248 1.485-1.604 0-1.626-1.446-3.189-1.483a19.78 19.78 0 00-.031 2.598c1.595.018 1.605 1.484 3.22 1.484 1.624 0 1.624-1.485 3.248-1.485 1.625 0 1.625 1.485 3.25 1.485 1.624 0 1.624-1.485 3.249-1.485 1.624 0 1.624 1.485 3.248 1.485 1.625 0 1.625-1.485 3.249-1.485 1.625 0 1.625 1.485 3.25 1.485 1.624 0 1.624-1.485 3.248-1.485s1.624 1.485 3.249 1.485c1.624 0 1.624-1.485 3.249-1.485 1.624 0 1.624 1.485 3.248 1.485 1.615 0 1.626-1.466 3.22-1.484a19.85 19.85 0 00-.031-2.598z" fill="#F0F0F0"/></g><defs><clipPath id="clip0_101_675"><path fill="#fff" transform="translate(0 .751)" d="M0 0h38.986v38.986H0z"/></clipPath></defs></svg>