<svg width="39" height="40" fill="none" xmlns="http://www.w3.org/2000/svg"><g clip-path="url(#clip0_101_578)"><path d="M37.052 11.77C33.899 5.248 27.222.75 19.492.75 11.765.751 5.088 5.25 1.935 11.77l17.559 1.695 17.559-1.695zM1.934 28.72c3.153 6.52 9.83 11.018 17.559 11.018 7.728 0 14.406-4.498 17.559-11.018l-17.56-1.695L1.935 28.72z" fill="#D80027"/><path d="M37.052 11.77H1.934A19.416 19.416 0 000 20.245c0 3.037.695 5.912 1.934 8.475h35.118a19.413 19.413 0 001.934-8.475c0-3.038-.694-5.913-1.934-8.476z" fill="#0052B4"/><path d="M19.493 27.025a6.78 6.78 0 100-13.56 6.78 6.78 0 000 13.56z" fill="#F0F0F0"/></g><defs><clipPath id="clip0_101_578"><path fill="#fff" transform="translate(0 .751)" d="M0 0h38.986v38.986H0z"/></clipPath></defs></svg>