<svg width="40" height="40" fill="none" xmlns="http://www.w3.org/2000/svg"><g clip-path="url(#clip0_101_724)"><path d="M2.109 11.77a19.416 19.416 0 00-1.935 8.475 19.4 19.4 0 001.935 8.475l17.558 1.695 17.56-1.695a19.416 19.416 0 001.934-8.475c0-3.037-.695-5.913-1.934-8.475l-17.56-1.695L2.11 11.77z" fill="#fff"/><path d="M2.11 28.72c3.152 6.52 9.83 11.018 17.557 11.018 7.729 0 14.406-4.498 17.559-11.018H2.109z" fill="#496E2D"/><path d="M2.11 11.77h35.116C34.073 5.248 27.396.75 19.667.75 11.94.751 5.262 5.25 2.11 11.77z" fill="#D80027"/><path d="M24.205 16.68l1.6 2.203 2.59-.84-1.602 2.203 1.599 2.203-2.59-.843-1.601 2.202.001-2.723-2.59-.843 2.591-.84.002-2.723z" fill="#F0F0F0"/><path d="M19.84 25.753a5.509 5.509 0 112.62-10.355 6.78 6.78 0 100 9.694 5.483 5.483 0 01-2.62.661z" fill="#F0F0F0"/></g><defs><clipPath id="clip0_101_724"><path fill="#fff" transform="translate(.174 .751)" d="M0 0h38.986v38.986H0z"/></clipPath></defs></svg>