<svg width="40" height="40" fill="none" xmlns="http://www.w3.org/2000/svg"><g clip-path="url(#clip0_101_49)"><path d="M27.076 1.41a19.451 19.451 0 00-6.78-1.212c-2.385 0-4.669.43-6.78 1.213L11.82 19.69l1.695 18.281a19.45 19.45 0 006.78 1.213 19.45 19.45 0 006.78-1.213l1.696-18.28L27.076 1.41z" fill="#FFDA44"/><path d="M39.79 19.691c0-8.381-5.29-15.526-12.714-18.28v36.561c7.423-2.754 12.713-9.9 12.713-18.28z" fill="#D80027"/><path d="M.802 19.691c0 8.382 5.29 15.527 12.713 18.281V1.411C6.092 4.165.803 11.31.803 19.69z" fill="#6DA544"/></g><defs><clipPath id="clip0_101_49"><path fill="#fff" transform="translate(.802 .198)" d="M0 0h38.986v38.986H0z"/></clipPath></defs></svg>