<svg width="120" height="101" fill="none" xmlns="http://www.w3.org/2000/svg"><path d="M20.38 57.037c-.444 0-1.561.213-2.038.589-.223.175-.134.253-.01.272.124.02.583-.078.583-.078-.142-.039.09-.165.577-.348.487-.183.4.073.4.073.452-.192.869-.508.488-.508zm30.148-41.735c-.569 2.586-.763 4.549.409 8.164 1.085 3.348 1.226 4.956 1.226 4.956l1.17 1.137s-.027-2.463-1.385-5.57c-1.505-3.439-1.562-5.886-1.42-8.687zm4.722 13.732c-.454-1.603-2.207-3.89-3.089-9.504.073 5.154 1.227 6.939 2.184 9.096.957 2.157 1.28 4.63 1.44 6.898.237-2.186-.082-4.886-.535-6.49zm-.612-5.394c.16 1.662.586 3.091 1.305 4.898.72 1.808.904 3.818.904 5.918.146-1.547.45-3.375-.265-6.064-.56-2.108-1.225-2.108-1.944-4.752zM25.61 83.406s-.345-.272-.22-.244c.151.034.254.026.262-.214.005-.132.197.239.197.239s.062-.175-.238-.605-.928-.949-1.165-.867c-.238.081.03.666.313 1.013.492.605.852.678.852.678zm1.274-1.136c-.321-.138-.36-.437-.125-.393.235.043.277.22.277.22.023-.221-.45-.905-1.081-1.196-.318-.15-.073.365.102.611.537.757.827.757.827.757zm6.202 4.382c.335.06.793.108 1.145.023.845-.206 1.072-.854 1.072-.854-.28.202-.723.329-.723.329.377-.387.483-.985.483-.985-.492.547-1.351.875-2.217.755 0 0 .493.433.986.39-.2.184-.746.342-.746.342zm.731-1.314c.318-.064.743-.348.718-.586-.024-.238-.5-.142-.557-.136 0 0 .117.1-.353.323-.522.249-.217-.079-.217-.079a.544.544 0 00-.204.145c-.308.371.297.398.613.333zm1.708-.522c.124.374.639.69.639.69 1.021-.195 1.314-1.283 1.314-1.283-.337.408-.727.448-.727.448.455-.448.355-.992.355-.992a2.53 2.53 0 01-.817.97c-.147.099-.43.26-.764.167zm.239-.781c.08.063-.136.204-.136.204s.302 0 .71-.374c.409-.375.382-.697.054-.622-.329.075-.539.31-.822.656 0 0-.123.209-.074.155a.228.228 0 01.268-.02zm1.735-1.56c.224.27.761.342.761.342.804-.554.706-1.588.706-1.588-.156.475-.474.656-.474.656.241-.552-.014-.976-.014-.976a2.53 2.53 0 01-.385 1.133c-.093.14-.282.385-.594.433zm-.268-.634a.234.234 0 01.095-.096.208.208 0 01.127-.023c.088.024-.052.226-.052.226s.256-.115.484-.588c.227-.472.102-.734-.153-.547-.255.188-.357.467-.487.87 0-.001-.04.224-.014.158zm1.924-1.8c.627-.636.384-1.533.384-1.533a1.144 1.144 0 01-.32.667c.13-.532-.161-.86-.161-.86.029.367-.03.736-.169 1.071-.06.142-.19.392-.46.491.24.199.726.164.726.164zm-.772-1.676c-.197.21-.245.478-.299.857 0 0 0 .205.012.144a.222.222 0 01.07-.103.192.192 0 01.109-.043c.081.004-.011.209-.011.209s.208-.15.337-.608c.13-.459-.02-.668-.218-.456zm-7.038 5.515a2.498 2.498 0 00-.545-.04s.055.054.273.069c.218.014.272-.03.272-.03zM50 57.081c-1.865 1.655-3.28 2.741-6.894 3.586-2.183.511-4.006.459-5.105.337 1.317.291 6.087 1 10.965-2.263 6.16-4.118 7.634-13.265 7.776-16.791 0 0-1.678 10.642-6.741 15.131z" fill="#FFD79C"/><path d="M55.18 44.36s-.743 5.136-4.64 9.907c-3.646 4.465-7.663 5.485-8.922 5.703 5.493-.806 7.702-3.361 9.143-4.803 1.477-1.477 3.668-5.02 4.419-10.807zM41.215 60.025s.145-.011.402-.056c-.132.02-.265.04-.401.056z" fill="#FFD79C"/><path d="M51.148 52.29c1.775-2.41 2.517-5.38 2.752-6.705-.681 2.08-2.211 4.86-3.266 6.57-1.832 2.967-3.816 4.43-3.816 4.43 1.365-.787 2.484-1.788 4.33-4.295zM14.6 58.326c.24-.057.835-.1.968-.09.133.008-.018.206-.018.206.497-.156.744-.51.356-.56-.649-.085-1.652.061-1.9.444 0 0-.053.136.16.204.179.057.506 0 .506 0s-.311-.146-.072-.204zm9.49-2.879a2.677 2.677 0 00-1.485.692c-.207.196-.112.265.013.272.125.008.376-.095.376-.095-.145-.025.075-.174.545-.402.47-.229.404.033.404.033.436-.236.527-.538.147-.5zm-13.222 2.838c.459.146.16.219.16.219.292.065.805.014.772-.088-.033-.102-.649-.466-1.487-.605-.839-.138-.957.032-.464.339.153.092.32.153.493.179-.166-.162.066-.19.526-.044zm-3.768-1.8c-.366-.364-.909-.712-.912-.532-.003.116.164.263.48.617.315.355.971.696.958.622-.013-.075-.16-.343-.526-.707zm21.34 28.352c-.425-.04-.568-.38-.275-.418.293-.039.4.155.4.155-.045-.272-.693-.826-1.12-.835-.428-.01-.364.37-.114.641.524.563 1.11.457 1.11.457zm2.302.833c.532.021.9-.128.909-.316.005-.115-.186-.255-.383-.348 0 0 .12.364-.387.335-.506-.029-.55-.284-.24-.335 0 0-.692.025-.692.266 0 .195.313.38.793.398zm-1.614-2.407c-.16-.234-.497-.356-.723-.467 0 0 .275.223.46.34.183.117.263.127.263.127zM3.388 53.17s.15.452.322.737c.308.51.585.93.795 1.044.265.14-.365-1.146-1.117-1.781zm55.653 44.233c.486.071.98.011 1.439-.176a2.928 2.928 0 01-.968-.106c.55-.117 1.047-.545 1.047-.545-.469.1-.959.024-1.366-.06-.727-.153-1.09-.399-1.09-.399.186.61.603.796.603.796-.444-.01-.674-.187-.674-.187s.37.58 1.01.677zm-3.284-1.419c.71.544 1.18.214 1.18.214-.272-.069-.514-.398-.514-.398.604.107.888 0 .888 0-.56-.078-1.474-.584-1.678-1.166 0 .66.133.854.133.854-.266-.077-.47-.388-.47-.388s.032.556.46.884zm2.893-.117c.777.41 1.776.36 1.759.165-.018-.194-.49-.519-1.136-.567-.646-.048-1.106.147-.622.402zm-2.041-.963c.409.378.851.458.78.234-.072-.223-.833-1.04-1.162-.923 0 0-.027.311.382.689zm-2.517-2.049c.466.524 1.07.696.909.302-.41-1-1.556-1.585-1.45-1.193.002.001.075.365.541.89zm.333 1.349c-.426-.249-.612-.563-.612-.563.539.299.947.213.947.213s-1.194-.404-1.453-1.583a3.948 3.948 0 00-.027.744c-.2-.088-.346-.612-.346-.612s-.148.562.373 1.282c.48.663 1.118.519 1.118.519zm7.539 2.781s.461.242 1.226-.02c.47-.17.887-.484 1.199-.904-.417.128-.85.268-.85.268.266-.248.442-.593.495-.972-.318.356-.981 1.036-2.255.998.264.157.553.256.852.29-.258.223-.667.34-.667.34zm1.411-1.713c.291-.39.083-.448-.545-.298-.629.149-1.045.664-.863.81.167.131 1.116-.122 1.408-.512zm1.525-.707c.182.107 1.21-.39 1.45-.82.24-.429.012-.496-.578-.215-.659.316-1.07.918-.872 1.035zm.88.697c-.107.172-.569.333-.569.333s.392.215 1.083-.138c.8-.406.924-1.203.924-1.203-.39.437-.684.525-.684.525.24-.299.276-.982.276-.982-.16.408-1.013 1.166-1.945 1.283.515.233.915.182.915.182zm-6.68-1.086c.205.05.416.06.625.028 0 0-.741-.249-1.061-.234 0 0 .084.123.435.206zm3.514-.418s-.647.19-.914.374c.221-.034.44-.089.653-.163.27-.105.261-.21.261-.21zM52.437 91.28c-.17-.214-.222-.68-.222-.68.168.223.621.348.621.348s-.737-1.175-.745-1.947a1.746 1.746 0 00-.205.82 2.037 2.037 0 01-.295-.429s-.131.565.136 1.05c.267.487.71.838.71.838zm.846-.66c.128.073.068-.349-.048-.73-.115-.38-.647-1.231-.648-.888 0 .777.382 1.433.696 1.617zm15.701-1.439a.914.914 0 000-.564c-.151.291-.328.622-.363.807-.035.184.266.078.363-.243zm-.842 1.943c-.522.302-.897.945-.754 1.147.142.202.355-.107.656-.379.302-.272.416-.952.098-.767zm.798-4.713c0 .445.166.474.166.32 0-.152-.06-.611-.166-.765v.445zm-11.807-59.68c.035 1.069.142 1.01.517 2.318.376 1.307.424 4.078.424 4.078s.213-4.178 0-4.568c-.213-.39-.693-1.032-.941-1.828zm1.864 2.318s-.09.85.07 1.511c.163.66.445 2.294.445 2.294s.018-1.343 0-2.08c-.019-.737-.249-1.4-.515-1.725zm1.527.879c-.133 1.351.48 3.378.48 3.385 0 .007-.109-2.01.177-3.183.636-2.605.302-4.354.302-4.354-.09 1.422-.872 3.267-.96 4.152zm1.403-.262c-.113 1.442-.046 3.945.461 6.336 0 0-.04-3.314.44-6.326.405-2.547.492-3.265.17-7.245-.07 2.41-.894 4.96-1.071 7.235zm2.592-10.826s-.027 2.673-.382 5.47c-.173 1.364-.71 4.52-.71 6.641 0 2.121 0 5.984.586 8.375-.267-5.073.24-7.58.666-10.817.426-3.236.394-6.184-.16-9.668zM49.729 7.742l.763-1.652c-.662.64-.763 1.652-.763 1.652zm3.195-2.905c-.48.553-.983 1.66-1.184 2.827 0 0 .636-1.205.829-1.691.14-.37.258-.75.355-1.136zm-2.787 6.209c-.16.379-.307 1.254-.307 1.254s.46-1.05.545-1.43c.085-.378-.238.176-.238.176zm-18.643-1.013s.4.444.786.634c.136.066.353.138.266 0-.086-.139-.572-.54-1.052-.634zm70.165 47.593c-.477-.376-1.595-.588-2.04-.589-.381 0 .037.316.489.509 0 0-.09-.255.4-.073.49.181.719.308.577.348 0 0 .458.1.583.078.124-.021.213-.099-.009-.273zm-6.105 24.089c-.237-.082-.866.438-1.165.867-.3.43-.239.605-.239.605s.193-.371.198-.24c.008.241.11.25.262.215.124-.028-.221.244-.221.244s.36-.073.852-.678c.283-.347.546-.932.313-1.013zm-2.314.162c.236-.044.197.255-.125.392 0 0 .291 0 .828-.757.175-.249.42-.758.102-.611-.63.291-1.104.975-1.081 1.196 0 0 .042-.177.277-.22zm-8.303 3.288s.106.597.483.984c0 0-.443-.126-.723-.328 0 0 .227.646 1.072.854.352.085.81.036 1.145-.023 0 0-.545-.158-.746-.343.493.044.986-.39.986-.39-.866.12-1.725-.208-2.217-.754zm1.246.173c.316.065.92.038.613-.333a.545.545 0 00-.205-.144s.306.326-.216.078c-.47-.224-.353-.323-.353-.323-.056-.006-.532-.1-.557.136-.025.235.402.522.718.586zm-2.473-.69a2.53 2.53 0 01-.817-.97s-.098.547.355.992c0 0-.39-.039-.727-.448 0 0 .293 1.089 1.314 1.283 0 0 .515-.315.64-.69-.335.094-.615-.067-.764-.167zm-.1-1.405c-.329-.073-.356.249.053.622.408.373.71.374.71.374s-.218-.141-.136-.204a.228.228 0 01.27.02c.05.053-.075-.156-.075-.156-.284-.347-.494-.583-.823-.656zm-1.703-1.201a2.525 2.525 0 01-.385-1.133s-.256.424-.014.976c0 0-.318-.181-.475-.656 0 0-.097 1.034.706 1.588 0 0 .537-.072.761-.342-.312-.048-.5-.292-.593-.433zm.691-.094s-.14-.202-.052-.226a.206.206 0 01.128.023.23.23 0 01.094.096c.026.065-.013-.16-.013-.16-.13-.401-.232-.681-.488-.868-.255-.187-.38.075-.152.547.228.472.483.588.483.588zm-1.488-2.562a2.33 2.33 0 01-.168-1.072s-.29.33-.16.86a1.146 1.146 0 01-.321-.666s-.243.895.384 1.533c0 0 .485.035.726-.164-.27-.1-.4-.349-.46-.491zm.626.043s-.09-.204-.011-.209a.19.19 0 01.109.043.219.219 0 01.07.103c.012.061.012-.144.012-.144-.054-.379-.102-.646-.3-.857-.198-.211-.347-.003-.218.456.129.46.338.608.338.608zm7.192 4.48c.216-.015.272-.069.272-.069a2.5 2.5 0 00-.545.04s.056.043.273.029zM69.46 54.267c-3.897-4.772-4.64-9.907-4.64-9.907.75 5.788 2.942 9.33 4.418 10.807 1.442 1.442 3.651 3.997 9.144 4.803-1.259-.218-5.276-1.237-8.922-5.703zm9.324 5.758a22.03 22.03 0 01-.402-.056c.257.045.402.056.402.056z" fill="#FFD79C"/><path d="M73.185 56.586s-1.986-1.464-3.816-4.432c-1.056-1.71-2.59-4.49-3.267-6.57.235 1.326.977 4.296 2.752 6.706 1.844 2.507 2.963 3.508 4.33 4.296zm30.909 1.296c-.388.05-.142.404.356.56 0 0-.152-.199-.018-.207.133-.008.727.034.967.091.241.057-.071.204-.071.204s.327.057.506 0c.213-.069.16-.204.16-.204-.248-.383-1.252-.529-1.9-.444zm-6.699-1.742a2.677 2.677 0 00-1.485-.693c-.38-.038-.289.264.146.5 0 0-.067-.263.404-.033.47.229.691.377.545.402 0 0 .25.102.375.095.126-.006.222-.076.015-.272zm12.292 1.67c-.839.14-1.453.503-1.487.605-.034.102.479.153.772.088 0 0-.299-.073.16-.22.46-.145.693-.116.526.045a1.34 1.34 0 00.493-.179c.493-.307.375-.477-.464-.339zm3.213-1.325c-.367.364-.513.634-.526.707-.013.072.643-.267.958-.622.316-.354.483-.5.48-.617-.004-.18-.546.168-.912.532zM92.555 83.739c-.428.01-1.076.563-1.12.835 0 0 .107-.194.4-.155.293.039.15.379-.276.418 0 0 .586.106 1.11-.457.251-.27.314-.651-.114-.641zm-3.198 1.266c.31.05.267.306-.24.335-.505.03-.386-.335-.386-.335-.198.094-.387.234-.382.348.008.188.377.337.908.316.48-.019.792-.204.792-.398.001-.241-.692-.266-.692-.266zm2.238-2.209c-.227.111-.564.233-.724.467 0 0 .08-.01.264-.127.185-.116.46-.34.46-.34zm23.9-27.846c.209-.112.487-.534.794-1.045.173-.285.323-.737.323-.737-.752.637-1.382 1.923-1.117 1.781zM87.454 10.667c-.087.138.131.066.266 0 .386-.19.785-.634.785-.634-.48.094-.965.495-1.051.634z" fill="#FFD79C"/><path d="M119.825 44.165c-.213-.59-.614-.621-.852-.717-.337-.139-.29-.207-.116-.35.23-.193.676-.399.738-.992a4.347 4.347 0 00-.259-1.954c-.325-.822-1.025-.787-1.025-.787-.908-3.108-4.349-7.559-10.315-7.559-6.557 0-9.288 5.344-9.003 8.866.28 3.441 2.67 5.95 5.966 5.907 3.296-.041 4.861-3.237 4.007-5.758-.709-2.105-3.294-2.59-4.238-1.442-.195.236.038.608.308.497.371-.157.834-.243 1.213.038 1.031.91.76 3.063-.961 3.24-1.942.2-3.433-1.201-3.292-3.63.106-1.822 2.28-4.786 6.652-4.39 5.701.521 7.806 10.346 4.687 14.05-3.403 4.045-7.663 3.795-17.156-1.776l.005-.118s1.261-.445 1.2-2.457c-.07-2.277-1.132-2.88-2.47-2.88l-.115-.437s.933-.7.48-2.711c-.455-2.011-1.733-2.216-2.237-2.243l-.16-.706s.745-.734.424-2.408c-.32-1.674-1.49-2.214-2.424-2.073l-.156-.417s.939-.589.496-2.11c-.406-1.393-1.345-1.554-1.973-1.537a.324.324 0 01-.178-.046.364.364 0 01-.132-.138.407.407 0 01-.004-.385c.168-.311.434-.992.128-1.77-.36-.915-1.28-1.186-1.796-1.2a.648.648 0 01.038-.478c.173-.348.436-1.074.168-1.87-.37-1.107-1.278-1.02-1.278-1.02v-.349a2.52 2.52 0 00.533-1.53c0-.919-.416-1.572-.948-1.603 0 0-.078.054.064-.123.182-.23.554-.34.727-.787.294-.752.273-1.465-.222-1.872.243-.035.477-.13.682-.277.457-.357.713-1.182.644-1.626-.048-.29-.297-.585-.297-.585.19.02.38.026.571.015.248-.018 1.109-.59 1.233-.802.123-.212.161-.672.161-.672s.22.398.571.5c.415.118 1.174-.102 1.767-.205.335-.057.64-.526.64-.738 0 0 .111.593.272.746.161.154.912.584 1.594.742.767.18.958-.193.958-.193-.03.308.05.617.223.863.406.563.742.945 1.359 1.24.325.155.653.064.696.036-.086.25-.1.522-.04.78.172.811.32 1.466.648 1.825.155.17.368.123.393.118a.917.917 0 00-.304.469c-.15.568-.15.962-.172 1.549-.01.281.2.453.24.484-.024-.013-.127-.053-.356.048-.266.116-.872.895-1.09 1.338-.195.402-.038.856-.023.895-.02-.015-.116-.158-.383-.196-.284-.036-1.266.334-1.5.413-.233.08-.508.627-.508.627s-.968.222-2.156-.752c-1.188-.974-2.044-3.698-.623-4.675.942-.467 2.29-.199 2.29 1.16 0 .662-.522.945-.925.796a.181.181 0 00-.11-.004.195.195 0 00-.096.062.236.236 0 00-.037.23c.15.393.515.774 1.383.473 1.89-.659 1.605-4.564-1.279-4.86-2.65-.272-4.537 2.388-4.047 5.608.58 3.817 4.686 6.677 9.123 4.575 4.437-2.101 5.257-8.083 3.357-12.517-1.9-4.434-6.34-6.726-11.24-6.299-4.899.427-9.739 4.786-10.26 12.402-.437 6.346 4.438 17.103 5.786 21.34.282.881.652 1.986 1.012 3.213-7.793-3.273-14.374-4.096-15.784-4.185 0 0 2.239-.193 4.033-4.508 1.342-3.232.604-5.94-.874-7.192.342-2.487 1.889-4.531 1.983-8.416.376-5.543-1.928-10.2-3.68-12.164-.37-.412-.982-1.045-2.005-1.438-.5-.582-1.181-1.186-2.223-1.44-.056-.067-.112-.135-.177-.205-.668-.76-1.913-1.136-2.722-1.2a.615.615 0 00-.06-.055c-.762-.62-1.81-.817-2.903-.817l.26.254C61.686.408 60.86.2 60 .2a4.414 4.414 0 00-1.245.168 3.376 3.376 0 00-1.109.552l.26-.254c-1.093 0-2.139.197-2.904.817-.02.015-.038.038-.059.055-.81.064-2.054.44-2.726 1.2-.063.07-.119.138-.176.205-1.04.254-1.724.858-2.22 1.442-1.025.395-1.636 1.027-2.006 1.438-1.753 1.964-4.054 6.622-3.68 12.165.096 3.884 1.642 5.93 1.985 8.415-1.477 1.248-2.216 3.957-.873 7.19 1.794 4.315 4.03 4.508 4.03 4.508-1.408.089-7.988.912-15.781 4.185.36-1.227.73-2.332 1.012-3.213 1.348-4.237 6.223-14.994 5.785-21.34-.522-7.616-5.36-11.975-10.26-12.402-4.9-.427-9.34 1.867-11.239 6.299-1.899 4.432-1.085 10.417 3.355 12.516 4.44 2.1 8.544-.76 9.125-4.575.49-3.22-1.396-5.88-4.047-5.608-2.886.296-3.17 4.201-1.279 4.86.868.302 1.233-.08 1.383-.473a.237.237 0 00-.038-.23.196.196 0 00-.096-.062.181.181 0 00-.111.004c-.402.149-.924-.132-.924-.796 0-1.358 1.349-1.627 2.29-1.16 1.42.978.567 3.708-.622 4.675-1.19.967-2.158.753-2.158.753s-.272-.547-.507-.625c-.235-.078-1.212-.448-1.496-.413-.265.038-.363.18-.383.196.015-.04.17-.495-.025-.895-.217-.445-.823-1.223-1.09-1.339-.23-.1-.332-.06-.356-.047.04-.031.25-.203.238-.485-.02-.586-.019-.98-.168-1.549a.915.915 0 00-.306-.468c.025.005.238.05.393-.118.327-.36.478-1.014.649-1.826.06-.258.046-.53-.04-.78.043.028.372.119.695-.036.616-.293.954-.677 1.36-1.24a1.29 1.29 0 00.222-.863s.192.374.958.193c.681-.158 1.434-.587 1.594-.741.16-.155.273-.746.273-.746 0 .212.304.68.636.738.595.102 1.353.322 1.768.205.353-.103.572-.5.572-.5s.034.458.161.672c.127.214.985.783 1.233.802.19.01.381.005.57-.016 0 0-.25.295-.296.585-.07.445.19 1.27.646 1.626.204.148.436.243.679.277-.497.407-.516 1.12-.224 1.873.173.447.545.557.727.786.142.178.066.123.066.123-.533.032-.95.685-.95 1.603.008.563.196 1.105.533 1.53v.349s-.909-.087-1.278 1.02c-.269.796-.005 1.524.168 1.87a.639.639 0 01.038.478c-.516.014-1.436.285-1.796 1.2-.308.779-.041 1.46.127 1.77a.41.41 0 010 .382.359.359 0 01-.132.142.318.318 0 01-.18.046c-.628-.018-1.568.144-1.973 1.536-.442 1.522.497 2.11.497 2.11l-.155.417c-.934-.141-2.105.401-2.425 2.073-.321 1.672.427 2.407.427 2.407l-.16.7c-.505.028-1.784.233-2.238 2.244-.454 2.01.48 2.71.48 2.71l-.114.438c-1.338 0-2.398.603-2.47 2.88-.062 2.012 1.199 2.457 1.199 2.457l.004.118c-9.494 5.57-13.753 5.818-17.155 1.776-3.12-3.704-1.014-13.526 4.687-14.05 4.372-.398 6.545 2.568 6.651 4.39.142 2.43-1.351 3.83-3.29 3.63-1.723-.175-1.995-2.328-.964-3.238.378-.282.842-.195 1.211-.038.273.113.503-.26.31-.498-.944-1.148-3.53-.663-4.24 1.443-.852 2.52.71 5.718 4.008 5.758 3.297.04 5.687-2.464 5.966-5.906.284-3.522-2.446-8.866-9.002-8.866-5.966 0-9.407 4.453-10.317 7.56 0 0-.699-.035-1.025.786a4.347 4.347 0 00-.257 1.953c.061.593.509.8.74.992.172.144.218.212-.118.351-.237.096-.64.127-.852.717-.133.366-.197 1.05-.168 1.592.052 1.061.59 1.37.983 1.488.12.035.33.063.098.212-.478.312-.447.615-.461.837-.036.504 0 2.468.908 3.425 0 0-.272.123-.1.706.193.669.467 1.285 1.028 1.369 0 0 .299.041.221.331-.05.197-.05.333-.063.581-.059.839.35 1.68 1.256 2.065.64.273.932.09 1.377-.12.1-.047.214-.012.176.1-.176.503-.293.814-.231 1.107.193.887 1.19 1.865 2.149 1.981.706.087 1.018-.58 1.26-.784.293-.249.418.102.436.251.05.336.117.668.203.995.182.568 1.23.976 2.387.89.711-.055.876-.438 1.103-.862.065-.123.23-.195.409-.2.187-.006.263.537.442.802.384.56 1.857.5 2.998.21.673-.174.673-.54.753-.928.067-.326.378-.422.559-.224.18.198.34.53.579.684.477.311 1.485.044 2.354-.462.593-.342.48-.711.522-1.352.02-.304.337-.15.406-.073.155.161.338.288.538.372.344.132.899-.046 1.372-.372.022.12.068.01.101.133a23.335 23.335 0 00-4.126 6.316c-3.477 7.524-2.144 14.045.48 18.272 2.263 3.644 4.704 5.208 7.67 6.14 10.12 2.801 14.741-4.356 14.45-11.12-.146-3.426-1.635-5.62-3.414-6.939-1.926-1.427-4.637-1.84-6.988-.497-3.543 2.02-3.509 7.437-.533 8.588 2.294.89 3.709-.689 3.398-2.253-.07-.356-.48-.363-.595-.186-.43.67-1.118 1.078-1.783.515-.633-.533-.409-1.467-.318-1.487.091-.021.443-.445.54-.593.099-.148.063-.408.063-.408s.098.167.487.108c.389-.06.88-.398.996-.467.116-.07.091-.65.091-.65s.16.61.486.632c.325.023.961-.03 1.111-.139.144-.1.37-.276.397-.298-.01.038-.113.42-.043.571.137.292.632.886 1.12.974.122.023.33-.093.353-.105-.02.023-.227.324-.22.477.01.166.118.774.216.948.1.173.39.316.39.316a.916.916 0 00-.39.278c-.16.205-.334.995-.349 1.37-.016.361.113.544.113.544s-.252-.039-.503.22c-.366.38-.59.962-.681 1.363-.034.16.038.328.12.457-.152-.122-.482-.123-.896.087-.218.11-.822.607-1.003.845-.18.238-.125.389-.096.448-.146-.188-.506-.348-.755-.316-.259.04-.986.222-1.181.425a.577.577 0 00-.178.389.744.744 0 00-.514-.505c-.193-.068-1.209-.207-1.51.028-.167.13-.214.163-.214.163s.019-.398-.364-.686c-.382-.288-.836-.79-1.526-.746-.222.01-.278.115-.278.115.029-.193.004-.636-.817-1.487-.821-.852-1.204-.74-1.272-.707.112-.058.978-.557.812-1.89-.175-1.384-.88-1.516-.88-1.516.54-.403.613-1.07.532-2.594-.05-.985-.531-1.254-.531-1.254s.723-.316 1.121-1.74c.398-1.425-.432-2.25-.432-2.25 1.63.263 2.27-1.91 2.19-2.637-.08-.727-.368-.972-.368-.972l.912-1.3-.717-1.303c.924 1.184 2.323 1.973 2.323 1.973-.091.156-.965.841-.938 1.234.09 1.224.8 1.811 1.972 2.544 1.869 1.169 3.533 1.263 4.225.759.563-.408.563-1.764.563-1.764.639.14 1.144-.05 1.32-.023.175.028.098.688.087 1.155-.012.467 1.357 1.007 3.196.77 2.522-.328 2.007-2.081 2.007-2.081.188-.033.26.005.427-.06l.318.378c.461.337 1.453.341 2.663-.619.371-.295.484-.766.555-1.047.168-.057.646-.203.83-.285 1.9-.837 2.176-1.686 2.458-2.234.196-.381-.22-1.225-.22-1.225l.785.34c-2.56 5.785-6.712 15.091-4.752 25.264 1.708 8.87 7.677 13.015 13.133 13.015 7.636 0 10.555-4.888 11.935-7.618.914-1.81 1.685-5.032 1.458-7.155-.876-8.173-8.89-11.573-12.84-7.85-3.74 3.53-1.548 8.972 2.08 8.898 3.228-.068 3.21-3.68 1.458-4.213-.857-.26-1.357.154-1.519.644-.084.264.193.487.413.348a.74.74 0 01.444-.128c.533.02.818.873.516 1.282-.302.408-1.437.623-2.272-.154-.834-.776-.766-2.179-.766-2.179s.27.071.409-.815c.024-.164.036-.33.035-.497 0 0 .292.21.577.177.464-.053 1.204-.504 1.282-.613a.859.859 0 00.152-.57c.007.035.038.192.228.442.394.519 1.755.51 1.967.432.403-.144.43-.429.466-.486.036-.057-.063.281.047.832.111.55.997 1.299 1.709 1.345.406.027.666-.11.746-.16-.088.072-.39.355-.455.935-.054.483.44 1.645.708 1.761.154.068.328.034.448 0-.288.144-.363.266-.379.72-.085 1.638.334 1.84.334 1.84a1.805 1.805 0 00-.396.38c-.279.381-.454.867-.542 1.228-.124.483.013.786.013.786-.303.013-.478.034-.664.18-.204.158-.393.427-.66.825-.23.34-.028.746-.01.785a1.027 1.027 0 00-.572-.129c-.253.01-.613.112-1.186.525-.878.637-.752 1.054-.738 1.094-.02-.035-.198-.307-.466-.348-.306-.042-.776-.047-1.48.203-.493.176-.717.264-.898.556-.136.293-.067.474-.1.375-.157-.464-.657-.8-1.623-.978-.58-.104-.948-.116-1.332 0-.157.05-.381.266-.514.349 0 0-.035-.467-.71-1.14-.538-.536-1.206-.435-1.206-.435s-.49-.846-1.108-1.001c-.246-.062-.258-.068-.449.026.103-.081.186-.156.207-.392.035-.374-.207-2.515-1.395-2.515h-.06c.05-.007.377-.033.442-.182.088-.193.267-.73.23-1.278-.035-.547-.23-1.65-.764-1.669a1.283 1.283 0 01-.603-.175c-.163-.1.722.03.933-.483.452-1.108.303-2.544.136-2.751-.18-.212-.923-.566-.87-.574.055-.009.658.022.87-.066.213-.089.3-.382.78-1.315.481-.932.16-1.556.017-1.771-.143-.216-.532-.72-.337-.7.195.02.603.272.906 0 .303-.273 1.066-1.457 1.279-2.117.212-.66-.107-.778-.25-1.108-.143-.33-.16-.408-.09-.564.069-.157.623.099 1.015-.175.391-.275 1.279-2.06 1.279-2.312 0-.252-.303-.78-.34-.915-.037-.135.143-.233.212-.31.07-.076.73.252.867.143.136-.11 1.424-1.717 1.567-2.238.062-.23.016-.462-.059-.657a1.076 1.076 0 01.053-.92c1.657-2.909 3.588-6.49 4.668-9.523.114.219.247.448.385.677-1.067.295-1.513 1.982-.291 3.744 1.29 1.867 4.059 3.254 4.87 1.615-.137.366-.276.803-.007 1.224.466.724 1.043 1.556 2.433 1.885.836.198.85-.005 1.019.05.071.28.186.751.554 1.046 1.209.96 2.203.956 2.663.619 0 0 .318-.374.318-.377.167.064.241.026.425.058 0 0-.512 1.754 2.009 2.081 1.838.238 3.207-.304 3.194-.77-.012-.465-.088-1.128.088-1.154.175-.026.685.163 1.322.023 0 0 0 1.356.562 1.764.692.504 2.356.41 4.225-.759 1.174-.733 1.883-1.32 1.972-2.544.028-.392-.849-1.078-.936-1.234 0 0 1.397-.79 2.32-1.973l-.717 1.304.913 1.299s-.29.243-.368.972c-.078.73.56 2.902 2.19 2.636 0 0-.834.827-.433 2.25.402 1.424 1.123 1.741 1.123 1.741s-.482.269-.533 1.254c-.08 1.524-.006 2.191.533 2.594 0 0-.706.132-.878 1.516-.169 1.33.697 1.829.81 1.89-.068-.033-.452-.149-1.272.707-.82.856-.842 1.293-.817 1.487 0 0-.055-.105-.273-.115-.69-.042-1.145.455-1.528.746-.382.29-.363.686-.363.686s-.046-.033-.213-.163c-.303-.235-1.315-.096-1.508-.028a.745.745 0 00-.516.505.584.584 0 00-.176-.389c-.197-.203-.923-.385-1.181-.425-.258-.04-.626.139-.768.326.026-.042.105-.199-.086-.456-.181-.239-.785-.737-1.002-.846-.416-.21-.746-.208-.898-.086.08-.13.155-.299.12-.457-.09-.401-.312-.983-.681-1.364-.25-.258-.503-.22-.503-.22s.129-.182.113-.543c-.014-.377-.187-1.165-.347-1.37a.912.912 0 00-.392-.278s.296-.14.392-.317c.095-.177.207-.781.215-.948.008-.152-.203-.453-.222-.477.024.012.23.128.354.106.489-.089.987-.683 1.118-.974.072-.15-.031-.533-.041-.572.027.023.252.2.395.299.152.108.787.156 1.112.139.325-.017.487-.632.487-.632s-.025.581.091.65c.116.067.603.407.995.466.392.06.488-.107.488-.107s-.036.263.062.408c.098.144.454.575.541.592.087.017.313.955-.318 1.488-.666.563-1.355.155-1.786-.516-.115-.177-.523-.17-.593.186-.312 1.565 1.102 3.143 3.398 2.254 2.975-1.151 3.01-6.569-.534-8.589-2.352-1.342-5.061-.929-6.987.498-1.777 1.318-3.271 3.513-3.416 6.939-.29 6.763 4.33 13.924 14.452 11.122 2.966-.932 5.406-2.497 7.67-6.14 2.625-4.227 3.957-10.748.48-18.272-1.085-2.457-2.505-4.525-4.123-6.316.029-.123.076-.014.097-.133.475.326 1.03.503 1.372.372.2-.084.384-.21.54-.372.068-.078.385-.231.408.073.043.64-.072 1.01.522 1.352.869.506 1.876.773 2.354.462.238-.154.405-.49.579-.684.175-.193.49-.102.558.224.08.387.08.754.752.927 1.136.29 2.613.352 2.998-.21.18-.264.256-.807.443-.8.179.005.343.076.409.199.227.423.392.807 1.101.861 1.158.087 2.21-.321 2.389-.89.087-.326.155-.658.204-.994.018-.149.142-.5.435-.251.241.205.554.871 1.261.784.958-.116 1.954-1.094 2.148-1.98.064-.294-.055-.605-.23-1.109-.041-.113.075-.149.175-.1.445.211.739.394 1.378.12.903-.385 1.312-1.225 1.255-2.064-.018-.248-.014-.386-.067-.578-.076-.29.223-.332.223-.332.562-.083.835-.7 1.03-1.368.168-.584-.101-.707-.101-.707.909-.957.945-2.92.909-3.424-.015-.223.017-.525-.462-.837-.23-.15-.022-.178.098-.212.392-.119.931-.427.984-1.489.027-.546-.034-1.23-.169-1.597zm-13.67-.708c.958-.532 1.628-1.638 1.054-3.197 1.297.834 1.08 3.865-1.333 4.489-1.413.364-2.594-.579-3.355-1.81 1.042.987 2.569 1.108 3.634.518zM14.123 44.75c-2.411-.624-2.628-3.656-1.334-4.49-.572 1.56.097 2.666 1.058 3.198 1.063.59 2.59.469 3.63-.518-.76 1.23-1.94 2.173-3.354 1.809zm104.919-3.3c-.031-.206-.142-.773-.496-.995l-.114-.484c.43-.003.58 1.173.61 1.478v.001zm-11.266-7.808c-3.737.014-5.963 1.756-6.993 3.975.739-2.278 2.626-3.636 2.742-3.717-1.54.736-2.474 1.984-3.101 3.243-1.177 2.372-.934 4.055-.895 4.295-.065-.24-.506-2.022.682-4.472 1.059-2.184 2.969-4.56 7.563-4.685 6.28-.17 8.839 4.454 9.776 6.896.306.796.4 1.653.409 1.757-.068-.37-.35-1.314-.555-1.766-.658-1.46-1.408-2.598-2.253-3.464-2.166-2.223-4.284-2.67-4.414-2.696 1.548.601 2.544 1.35 3.463 2.308 1.33 1.398 1.838 2.678 1.895 2.829-.904-1.672-2.135-2.785-3.177-3.527-2.143-1.533-4.312-1.442-4.312-1.442 1.742.238 3.279 1.063 4.134 1.85 1.152 1.058 1.755 2.482 1.791 2.567-.597-1.017-2.666-3.967-6.753-3.951h-.002zM95.602 46.265c-.686-.014-.78-.919-.78-.919.467.686 1.325.279 1.425-.086.002 0 .043 1.018-.644 1.005h-.001zm.837 4.234c-.677-.15-1.244.41-1.616 1.299 0 0-.099-.836.272-1.587-.038.02-.639.378-.763 1.038 0 0-.166-.634.042-1.056.148-.305.382-.55.668-.697a1.35 1.35 0 01.916-.124c.64.13 1.363.864 1.136 2.138.002 0 .024-.866-.653-1.011h-.002zm.024 1.823s-.111 1.087-.758 1.204c-.629.114-.35-1.204-.35-1.204.112.863.696.786 1.11 0h-.002zm-1.337 5.702c-.649-.477-1.76.72-2.14 1.517 0 0 .062-1.455 1.431-2.487-.058.014-1 .27-1.53.622 0-.256-.094-.7-.094-.7s1.54-1.181 2.093-.605c.71.74.837.765.797 1.468-.068 1.254-.671 2.365-.708 2.419.197-.544.612-1.895.151-2.234zm-1.217 3.128s-.318.447-.71.547c-.393.1-.406-.547-.406-.547.407.255 1.118 0 1.118 0h-.002zm-1.57-7.907c-.54.003-.427-1.026-.427-1.026.051.352.26.526.436.54a.653.653 0 00.636-.46c.004.002-.038.947-.644.948l-.001-.002zm3.442-10.518c.846.414.909 1.74.909 1.74s-.268-1.094-.993-1.158c-.725-.064-1.454.764-1.491 1.655 0 0-.12-1.293.171-1.776-.035.019-.598.352-.823.72.03-.22.096-.431.192-.627.31-.606 1.193-.967 2.037-.552l-.002-.002zm-2.82-2.934c.712.678 1.454.248 1.447-.275 0 0 .279.981-.464 1.156-.635.155-.964-.822-.982-.88l-.001-.002zm.263-2.646c1.006.074 1.298 1.156 1.314 1.223-.738-1.078-1.81-.61-2.155.47-.245-.824.126-1.182.16-1.215-.64.136-.872.582-.872.582.013-.27.32-1.146 1.555-1.058l-.002-.002zm-2.298-2.752c.681.507 1.245.42 1.396-.368 0 0 .14 1.094-.533 1.216-.69.127-.862-.846-.862-.846l-.001-.002zm.49-2.368a1.379 1.379 0 011.132 1.007c-.666-.865-2.011-.307-2.303.858-.116-.613.17-1.273.17-1.273-.303.157-.65.525-.65.525.05-.542.508-1.312 1.65-1.117zm-2.962-1.27s.57.64 1.074.75l-.489.807c-.333-.404-1.053-.428-1.053-.428.42-.224.468-1.127.468-1.127v-.002zm-.601-4.356c-.578.163-.554-.55-.554-.55.363.297.703.232.85-.183 0 .002.281.571-.296.734v-.001zm1.467 3.535a.5.5 0 00.64.038.575.575 0 00.161-.175s.046.57-.295.606c-.427.049-.506-.467-.506-.467v-.002zm.465-1.933c.727.167.844 1.098.844 1.098-.508-.972-1.756-.77-1.956.808-.106-.43.045-1.239.045-1.239-.249.136-.531.448-.531.448.138-.957.876-1.282 1.598-1.113v-.002zm-1.382-2.983a1.02 1.02 0 00-1.034-.299c-.654.167-.745 1.482-.745 1.482-.245-.74-.091-1.256-.079-1.293a5.676 5.676 0 00-.42.404c.015-.342.238-1.038.86-1.075.622-.036 1.128.234 1.418.783v-.002zm-2.246-2.47c.385.365.676-.038.795-.344 0 0 .025.836-.398.855-.424.019-.397-.509-.397-.509v-.002zm.835-.983c-.034-.028-.377-.305-.81-.165-.458.15-.472 1.415-.472 1.415-.273-.497-.223-1.109-.223-1.109-.142.22-.269.582-.269.582-.075-.573.187-1.221.484-1.313.297-.092.934-.184 1.29.592v-.002zm-1.655-2.441c.076.21.493.488.681.062-.015.066-.145.592-.454.585-.37-.006-.227-.645-.227-.645v-.002zm.442-1.562c.514.168.497.867.497.867-.09-.35-.332-.507-.536-.505-.48.007-.74.597-.84.913-.095-.796.081-1.012.081-1.012a.967.967 0 00-.433.144c.124-.512.716-.57 1.231-.405v-.002zm-1.933-5.141c.014-.493.304-1.141.877-1.468.447-.257.703-.086.918.05.168.108.387.398.22.895.025-.283-.077-.44-.215-.493-.181-.071-.42-.113-.791.366-.246.32-.373.658-.394.81-.038-.544.154-1.042.394-1.29-.568.227-.859.672-1.01 1.132v-.002zm1.608.053c-.012.037-.136.355-.37.273-.249-.087-.04-.516-.04-.516-.016.242.088.405.41.245v-.002zm-.45 3.373c.128.238.5.238.593.153 0 0-.071.346-.352.346-.28 0-.241-.497-.241-.497v-.002zm1.236-.21c-.021-.292-.13-.796-.55-.829-.36-.029-.748.276-.953.584.05-.298.182-.572.378-.787-.14-.03-.469.039-.469.039.379-.421 1.181-.391 1.478.11.21.357.116.885.116.885v-.002zm-.072-2.204c-.159-.201.097-.453.097-.453.011.252.257.375.55.127-.063.186-.49.528-.647.328v-.002zm1.031-.672c-.004-.309-.152-.606-.465-.576-.312.029-.813.435-.813.435.187-.519.585-.635.585-.635-.137 0-.274.013-.409.038l.298-.266c.273-.107.39-.04.522.035a.756.756 0 01.267.298.84.84 0 01.088.405c-.01.247-.073.268-.073.268v-.002zm1.515-2.468c-.266.526-1.031.85-1.444.856-.355.004-.804-.22-1.075-.557.056.045.28.187.74.123.142-.02.185-.405.973-.85.364-.206.601-.131.659-.232.112-.199.15-.629.15-.629.073.45.264.764-.003 1.289zm2.802-.538c-.373.168-1.147.27-1.458.219-.299-.05-.646-1.084-.665-1.15.045.066.503.639.825.653.331.014 1.293-.089 1.478-.285.186-.197.2-.582.2-.582.032.465-.008.975-.38 1.144zm2.904.783c-.36-.07-1.247-.43-1.426-.643-.18-.213-.2-.955-.2-1.174 0 0 .127.61.4.915.168.188.95.462 1.247.508.296.045.822-.194.822-.194s-.486.655-.843.587v.001zm2.465 2.032c-.454-.179-.795-.56-1.067-.924-.162-.214-.202-.49.022-1.315 0 0-.022.696.231.995.153.177.814.865.98.957.164.091.953.076.953.076s-.863.312-1.119.21zm1.463 2.629c-.127-.197-.52-1.355-.52-1.5 0-.146.107-.349.418-.718-.019.06-.19.587-.152.754.037.166.368 1.203.493 1.37.125.166.519.31.519.31s-.631-.02-.758-.217zm.587 3.087c-.053-.05-.455-.425-.466-.536-.012-.111.074-1.226.142-1.336.068-.11.489-.286.58-.332-.039.034-.363.287-.412.49-.054.218-.116.968-.116 1.162 0 .176.234.503.272.552zm-3.791 3.134c.136-.044 1.008-.28 1.105-.273.097.007.189.05.438.255-.027-.007-.273-.078-.401-.064-.137.017-.906.23-1.068.269-.218.05-.33.275-.347.31.006-.05.068-.43.273-.499v.002zm-5.472-4.717c-.522.936-.639 1.84-.62 2.257-.227-2.188 1.34-4.718 3.415-4.605 2.402.13 2.558 2.265 2.402 2.829 0 0 .09-2.437-2.559-2.304-1.338.064-2.038.752-2.638 1.822v.001zm3.953 6.481c-2.957-.547-2.957-3.233-2.957-3.233.973 2.684 4.633 3.427 6.616 2.16-.066.08-1.324 1.504-3.657 1.072l-.002.001zm4.655-3.899c-.106.05-.6.726-.8.945-.198.219-.135.825-.135.825s-.276-.69-.13-.925c.145-.237.739-.95.869-1.027.13-.076.198-.042.633 0 0-.003-.328.132-.434.18l-.003.002zM70.232 37.143c-.876.017-.984-.79-.984-.79.273.472 1.923.38 3.095-.813-.14.175-1.289 1.589-2.111 1.603zm-.22-1.73c.224.02.448.005.667-.045.294-.08 1.016-.32 1.061-.334-.91.775-1.541.844-1.729.38h.002zm3.209-2.1c.163-.849.073-1.189-.075-1.068-.148.122-.352.175-.59-.078-.475-.503-.617-.519-1.154-.225-.536.293-.553 0-.842.416.394-1.281 1.207-2.196 2.013-2.327.806-.13 1.693 1.27.646 3.283h.002zm1.162-2.132s.21-1.436-1.351-1.808c-1.561-.371-3.453 1.864-4.172 6.151 0 0-.59-3.344 1.526-6.109-.077.059-2.529 1.982-3.017 5.752 0 0-.356-3.322 1.597-5.735 0 0-1.845 1.159-2.628 4.884-.162-4.387 2.65-6.603 3.49-7.112.217-.123.434-.238.65-.345.59-.274 1.207-.441 1.795-.398 1.81.143 2.977 2.468 2.109 4.72h.001zm-27.529 1.064c-.146-.12-.236.22-.075 1.069-1.044-2.013-.156-3.413.651-3.283.807.13 1.62 1.045 2.013 2.327-.288-.418-.31-.12-.844-.416-.535-.297-.677-.278-1.152.225-.24.252-.446.197-.594.078h.001zm3.135 3.168c-.188.465-.818.398-1.73-.379.046.014.77.254 1.064.334.218.05.442.065.665.045zm-2.33.127c1.17 1.193 2.82 1.285 3.094.813 0 0-.108.807-.983.79-.825-.014-1.974-1.428-2.112-1.603zM27.69 14.88c-2.648-.13-2.56 2.304-2.56 2.304-.156-.564 0-2.698 2.4-2.828 2.09-.115 3.662 2.45 3.413 4.649.03-.395-.074-1.333-.617-2.301-.6-1.07-1.299-1.758-2.636-1.824zm-3.942 6.266c.098-.007.972.23 1.107.273.205.07.267.447.272.497-.017-.035-.13-.26-.347-.31-.163-.04-.931-.251-1.068-.269-.128-.013-.375.058-.403.065.252-.206.339-.246.439-.255v-.001zm5.58-1.194s0 2.683-2.956 3.233c-2.334.432-3.594-.992-3.662-1.072 1.985 1.266 5.644.523 6.618-2.16zm-7.414-.85c.13.076.727.795.87 1.026.142.23-.13.925-.13.925s.06-.607-.137-.825c-.196-.217-.693-.89-.8-.944a7.712 7.712 0 00-.434-.184c.433-.04.501-.073.63.002zm-.695-2.529c-.049-.203-.373-.456-.412-.49.09.046.512.226.58.332.068.106.156 1.22.143 1.336-.013.116-.416.49-.466.537.036-.05.272-.376.272-.553 0-.194-.063-.944-.117-1.162zm.43-1.373c-.125.199-.758.219-.758.219s.392-.146.52-.313.454-1.197.492-1.37c.038-.174-.132-.693-.15-.754.31.37.417.572.417.717 0 .146-.392 1.304-.521 1.5zm2.532-3.553c-.273.364-.614.746-1.068.923-.255.103-1.12-.211-1.12-.211s.79.012.954-.076c.164-.089.828-.78.98-.957.254-.299.23-.995.23-.995.224.826.185 1.102.024 1.316zm2.824-1.75c-.182.213-1.067.573-1.426.643-.36.07-.845-.588-.845-.588s.529.24.824.193c.294-.047 1.077-.32 1.245-.508.272-.305.401-.915.401-.915 0 .22-.02.96-.2 1.175zm2.936.078c-.313.052-1.085-.05-1.458-.219-.373-.169-.414-.679-.382-1.144 0 0 .014.384.201.582.187.198 1.145.298 1.479.285.321-.014.778-.587.824-.653-.018.065-.366 1.1-.664 1.149zm1.343.32c-.266-.524-.076-.837-.005-1.289 0 0 .04.43.153.629.057.1.295.026.658.231.788.448.832.83.974.851.46.064.682-.078.74-.123-.273.336-.72.56-1.078.557-.41-.008-1.175-.331-1.442-.856zm1.514 2.47s-.064-.02-.073-.266a.84.84 0 01.09-.405.752.752 0 01.267-.298c.132-.074.25-.142.522-.035l.298.266a2.292 2.292 0 00-.409-.038s.398.116.585.635c0 0-.5-.408-.813-.435-.314-.028-.461.267-.467.576zm2.74-.183c-.022-.149-.148-.49-.396-.809-.37-.48-.61-.437-.79-.366-.136.053-.241.21-.214.493-.17-.497.051-.788.22-.895.215-.135.47-.306.918-.05.572.327.863.975.877 1.468-.15-.46-.441-.905-1.01-1.13.24.25.433.748.394 1.29zm-.583-.348s.208.43-.043.516c-.233.082-.355-.236-.368-.273.32.161.427-.002.41-.243zm-1.772.876c.294.248.54.125.549-.127 0 0 .257.252.098.453-.159.202-.584-.141-.647-.325v-.001zm.574 2.53s-.093-.528.116-.882c.298-.502 1.1-.532 1.478-.111 0 0-.33-.068-.47-.039.196.214.329.489.379.787-.205-.308-.59-.613-.954-.584-.418.036-.526.538-.549.83v-.001zm.997.709c-.283 0-.353-.346-.353-.346.091.085.465.085.59-.153.002 0 .043.5-.237.5v-.002zm-1.032 2.083s-.017-.7.497-.867c.514-.167 1.107-.107 1.231.407a.968.968 0 00-.433-.144s.174.219.08 1.012c-.1-.318-.36-.906-.838-.913-.205-.001-.447.155-.536.506zm.711 1.343c-.31.007-.438-.52-.454-.585.187.425.606.149.681-.063 0 .001.144.64-.227.649v-.001zm-.136 1.204c.296.091.558.74.483 1.312 0 0-.126-.36-.27-.582 0 0 .046.612-.221 1.11 0 0-.015-1.266-.473-1.415-.433-.14-.776.137-.81.165.356-.776.996-.682 1.291-.59zm-.852 2.083c-.423-.019-.398-.854-.398-.854.118.306.408.709.794.344.002 0 .026.528-.396.51zm-.433 1.178c.623.036.847.732.863 1.075a5.624 5.624 0 00-.42-.405c.01.037.166.552-.078 1.293 0 0-.091-1.315-.746-1.481-.62-.162-1 .255-1.034.298.288-.547.796-.814 1.415-.78zm-1.467 6.519s.045.903.468 1.127c0 0-.72.024-1.052.428l-.49-.805c.503-.111 1.074-.75 1.074-.75zm-1.373-.353c-.34-.036-.296-.605-.296-.605.042.07.096.13.16.175a.52.52 0 00.439.075.532.532 0 00.202-.113s-.078.516-.505.468zm1.677-4.736c.148.414.486.48.85.182 0 0 .024.713-.553.55-.578-.163-.297-.733-.297-.733zm-1.635 2.337c.723-.169 1.46.156 1.6 1.116 0 0-.282-.314-.533-.447 0 0 .153.809.046 1.238-.202-1.577-1.45-1.78-1.956-.808-.002-.004.116-.934.84-1.101l.003.002zm-1.631 4.02c1.142-.196 1.6.573 1.651 1.117 0 0-.347-.368-.65-.525 0 0 .285.66.168 1.273-.292-1.165-1.635-1.723-2.303-.858 0 .002.182-.842 1.134-1.007zm.49 2.37s-.171.973-.863.846c-.674-.124-.533-1.216-.533-1.216.15.79.709.877 1.396.37zm-2.302 2.752c1.234-.088 1.545.787 1.553 1.06 0 0-.231-.448-.872-.582.036.033.406.39.162 1.214-.346-1.08-1.417-1.547-2.154-.469.014-.067.306-1.15 1.312-1.223zm.265 2.645c-.017.058-.347 1.033-.985.882-.74-.175-.462-1.156-.462-1.156-.007.524.735.953 1.447.274zm-2.82 2.935c.842-.416 1.726-.054 2.037.555.096.196.16.409.191.629-.227-.368-.788-.702-.823-.72.29.483.172 1.776.172 1.776-.035-.891-.767-1.721-1.493-1.656-.727.066-.993 1.159-.993 1.159s.061-1.328.909-1.743zm-.468 2.53c.101.364.96.772 1.426.087 0 0-.094.904-.78.918-.688.014-.646-1.005-.646-1.005zm3.456 11.716s-.093.445-.093.7c-.53-.35-1.472-.608-1.531-.621 1.37 1.031 1.43 2.486 1.43 2.486-.378-.796-1.49-1.994-2.14-1.516-.453.338-.045 1.69.15 2.233-.037-.053-.64-1.165-.707-2.419-.035-.703.087-.727.797-1.467.556-.576 2.094.604 2.094.604zm-.193-4.675a.654.654 0 00.636.46c.178-.013.386-.187.438-.54 0 0 .114 1.03-.427 1.027-.604-.001-.647-.946-.647-.946zm.193 8.852s-.017.643-.408.547c-.392-.095-.71-.547-.71-.547s.71.255 1.118 0zm-1.541-9.903c-.124-.66-.727-1.018-.765-1.038.374.752.276 1.587.276 1.587-.373-.89-.94-1.449-1.617-1.299-.677.15-.655 1.012-.655 1.012-.23-1.275.495-2.009 1.136-2.138.31-.067.63-.023.915.124.284.148.518.392.667.696.207.422.043 1.056.043 1.056zm-1.37 2.277c-.648-.117-.76-1.204-.76-1.204.413.787.997.863 1.108 0 0 0 .279 1.317-.349 1.203zM2.445 39.176c.938-2.441 3.498-7.066 9.777-6.896 4.594.126 6.505 2.501 7.563 4.685 1.19 2.454.746 4.236.682 4.472.04-.24.282-1.922-.892-4.294-.627-1.26-1.564-2.508-3.104-3.244.117.081 2.005 1.44 2.747 3.718-1.031-2.22-3.26-3.961-6.996-3.975-4.088-.016-6.158 2.934-6.756 3.95.037-.085.641-1.509 1.79-2.566.855-.788 2.393-1.613 4.134-1.851 0 0-2.17-.09-4.312 1.442-1.042.744-2.275 1.855-3.18 3.527.057-.15.565-1.43 1.899-2.829.915-.958 1.908-1.706 3.462-2.308-.13.027-2.248.473-4.415 2.696-.844.866-1.596 2.003-2.254 3.464-.203.451-.486 1.396-.557 1.766.01-.104.106-.961.412-1.757zM.956 41.45c.031-.305.182-1.48.612-1.48l-.114.483c-.354.224-.466.79-.497.997zm.206 3.156C.885 45.17.636 46.15.636 46.15s-.113-.819.063-1.57c.071-.295.171-.394.322-.431.62-.15.665-.44.667-.476l-.134 2.223s-.378-.7-.392-1.292zm.764 7.538s.471.16.54.33c.067.17.14.781.14.781-.48-.343-.789-1.036-.68-1.111zm.657-.259c-.48-.32-1.098-1.406-1.245-2.412-.102-.696-.157-1.087.209-1.323.162-.103.41-.038.776-.231.19.873.485 1.713.878 2.5-.379-.357-.885-1.349-.916-1.41l.379 1.551c-.192-.163-.818-1.345-.857-1.419.19 1.027.571 1.928 1.022 2.261.285.207.514.05.839 0-.4.214-.606.804-1.085.483zm1.845 4.468c-.96-.203-1.304-1.347-1.333-1.429.36.651 1.038 1.118 1.385 1.194.255.046.514.067.772.06 0 0-.505.207-.824.175zm.291-1.009c-.767.037-1.625-1.531-1.624-2.27.004-.82.706-.546 1.136-.991-.045.292-.441.539-.58.587a.4.4 0 00-.194.14c.27.23.525.483.761.755.094.123.188.255.273.397.164.296.303.608.416.931 0 .005.005.009.005.012.07.122.264-.564.888-.738-.695.478-.543 1.148-1.08 1.177zm3.428 3.468c-.187.242-.382.469-.55.457-.415-.03-.937-.403-1.239-.662-.302-.259-.645-.614-.644-.877 0-.088.25-.621.25-.868.04.256.042.518.007.774.182.289.408.541.668.746.435.349.753.565.949.544.195-.021.318-.245.521-.373.302-.19.545-.143.545-.143-.178.062-.32.159-.507.402zm.115-1.339c-.08.367-.559.367-1.34-.187-.782-.554-1.238-1.343-1.27-1.73-.032-.387.61-.503 1.005-1.05-.015.047-.27.78-.632.912.447.15.869.376 1.25.67.64.636.828.945.828.945a3.12 3.12 0 01.159-.408c.133-.303.64-.604.64-.604s-.623 1.374-.64 1.452zm.558.075c.056-.249.601-.657.852-1.459.08.712-.344 1.384-.344 1.384s.603-.16 1.491.071c.889.231 1.278.603 1.278.603-.025-.543.2-1.087.397-1.419-.136.806-.09 1.52-.078 1.798.013.29-1.039.479-2.195.173-1.157-.306-1.453-.906-1.4-1.151zm3.507 2.313a4.563 4.563 0 01-.345.613c-.094.12-.824.16-1.318.045-.417-.095-.856-.331-.936-.483-.026-.053-.158-1.033-.158-1.033s.291.683.398.8c.106.118.876.522 1.862.341 0 0 .197-.36.329-.497.131-.138.577-.128.577-.128-.204.033-.345.21-.409.342zm.741-1.743c.173-.78.12-1.066.156-1.454.085.26.127.534.124.81a7.32 7.32 0 01-.063.745s.182-.292.73-.514c.251-.084.507-.152.765-.203.383-.064.77-.091 1.156-.082.127.01.253.027.378.052 0 0-.132-.517.204-1.384-.061.816.148 1.528.303 1.936.189.5-.795.924-1.865.971-1.058.05-2.039-.195-1.888-.877zm3.717 1.647c-.01.244-.01.563-.116.62-.106.058-.666.244-1.375.283-.71.04-1.165-.107-1.235-.202-.07-.096-.168-.624-.31-.79a.579.579 0 00-.346-.183s.46-.089.64.125c.179.214.23.597.309.64.08.044 1.377.105 2.076-.142 0 0 .065-.245.117-.497.052-.252.522-.31.522-.31-.22.144-.274.212-.282.456zm-12.411-8.55c-.763-1.101-1.223-2.311-1.472-3.522-.454-2.184-.437-4.518.584-7.648-.41 2.342-.369 4.234-.137 5.72.473 2.983 1.734 4.31 1.734 4.31-.713-1.441-1.1-2.916-1.115-4.419-.022-2.346.14-3.372 1.312-6.677-1.048 4.1-.831 7.348.435 9.927 1.026 2.092 3.066 3.127 4.36 3.44 3.38.821 5.907.092 13.775-4.151l.022.554s-1.166.376-1.472 1.726c-4.781 2.48-8.612 4.112-11.648 3.859 3.26.71 7.776-1.162 11.577-3.062.003.092.01.186.017.282l-.486.267c-1.952 1.061-3.71 1.97-6.38 2.739-4.07 1.177-7.14-.212-7.275-.276 1.37 1.052 4.951 1.363 7.25.784 2.604-.656 4.702-1.492 7.045-2.712.046.162.1.322.16.477-7.136 3.546-13.703 5.01-18.286-1.618zm16.466 7.36c-.004.314-.02.741-.051.82-.054.125-.31.233-.795.456-.38.176-1.012.273-1.247.146-.254-.137-.44-.463-.557-.727-.088-.205-.36-.157-.36-.157s.286-.163.453 0c.193.195.507.504.66.515.345.02 1.223-.23 1.499-.448.101-.082.136-.368.157-.606.038-.392.465-.401.465-.401s-.223.071-.224.403v-.001zm-1.564-.401c-1.625.413-1.796.123-1.812-.413-.02-.82-.217-1.063-.075-1.37.197.461.335 1.094.314 1.213 0 0 .187-.611 1.227-.901 1.04-.29 1.594-.15 1.594-.15s-.227-.637-.15-1.166a1.677 1.677 0 01.06-.231c-.013.613.349 1.347.574 1.663.317.451-.068.934-1.732 1.356v-.001zm3.49.38c-.42.08-.595-.05-.906-.696 0 0 .528.37.817.42.256.042.828-.04.961-.059v.01c-.102.057-.511.26-.873.326zm-.933-1.59c-.468-.263-.373-1.355-.825-1.895.036.02.626.385.703 1.283a2.42 2.42 0 01.58-.808 2.17 2.17 0 01.832-.474c.742-.23 1.298-.136 1.56-.06l.267.437-.681.7a2.25 2.25 0 00-.297.376c-.643.34-1.75.66-2.14.443v-.003zm10.948 21.64c.363.05.94-.05 1.453-.774.061-.084.173-.1.1.243-.145.68-1.056 1.6-2.436 1.02-1.604-.694-1.36-2.729-1.36-2.729.13 1.669 1.136 2.11 1.198 2.134-.565-.587-.532-1.492-.532-1.492.194.951.833 1.498 1.579 1.6l-.002-.002zm.241-3.67c-.263.027-.255-.041-.487-.39.141.075.287.14.436.194.132.04.636-.085.705-.102-.056.038-.4.272-.65.3l-.004-.003zm1.694-.548c-.219-.095-.212-.422-.298-.7.03.075.14.358.341.51.23.175.782.203.782.203s-.601.087-.823-.012h-.002zm1.812.5c-.054-.067-.091-.467.095-.839 0 .206.009.41.027.615.027.188.357.696.427.776a10.48 10.48 0 01-.547-.55l-.002-.002zm-1.675 8.141c.1-.13.51-.528.709-.639.199-.11.328-.144.414-.142a.79.79 0 01.515.248.842.842 0 00-.73.026c-.152.082-.674.5-.781.647-.108.146-.182.435-.182.435-.017-.258-.043-.44.057-.574h-.002zm-2.197.775c.123-.111.826-.348.994-.361.159-.014.649.36.708.406-.053-.028-.424-.226-.682-.24-.28-.015-.823.249-.939.348-.227.192-.256.612-.256.612-.04-.186.053-.651.176-.764l-.001-.001zm-2.251-.104c.154-.075.85-.028 1.294.1.186.05.311.61.341.669-.045-.05-.198-.37-.4-.369-.612.007-.672-.012-.85-.031-.15-.016-.391-.132-.454-.117-.182.05-.449.317-.482.349.152-.262.401-.528.55-.6zm.31.889c.551-.01 1.357.172 1.389.702.033.573-.665.795-1.177.83-.454.033-.915-.03-1.133-.124.5.563 1.058.76 1.179.76-.636.13-1.358.029-1.358.029.985.7 2.876.415 2.949-.045.033-.202-.154-1.355.254-1.864.185-.251.709-.61 1.385-.668.676-.057.797.32.797.32s-.012-.44.173-.768c.278-.488.773-.802 1.179-.926.223-.068.85.09.85.09s-.447-.765-.434-1.07c.026-.647.494-1.385.666-1.477.401-.215.849-.068.917-.043-.076-.05-.636-.428-.625-1.153.003-.119.145-.697.27-.898.123-.202.148-.403.59-.414.442-.01.614.06.57-.124-.044-.184-.808-.349-1.005-.547-.196-.2-.272-.746-.284-.855-.01-.108.659-.52.7-.543-.035.04-.488.563-.397.552.142-.015.342.589.292.651-.09.12.914.184 1.163.535.249.35.292.554.292.554-.106-3.273-2.822-4.78-4.58-4.86-1.757-.08-3.524 1.08-3.967 2.323a3.39 3.39 0 00-.186.95c-.177-1.903 1.503-3.793 3.696-3.819 2.63-.028 4.005 1.53 4.077 1.622-.072-.115-1.426-2.125-4.134-2.096-2.919.031-4.136 2.692-4.136 2.692s.055-.832.913-1.797c.692-.777 1.658-1.194 2.771-1.4 0 0-2.352-.184-3.943 1.882.806-1.712 2.725-3.16 5.678-2.556 3.622.74 5.41 5.044 5.516 7.52.119 4.507-2.143 9-6.793 10.32 3.044-1.13 4.245-4.048 4.286-4.161-2.839 3.77-6.92 3.497-6.92 3.497 6.611-.497 7.725-6.984 7.757-7.186-1.206 4.347-4.434 6.67-8.828 6.67-1.33 0-3.368-.378-5.394-1.835-1.673-1.203-2.965-2.76-4.189-4.783.266 1.011 1.045 2.407 1.696 3.217 1.523 1.885 2.054 2.146 3.507 3.227-2.118-.685-4.009-3.227-4.854-4.537-2.603-4.041-2.515-8.476-2.515-8.495-.177 2.869.459 6.976 2.4 9.789-1.573-1.997-2.656-4.502-3.058-7.34-.531-3.79-.058-6.466 1.422-10.437.932-2.506 2.319-4.675 3.962-6.577.137.327.286.64.431.918-1.49 1.774-2.21 3.14-2.252 3.223a22.921 22.921 0 012.416-2.92c.111.2.21.361.29.492A19.293 19.293 0 0023.33 63.6c.465-.398 1.217-.43 1.656-.238.545.24.74.79.825 1.018.198.533-.32 1.153-.32 1.153.253-.597-.33-1.075-.603-1.094-.714-.058-1.315.377-1.688 1.094 0 0 .041-.796.876-1.483-.071.028-1.008.503-1.34 1.129.101-.597.09-.8.386-1.249-.01 0-.748.524-.85 1.527-.482.878-1.04 2-1.277 2.816.254-.321.541-.682 1.168-.741 1.32-.123 1.863 1.273 1.504 2.332.074-.293-.12-1.224-.905-1.306-.63-.062-1.104.374-1.332 1.502 0 0-.132-.633.119-1.462-.545.64-.598 1.293-.598 1.293l-.145-.93c-.122.39-.308 1.327.292 2.054-.468-.187-.662-.492-.662-.492s-.262 2.349-.263 3.255c0 0 .032-.331.347-.798.48-.709 1.195-.806 1.963-.574 1.034.315.866 1.84.839 2.242 0 0-.136-1.255-.94-1.283-1.08-.04-1.297 1.56-1.313 2.143 0 0-.464-.96-.093-1.952-.046.045-.917 1.108-.25 2.55-.082.144-.478-.2-.464-.026.086 1.059.28 2.104.579 3.117-.003-.554.195-1.678.99-1.949A1.72 1.72 0 0123 77.14c.802.225.767 1.312.767 1.312-.107-.349-.506-.954-1.044-.881-.54.073-.903 1.017-.597 2.054-.441-.442-.502-1.398-.502-1.398-.22.497-.206 1.4-.206 1.4-.099-.3-.228-1.013-.25-1.27-.203.651-.185.991-.085 1.5.44 1.054 1.063.896 1.942.896.223 0 .212.283.347.497.152.249-.376.658-.19.892.096-.022.255-.302.34-.387.262-.273.212-.234.596-.447s1.392.581 1.801 1.252c.41.67.427 1.361-.249 1.243-.655-.113-1.299-.856-1.338-.903.23.719 1.01 1.222 1.01 1.222a2.816 2.816 0 01-1.317-.986c.64 1.306 1.732 1.74 1.96 1.522.229-.22.61-1.107.73-1.24.119-.135.59-.448 1.52.234s1.097 1.83.04 1.822c-1.056-.009-1.573-.597-1.573-.597.228.51.602.925 1.066 1.179-.722-.05-1.296-.597-1.366-.662.797 1.197 2.135 1.442 2.57 1.12.095-.071.332-.882.354-1.01a1.07 1.07 0 01.094-.308c.214-.458.598-.6 1.294-.61zM25.08 73.875c-.528-.156-1.061.455-1.16 1.243 0 0-.142-1.117.285-1.537 0 0-.32-.068-.541.146a.622.622 0 01.112-.408c.235-.298.78-.443 1.247-.18.343.192.735.823.577 1.762 0-.039-.005-.876-.52-1.026zm.107 1.584s-.054.474-.375.46c-.32-.014-.406-.46-.406-.46.67.3.78 0 .78 0zm-1.257-9.64c.176.688.462.563.773.33-.037.049-.198.723-.71.543-.391-.136-.063-.874-.063-.874zm-.905 4.547c-.046.438-.31.839-.65.746-.58-.16-.38-.816-.38-.816.122.277.731.45 1.03.07zm-.727 5.74c-.655-.044-.614-1.008-.614-1.008.033.182.286.593.595.593.398 0 .466-.343.593-.723 0 0 .078 1.18-.574 1.137zm.944 3.964c-.441 0-.506-.531-.506-.531.292.239.687.144.844-.356 0 0 .228.89-.338.887zm5.006 2.56c.414.034 1.087.522 1.19.74.177.371-.043.805-.062.823.008-.046.211-.536-.05-.647a6.668 6.668 0 01-.73-.365c-.173-.103-.375-.34-.43-.355-.194-.063-.55.116-.583.128.305-.24.59-.331.665-.325zm-1.272-1.155c.416.535.328.925.15 1.031-.284.16-.745-.031-1.17-.604-.285-.386-.545-.81-.576-1.098a.708.708 0 00-.162-.055c-.242-.05-.556.234-.59.266.045-.058.443-.62.906-.58.462.04.945.406 1.44 1.04h.002zm-2.044-2.75c.454.42.625.105.658-.107 0 0 .227.597-.15.597-.496-.001-.51-.49-.51-.49h.002zm1.024-.369s-.239-.885-.824-.964c-.765-.102-.655.907-.655.907s-.211-.428-.162-.796l-.232.559c-.048-.88.367-1.266.958-1.136.622.14.953.64.913 1.43h.003zm-.95-6.6c-.593-.126-.301-.952-.301-.952.01.712.78.708.968.397-.003.002-.066.685-.669.554h.003zm1.215-1.109s.046-.825-.642-.934c-.471-.075-1.045.328-1.204.634 0 0 .056-.583.4-1.01 0 0-.541.237-.692.616 0 0-.013-.393.348-.84.318-.399.894-.374 1.188-.273.629.215.859 1.201.6 1.807h.002zm.303-2.896c-.38-.184-.007-.863-.007-.863.006.655.272.64.753.36-.002 0-.297.722-.748.503h.002zm1.057-.547c.016-.06.265-.953-.224-1.21-.444-.235-1.073.303-1.258.69 0 0 .088-.772.78-1.086a.939.939 0 00-.527-.084c-.18.024-.35.1-.494.22.167-.285.188-.327.392-.476.863-.632 1.448-.138 1.73.503.15.347-.043 1.127-.401 1.441l.002.002zm2.911-6.262c-.39.155-1.045-.488-1.045-.547 0-.06.567.254 1.045-.368-.002-.002.39.757-.002.913l.002.002zm5.158 6.639c-.017.436-.515.634-.718.629-1.856-.037-3.374-.733-4.265-2.157-.338-.538.527-.863.874-1.466 0 0 1.056.214 1.438.697-.245-.039-.842-.225-1.544.018.954.13 1.402.34 1.732.7-1.01-.249-1.566-.213-1.651.03-.172.497.839 1.089 1.188 1.243 1.226.55 2.338.577 2.157.06-.182-.527-.798-.925-.872-.971.715.288 1.317.777 1.259 1.274.198-.16.44-1.179.44-1.179l-.038 1.122zm-1.3-2.669c-.636-.353-.847-1.021-.895-1.215.197.628 1.34 1.298 2.47 1.21-.003-.002-.699.493-1.577.003l.002.002zm4.7 3.265c-.613-.308-.171-.933-.425-1.384l.11.194c.214.377.61.22 1.04.182-.727.308-.417.509-.417.509.733.243 1.378.08 2.094-.14.545-.165.353-.582.272-.803a1.139 1.139 0 00-.05-.116l.584.684c-.536 1.121-2.596 1.177-3.21.872l.002.002zm2.512-2.357c-.523.056-.817-.555-.851-.63.425.51 1.66.298 1.66.298s-.252.27-.81.33l.001.002zm1.086.372s.863-.028 1.009-.683c.145-.654-1.09-1.591-2.18-1.575-1.137.014-1.733.249-1.874.964-.137.693.517 1.264.553 1.293-1.744-.684-.904-1.909-.89-3.075l.305.746s.519-.712 1.772-.687c1.272.027 1.875.756 2.005.933-.431-.68-.194-1.193-.194-1.193.12.962.84 1.193.919 2.268.08 1.075-1.427 1.01-1.427 1.01l.002-.001zm4.064-1.636s1.158-.075 1.875-1.002c-.188.509-.775 1.186-1.878 1l.003.002zm2.601-1.205c.178-.436-.336-1.37-2.256-.31-1.562.864-1.49 1.828-1.135 1.871-.422-.014-.706-.136-.759-.278-.117-.305-.218-1.382-.47-1.85.106.174.415.694.59 1.11.249-.816 1.881-2.098 3.622-1.96.331-.226-.03-1.05-.051-1.115.049.064.837 1.103.81 1.528-.017.203.107.637-.353 1.002l.002.002zm12.971 22.13c1.141-.02 1.352-.755 1.352-.755s.241 1.02-1.512 1.076c-1.84-.04-2.22-2.007-2.22-2.459.384 1.38 1.162 2.156 2.377 2.135l.004.003zm-.076-5.16c-.066.103-.852.48-.987.511-.121.026-.604-.248-.639-.278.042.014.48.144.72.06.242-.086.613-.29.694-.379.08-.088.304-.597.304-.597-.015.227-.027.578-.094.68l.002.004zm2.504.16c-.148.045-1.106-.102-1.347-.16-.242-.057-.438-.439-.478-.685 0 0 .28.335.584.437.305.103.987.146 1.172.119.185-.028.614-.41.614-.41-.162.302-.404.652-.548.696l.003.004zm2.21 1.617c-.255-.13-1.091-.845-1.132-.945-.04-.099-.08-.497 0-1.078 0 0 .187.832.294.948.106.117.812.743 1.037.846.225.102 1 .06 1 .06-.298.124-.948.3-1.202.166l.002.003zm1.408 2.626c-.026-.047-.427-.796-.505-1.094-.08-.306.013-.483.347-.907l.266-.275c-.021.046-.36.75-.373 1.048-.014.297.248 1.17.264 1.224v.004zm-4.278-6.757c-3.707-.257-5.204 3.08-5.266 4.737-.014-.816.041-2.058 1.123-3.51-.04.03-.681.54-.993 1.143.143-.703 1.296-3.282 5.136-3.36 3.465-.07 5.963 3.266 6.357 4.122-.113-.16-1.945-2.74-4.335-3.362.11.061 3.629 2.067 4.542 5.358-.082-.15-2.68-4.86-6.564-5.128zm5.29 8.56c.121.918-.454 1.553-.611.232-.053-.419-.066-.762-.018-1.009a.26.26 0 01.064-.133.224.224 0 01.122-.07c.336-.1.656-.256.95-.462-.12.422-.682.563-.659.651.07.259.121.523.153.79zm-.454 1.684c.172-.12.241-.073.444.005.056.023.768.245 1.08.274.015 0-.145.851-.445 1.17.187-.45.013-.93.013-.93s-.162.642-.552 1.129c.26-.749-.005-1.249-.007-1.218a1.262 1.262 0 01-.013.132c-.08.582-.69 1.588-1.06 1.343-.193-.132-.186-1.396.541-1.905zm-2.4 3.263c.045-.096.409-.7.531-.817.123-.116.312-.126.65-.116a2.864 2.864 0 00-.46.156c-.153.077-.438.593-.57.806-.123.2-.05.523-.038.57-.13-.14-.158-.502-.112-.6h-.001zm-2.238 1.545c.136-.184.755-.746 1.135-.833.38-.088.97.232.97.232s-.667-.099-.889-.03c-.222.067-.983.65-1.09.766-.099.106-.29.47-.325.537.03-.078.076-.498.2-.672h-.001zm-3.027 1.41c.023-.35.146-.331.86-.672.446-.212 1.172-.318 1.326-.196.102.1.22.469.44.59-.18-.019-.557-.447-.651-.397-.071.04-.526.331-.944.447-.416.116-.612.15-.717.183-.206.067-.165.576-.485.767.037-.04.155-.264.172-.721zm-3.326-.6c.128-.158.625-.16 1.253-.045.58.102.95.274 1.158.517.143.165.341.81.57 1.007-.41-.193-.41-.578-.711-.719-.254-.118-.706-.04-1.149-.102-.866-.119-.867-.464-1.11-.427-.146.024-.192.173-.545.166.232-.135.471-.316.535-.398h-.001zm-1.454-.785c.182.225.357.713.357.713s-.403-.422-.538-.514c-.135-.091-.772-.745-.772-.745.344.007.775.32.956.546h-.003zm-4-7.394c.175.251.247 1.515.23 1.883-.018.368-1.344.657-1.523.813-.18.156-.21.254-.067.39.142.138 1.499-.176 1.66-.13.4.117.862 1.109.871 2.059 0 .13-1.015.885-1.12 1.177-.106.292.21.068.375.028.165-.04.545-.353.79-.355.584-.007 1.5 1.04 1.623 1.565.035.224.003.454-.091.656a5.627 5.627 0 00-.3.75c-.055.181.619-.421.833-.587.214-.165.479-.072 1.045.239.422.23.898.85.934 1.083.033.224-.084.81-.095.863.022-.015.222-.035.38-.387.169-.375.284-.585 1.4-.447.69.086 1.321.308 1.395.593.088.344.196 1.051.25 1.186.053.136.201-.37.282-.885.08-.516.029-.775.854-1.313.685-.448 1.251-.31 1.59-.222.338.088.45.604.587.488.136-.117-.081-.448 0-.792.08-.344.272-.959 1.018-1.289.746-.33 1.172-.234 1.37.077.196.31.478.89.817.979.339.089 1.117-.472 1.49-1.21-.035.026-.6.464-1.1.485 0 0 .64-.623.712-1.108 0 0-.905.66-1.262.66-.358 0-.746-.37-.213-1.206.533-.837.784-.93 1.104-.967.32-.037.405.288.85.596.446.309.64.176.64.176s.999-1.38 1.307-3.133c-.053.452-.733 5.392-4.22 7.554-1.109.686-1.899 1.278-3.052 1.683-1.89.661-2.816.762-3.837.799.844.04 2.11.085 3.522-.368 1.884-.602 2.55-1.032 3.5-1.628-.193.191-3.873 3.701-9.721 2.596-2.185-.413-4.134-1.81-5.468-3.24-2.05-2.2-2.753-4.187-3.285-6.402.851 2.331 2.483 6.559 7.991 8.469-.261-.12-3.54-1.636-5.77-5.202-.873-1.392-2.256-4.784-1.866-8.148.019 2.625.902 5.566 2.398 7.815.8 1.198 1.793 2.344 2.969 3.06-.177-.14-2.356-1.922-3.622-5.743-1.085-3.276-1.176-6.868.06-10.8-.09.388-1.148 5.272.062 9.265l1.561-.62-.39-1.412-.213 1.023-.32-1.023-.213.778s-.745-.607-.461-3.117c0 0-.043 1.617.817 1.747.5.077.745-.055.925.199h-.004zm.203-3.366c0 .632 0 .973-.137 1.56-.102.449-.654.427-.654.427s.27-.282.328-.618c.072-.426 0-1.294 0-1.294s-.17.626-.35 1.027c.007-.452.013-.981-.071-1.254-.045.478-.401 1.08-.401 1.08s.1-1.111.06-1.125c-.273-.1-.431-.445-.098-1.46-.07.519.136 1.015.622 1.121.485.106.705.1.705.536h-.005zm.077-1.794c.026-.064.314-1.525.322-1.94-.336.614-.609.896-.64.93.025-.066.423-1.16.372-1.226-.222-.28-.417-.526-.35-.853a2.04 2.04 0 01.334-.788c-.224.828.387 1.4.6 1.677.213.277-.222 1.669-.635 2.2h-.003zm2.335-5.498c-.131.292-.652 1.428-1.077 1.733 0 0 .736-1.623.758-1.93-.28.432-.875.909-.95.968.056-.07.443-.571.58-1.257a.774.774 0 01-.1-.387c.03-.442.15-.891.523-1.256-.36.7-.2 1.035 0 1.327.2.292.402.51.27.804l-.004-.002zm1.122-2.322l.556-1.646c-.026.039-.46.644-.769.895.168-.272.593-1.243.566-1.293-.098-.167-.16-.273-.16-.397 0-.216.25-.651.57-.857-.292.487-.335.74-.188.942.202.281.346.469.364.564.018.096-.653 1.49-.936 1.793h-.003zm3.142-4.919c-.354.672-.869 1.183-.982 1.346.1-.169.615-1.054.697-1.57.06-.398-.08-.424-.143-.735-.06-.293.231-.566.266-.597-.136.23.073.584.232.834.089.131.09.423-.067.722h-.003zm6.973-6.703c-.345-.412-.2-.919-.2-.919.294.96 1.014 1.194 1.062 1.207.048.014-.511.118-.859-.288h-.003zm2.69.627c-.049.141-.105.28-.167.415-.318.691-1.08-.004-1.08-.004s.667.071.761-.292c.038-.154 0-.348-.116-.574-.155-.313-.454-.688-.883-1.117-.384-.382-.838-.78-1.249-1.04-.39-.248-.742-.38-.948-.259-.413.24-.203 1.04-.19 1.094-.032-.052-.537-.884-.22-1.571.091-.193.28-.26.559-.327.333-.078.794-.15 1.38-.432l-1.008.8s.84.103 1.826 1.122c.987 1.02 1.196 1.716 1.196 1.716.111-.398.65-.815.714-.865-.274.274-.38.79-.573 1.334h-.003zm-3.81-4.091l.02.03c-.007.003-.013-.01-.016-.03h-.004zm6.236 5.967c.716.928 1.875 1.002 1.875 1.002-1.102.187-1.69-.49-1.871-1.001h-.004zm1.528-.512c-1.92-1.06-2.433-.127-2.256.31-.461-.366-.338-.8-.35-1.005-.027-.425.76-1.463.81-1.528-.022.065-.382.89-.052 1.115 1.742-.137 3.374 1.144 3.623 1.961.174-.417.484-.936.59-1.11-.252.468-.353 1.542-.47 1.85-.054.142-.337.264-.759.277.358-.042.428-1.005-1.133-1.87h-.003zm1.23 3.154h.837c.052.259.515.422.515.422-.566.097-1.134-.174-1.348-.423h-.003zm1.757-1.013c.08-1.073.8-1.305.919-2.268 0 0 .237.514-.194 1.194.128-.178.731-.907 2.004-.933 1.252-.026 1.771.686 1.771.686l.306-.746c.013 1.167.852 2.391-.89 3.076.035-.032.687-.603.551-1.293-.14-.716-.736-.95-1.872-.964-1.09-.014-2.329.918-2.18 1.575.148.656 1.008.682 1.008.682s-1.5.065-1.42-1.008h-.003zm3.362.007c-.032.075-.329.686-.853.63-.558-.059-.807-.33-.807-.33s1.234.211 1.661-.299h-.001zm1.659 2.987c-.613.306-2.673.249-3.208-.873l.584-.685a1.253 1.253 0 00-.05.117c-.08.22-.272.637.273.802.716.22 1.363.384 2.096.14 0 0 .304-.198-.419-.508.43.038.826.194 1.039-.182l.11-.195c-.25.452.19 1.078-.424 1.385h-.001zm8.387-2.124c-.893 1.424-2.408 2.12-4.266 2.157-.203.005-.703-.193-.72-.628l-.037-1.12s.241 1.019.44 1.179c-.057-.498.542-.987 1.26-1.275-.075.047-.689.444-.873.97-.182.518.93.492 2.159-.058.347-.155 1.356-.746 1.186-1.244-.082-.243-.64-.28-1.651-.03.33-.359.782-.569 1.732-.7-.703-.242-1.3-.056-1.544-.018.383-.485 1.438-.696 1.438-.696.346.601 1.213.926.877 1.464h-.001zm-5.26-1.146c1.13.089 2.271-.581 2.468-1.21-.046.194-.259.863-.892 1.215-.879.49-1.575-.005-1.575-.005h-.001zm5.432-3.964c-.391-.157 0-.913 0-.913.48.621 1.045.308 1.045.367 0 .06-.654.7-1.043.546h-.002zm2.026-1.035c.025-.083.466-1.547.122-2.154-.747-1.323-2.504.311-2.77 1.556 0 0-.305-1.331.878-2.223 0 0-1.162.162-1.553 1.58.009-.666.221-1.31.604-1.828 0 0-1.42.547-1.136 3.072 0 0-.3-.622-.284-.833 0 0-.94 1.048-1.473 1.436 0 0 1.486.861 1.776 1.361.562.97-.115 1.987-.545 2.607.075-.155 1.093-2.329-.593-2.139-1.04.117-2.915 1.127-3.423 2.352-.394.955.786 1.327.786 1.327-1.438.013-1.356-.754-1.478-1.433a9.123 9.123 0 00-.433-1.5c.44.697.554.982.646 1.344.212-.553.2-.857 1.297-1.722 1.158-.913 2.254-1.165 2.254-1.165-1.394-.113-2.307.273-2.94.77.258-.563.966-1.282 1.985-1.676-2.184.18-3.402 1.858-3.402 1.858a.96.96 0 01-.863-.1c-.43-.267-.976-.486-2.042-.486-1.386 0-2.078.332-2.522.292-.444-.04-.675-.425-1.667-1.087-.992-.661-1.875-.746-2.417-.78-.903-.057-4.068-2.143-6.238-5.723-.663-1.094-1.266-2.82-1.636-4.78l.004-.067c1.053 3.273 3.27 6.77 6.567 8.974 4.88 3.265 9.648 2.555 10.967 2.263a15.284 15.284 0 01-5.108-.335c-3.612-.845-5.028-1.931-6.893-3.584-2.832-2.513-4.788-7.31-5.8-10.73-.043.278-.26.984-.241 1.48-.636 3.331-1.747 8.343-3.203 11.577-2.31 5.122-5.682 10.612-5.787 10.782.024-.078.49-1.476 3.584-7.615 2.953-5.847 3.691-12.954 3.786-14.015-.236 2.032-1.836 9.13-5.028 14.675-3.216 5.588-4.952 10.75-5.005 10.911.016-.13.457-3.336 2.838-8.13 2.928-5.89 3.998-8.206 4.729-11.828-1.154 3.381-1.83 4.438-4.99 10.497-3.303 6.338-3.67 7.912-4.918 12.317.158-1.536.928-4.652 1.871-7.097 2.226-5.755 3.308-6.892 4.872-11.659-1.46 2.896-4.402 8.206-5.688 11.472-2.465 6.26-3.01 10.525-3.127 12.287.449-10.43 6.762-22.548 7.062-23.12-3.687 5.81-5.458 10.13-6.662 14.379-1.963 6.923-1.656 11.181-1.614 11.641-1.484-9.521 4.301-21.777 6.633-26.23 4.375-6.759 4.486-13.134 4.486-16.92-.035.553-.533 7.162-3.276 11.775-2.876 4.836-5.645 6.725-6.86 6.803-.538.035-1.423.117-2.416.78-.992.664-1.226 1.049-1.667 1.087-.44.038-1.135-.292-2.52-.292-1.067 0-1.612.22-2.045.487a.96.96 0 01-.863.1s-1.22-1.679-3.402-1.86c1.02.395 1.728 1.114 1.984 1.677-.63-.498-1.547-.883-2.94-.77 0 0 1.098.252 2.256 1.165 1.096.865 1.084 1.17 1.296 1.722.094-.362.21-.647.648-1.343a9.123 9.123 0 00-.435 1.499c-.124.679-.04 1.446-1.479 1.433 0 0 1.181-.373.787-1.327-.508-1.225-2.381-2.235-3.425-2.352-1.684-.19-.666 1.985-.59 2.139-.43-.62-1.108-1.636-.548-2.606.289-.5 1.777-1.362 1.777-1.362-.533-.388-1.475-1.436-1.475-1.436.017.211-.283.833-.283.833.283-2.525-1.136-3.072-1.136-3.072a3.15 3.15 0 01.605 1.829c-.392-1.419-1.553-1.58-1.553-1.58 1.181.89.877 2.222.877 2.222-.266-1.243-2.024-2.88-2.77-1.556-.342.607.096 2.07.121 2.154-1.258-1.787-.512-3.477.199-4.11.71-.631 1.667-.183 1.667-.183l-.558-1.35-.151-.883c-.267.224-.906.26-.906.26.745-.135 1.537-1.087 1.34-2.176-.196-1.089-.567-1.302-.567-1.302.409.924.125 1.584.125 1.584a2.082 2.082 0 00-.87-1.504c.2.3.324.65.359 1.02.035.367-.019.74-.157 1.078-.155-1.166-.944-2.16-1.966-1.858-.976.288-.776 1.787-.755 1.915-.65-2.072.846-3.118 1.236-3.224.39-.106 1.427-.535 1.427-.535-1.918-.456-2.922.945-2.922.945-.318-.623-1.1-.934-1.1-.934l-.08-1.058s.59-.005 1.003-.194c.739-.333.8-1.044.8-1.044s.373.828 1.146 1.02c.773.193 2.333.028 2.645-1.156.31-1.184.072-1.79.072-1.79.115.73-.345 1.254-.345 1.254.125-.672-.162-1.264-.162-1.264.142.826-.489 1.536-.489 1.536.168-1.07-.332-2.525-1.5-2.306-.953.18-1.086 1.55-1.086 1.55-.168-1.272.198-1.783.541-2.067l-.972-1.343c.983-.401 1.22-.764 1.22-.764s.242 1.005 1.121 1.453c.667.34 1.404.573 2.271-.086.808-.613.914-2.364.914-2.364-.292 1.306-1.026 1.796-1.072 1.825.545-.76.549-2.045.549-2.066-.267 1.335-1.207 1.907-1.266 1.94.046-.042.598-.57.752-1.263.16-.717-.125-2.108-1.103-2.108-.977 0-1.269.845-1.269.845.037-.826.524-1.526 1.27-1.614.726-.084 1.39.371 1.429.397-.694-1.115-2.06-.726-2.06-.726l-.328-.915c.443-.1 1.066-.833 1.066-.833s.586 1.455 2.007 1.339c1.421-.117 1.472-1.574 1.472-1.574-.178.535-.612.827-.612.827.301-.605.152-1.129.152-1.129a1.331 1.331 0 01-.292.623 1.16 1.16 0 01-.546.363s.478-.652.398-1.682c-.081-1.03-1.285-1.14-1.818-.479.42-1.15 1.344-1.281 2.217-.774.715.419.798 1.274.798 1.274.035-1.255.756-1.684 1.348-2.486.14-.196.242-.421.3-.662a1.97 1.97 0 00.032-.738c-.205 1.127-.868 1.13-.88 1.13.513-.642.367-1.466.367-1.466-.248.94-.852 1.283-.9 1.304.68-1.006.106-2.175-.64-2.232-.701-.055-.978.39-1.009.443.133-.757.598-1.315 1.67-1.233 1.131.085 1.585.674 1.585.674.017-.632.406-1.065.818-1.8.411-.737.328-1.548.328-1.548a1.239 1.239 0 01-.425.788c.187-.7.019-1.205.019-1.205 0 .485-.393.991-.393.991.152-.767-.23-1.41-.754-1.439a.804.804 0 00-.427.09.895.895 0 00-.334.304c.214-.945.978-1.012 1.359-.981.38.031 1.115.068 1.48-.594.365-.661.443-1.179.443-1.179-.213.368-.405.497-.405.497a3.311 3.311 0 00-.068-1.08c.019.758-.357.95-.357.95s.103-1.44-.727-1.554c-.652-.09-.884.557-.884.557.018-1.186 1.189-1.419 1.845-1.125.657.293.783 1.024.783 1.024.15-.583-.099-1.575-.099-1.575.516-.541.329-1.816.329-1.816.019.398-.283.964-.283.964.07-.597-.3-1.031-.3-1.031.096.574-.392 1.05-.392 1.05.115-.547-.018-1.584-.648-1.584a.85.85 0 00-.498.145.97.97 0 00-.346.416c.062-1.117 1.145-1.049 1.636-1.009.301.031.589.156.828.36-.08-.448-.292-.563-.292-.563s.318-.321.241-1.46c-.035-.481-.192-.863-.491-1.164.093.388.152.632.075.9 0 0-.112-.587-.532-.851a1.645 1.645 0 01.017 1.257s-.09-.917-.436-1.116c-.346-.2-.831 0-1.036.585 0-.653.03-.978.492-1.129.609-.201 1.014-.401 1.224-.377-.052-.113-.2-.82-.43-1.228-.05-.094-.12.39-.547.485.28-.287.205-1.045-.014-1.367C35.005 9.578 32.42 7.415 28.5 7.49c-5.086.095-7.144 3.412-7.205 3.514 1.349-1.4 3.425-2.138 3.68-2.222-1.702.675-4.112 3.311-4.748 6.404-.623 3.026.891 5.67.97 5.807-2.709-2.75-1.014-8.532-.954-8.737-1.885 2.652-1.65 5.819-1.635 6.021-1.12-6.192 3.257-12.83 10.817-12.323 7.56.508 11.292 8.667 9.733 16.247-1.559 7.58-5.826 16.6-7.247 23.95-.84 4.34-.249 8.01 2.068 9.833 1.602 1.259 3.84 2.053 7.148.981 6.924-2.245 9.002-9.533 9.002-12.41-.035.284-.084.567-.14.846 0-.008.004-.017.004-.03-.863 3.338-8.842 6.114-15.337 9.526a4.866 4.866 0 01-.408-.328c2.111-1.181 3.986-2.128 5.899-3.098 2.671-1.353 5.961-2.678 7.346-4.317-1.918 1.324-3.658 1.863-7.552 3.715-2.085.989-4.283 1.972-6.312 3.048a5.591 5.591 0 01-.677-1.11c3.662-2.194 7.206-3.771 9.455-5.085 5.38-3.15 5.486-5.775 5.486-5.775-3.074 2.432-7.34 2.126-15.543 5.819.016-.16.032-.321.053-.483 3.897-1.733 7.268-2.917 11.854-4.048 0 0-3.766-.066-11.734 3.183.016-.085.029-.172.043-.258 2.413-1.076 5.36-2.422 8.639-3.043-3.135.34-5.87 1.216-8.512 2.351.163-.814.363-1.618.572-2.387 2.817-1.228 5.278-1.915 7.439-2.563 4.593-1.377 7.58-1.624 8.463-1.669a7.047 7.047 0 01-.459 1.29c.836-.583 1.596-1.922 1.596-1.922.32 1.032.32 3.034.32 3.034.392-1.36.532-3.189.532-3.189.766 2.159.357 6.064.357 6.064.745-1.65 1.242-6.216 1.242-6.216.61 2.3-.09 6.196-.122 6.37.066-.13 1.459-2.86 1.363-6.98.31 1.482.5 3.595.244 5.556 0 0 .96-1.605.706-6.632-.15-2.956-1.973-5.696-2.143-5.942.296.562.625 2.464.858 4.035-.782-3.725-2.629-4.883-2.629-4.883 1.954 2.412 1.598 5.734 1.598 5.734-.489-3.77-2.941-5.693-3.017-5.751 2.117 2.764 1.526 6.109 1.526 6.109-.719-4.288-2.611-6.519-4.172-6.151-1.561.368-1.35 1.807-1.35 1.807-.87-2.253.298-4.575 2.11-4.719 1.687-.128 3.608 1.46 4.477 2.41-.012-.03-.15-.341-.493-.82-.073-.338-.384-1.623-1.494-4.995-1.523-4.62-1.119-8.116-.702-9.598-.113.316-1.287 3.626-.63 6.953.613 3.105 1.194 4.137 1.25 5.968a3.627 3.627 0 00-.237-.163c-.162-1.873-1.47-4.382-1.848-7.564-.4-3.35.227-5.93.852-8.19 0 0-2.021 4.185-1.681 8.19.359 4.162 1.106 4.58 1.223 7.013h-.05c-.365-1.853-1.271-2.759-1.825-5.819-.626-3.454.318-8.863 1.585-11.692-1.945 3.063-2.965 7.184-2.61 11.109.281 2.954 1.176 5.098 1.504 6.576-.008 0-.019.007-.03.01-.56-1.845-2.12-4.186-2.22-8.12.014-4.544 1.032-8.283 3.116-11.002.213-.278.563-.523.992-.862-.302.737-.36 1.31-.36 1.31s.885-2.258 2.734-2.99c-.087.232-.152.456-.24.713.104-.213.999-1.97 3.023-2.292-.267.445-.47.934-.557 1.38 0 0 1.204-2.167 3.589-2.536l.01-.009a2.657 2.657 0 00-.09.117c-.238.32-.514.904-.818 1.79.125-.304.61-1.339 1.558-1.85A4.834 4.834 0 0160 .943c.777 0 1.544.19 2.245.557.949.511 1.433 1.546 1.558 1.85-.307-.884-.579-1.47-.818-1.79-.026-.039-.056-.071-.082-.108 2.384.368 3.589 2.536 3.589 2.536a4.52 4.52 0 00-.555-1.38c2.022.321 2.917 2.079 3.022 2.292-.091-.257-.15-.48-.241-.714 1.85.733 2.733 2.99 2.733 2.99s-.057-.572-.357-1.309c.425.339.777.584.99.862 2.086 2.719 3.104 6.458 3.115 11.003-.062 2.455-.823 4.615-1.502 6.288.346-1.157.727-2.91.944-5.396.314-3.654-1.264-8.08-1.264-8.08.403 2.316.522 3.158.596 4.7.162 3.38-.809 6.378-.875 6.61.626-2.807.509-5.402.385-6.493-.43-3.82-1.924-6.958-1.924-6.958.693 2.863.904 4.608 1 7.015.173 4.159-.526 7.464-.605 7.816.359-2.182.46-4.385.303-6.316-.568-7.012-3.361-10.71-3.452-10.825 1.562 3.921 2.328 7.972 2.446 11.393.13 3.833-.422 6.19-.876 7.672.465-1.802.665-5.702.45-7.672-.9-8.16-4.395-12.239-4.505-12.365 1.836 2.927 2.988 8.783 3.148 12.365.24 5.408-.836 8.522-.904 8.708.04-.172.648-3.02.291-8.41-.425-6.459-3.79-11.812-4.548-13.13 1.101 2.767 3.03 7.502 3.403 13.217.358 5.484-.855 10.638-.954 11.04.04-.32.458-3.872.318-8.591-.21-6.968-3.18-13.018-3.27-13.205 1.01 4.04 2.206 8.483 2.296 12.418.09 3.935-1.227 12.47-1.317 15.837-.253 5.029.977 7.486.977 7.486-.441-2.184-.305-4.538.006-6.017-.097 4.119 1.535 7.31 1.602 7.44-.03-.173-.731-4.07-.122-6.37 0 0 .497 4.568 1.242 6.217 0 0-.409-3.905.355-6.064 0 0 .142 1.829.534 3.189 0 0 0-2.001.32-3.034 0 0 .76 1.339 1.596 1.923a6.945 6.945 0 01-.457-1.29c.882.044 3.868.291 8.463 1.668 2.159.647 4.62 1.335 7.437 2.563.21.768.409 1.572.572 2.387-2.642-1.136-5.377-2.01-8.512-2.351 3.279.622 6.228 1.967 8.642 3.047l.045.26C79.518 43.171 75.75 43.24 75.75 43.24c4.585 1.13 7.956 2.315 11.857 4.048.02.162.035.323.051.483-8.206-3.694-12.468-3.388-15.546-5.819 0 0 .108 2.624 5.487 5.775 2.25 1.314 5.793 2.89 9.456 5.084-.183.4-.41.773-.677 1.111-2.029-1.076-4.228-2.06-6.309-3.047-3.898-1.853-5.638-2.392-7.555-3.716 1.384 1.64 4.676 2.964 7.347 4.317 1.913.97 3.787 1.917 5.9 3.098a4.934 4.934 0 01-.409.328c-5.733-3.013-12.053-5.299-14.223-8.106-.74-.959-1.332-2.018-1.369-2.303 0 2.876 2.196 10.232 9.12 12.477 3.306 1.072 5.546.278 7.148-.98 2.314-1.824 2.907-5.493 2.067-9.837-1.429-7.352-5.689-16.372-7.252-23.952-1.564-7.58 2.167-15.743 9.73-16.247 7.563-.503 11.942 6.14 10.814 12.334 0 0 .318-3.292-1.633-6.032.06.205 1.758 5.988-.956 8.737.078-.137 1.593-2.78.971-5.807-.636-3.093-3.044-5.73-4.75-6.404.258.085 2.334.823 3.68 2.223-.061-.103-2.119-3.42-7.205-3.515-3.921-.075-6.505 2.088-7.884 4.127-.219.321-.295 1.08-.014 1.367-.427-.096-.496-.579-.545-.485-.227.409-.377 1.115-.431 1.228.21-.024.616.176 1.226.377.462.15.492.476.492 1.129-.205-.585-.69-.787-1.036-.585-.345.202-.437 1.117-.437 1.117a1.649 1.649 0 01.018-1.257c-.42.264-.533.85-.533.85-.078-.267-.018-.511.076-.899-.3.299-.458.683-.492 1.164-.079 1.139.241 1.46.241 1.46s-.214.115-.291.563c.24-.205.529-.33.832-.36.487-.04 1.573-.108 1.636 1.01a.97.97 0 00-.347-.418.85.85 0 00-.497-.143c-.63 0-.763 1.036-.648 1.583 0 0-.488-.476-.391-1.05 0 0-.371.435-.302 1.031 0 0-.301-.564-.282-.964 0 0-.189 1.275.327 1.816 0 0-.25.992-.097 1.575 0 0 .123-.74.782-1.027.659-.289 1.827-.061 1.845 1.125 0 0-.234-.647-.886-.558-.828.115-.726 1.555-.726 1.555s-.375-.193-.356-.95a3.314 3.314 0 00-.068 1.08s-.192-.13-.404-.498c0 0 .079.518.442 1.18.363.661 1.098.621 1.479.593.38-.027 1.147.035 1.359.982a.888.888 0 00-.333-.305.798.798 0 00-.427-.09c-.525.03-.906.672-.755 1.44 0 0-.392-.507-.392-.992 0 0-.168.506.02 1.206a1.237 1.237 0 01-.425-.79s-.081.807.328 1.547c.41.74.798 1.168.818 1.8 0 0 .454-.588 1.584-.674 1.073-.081 1.538.476 1.67 1.233-.031-.053-.309-.497-1.008-.442-.747.057-1.321 1.226-.64 2.231-.049-.02-.654-.363-.902-1.304 0 0-.144.825.368 1.467-.011 0-.674-.003-.879-1.13-.036.245-.026.497.031.737.057.241.159.467.3.662.592.805 1.314 1.234 1.35 2.487 0 0 .081-.856.797-1.275.873-.506 1.796-.376 2.216.775-.53-.662-1.737-.55-1.814.479-.078 1.03.397 1.681.397 1.681a1.16 1.16 0 01-.55-.358 1.33 1.33 0 01-.296-.62s-.149.523.15 1.127c0 0-.434-.29-.61-.826 0 0 .053 1.455 1.472 1.573 1.42.119 2.006-1.339 2.006-1.339s.621.736 1.066.834l-.329.915s-1.365-.39-2.059.726c.039-.026.705-.481 1.428-.398.746.088 1.234.788 1.272 1.615 0 0-.294-.846-1.272-.846-.979 0-1.261 1.393-1.101 2.109.154.693.707 1.22.752 1.262-.06-.033-1-.604-1.266-1.94 0 .022.003 1.307.545 2.067-.045-.03-.778-.52-1.07-1.825 0 0 .106 1.75.914 2.364.869.659 1.606.426 2.271.086.879-.448 1.121-1.454 1.121-1.454s.237.363 1.22.765l-.974 1.343c.344.284.71.795.543 2.066 0 0-.133-1.369-1.087-1.55-1.166-.218-1.667 1.237-1.499 2.307 0 0-.63-.71-.487-1.537 0 0-.287.592-.162 1.264 0 0-.46-.524-.345-1.254 0 0-.238.605.072 1.79.311 1.187 1.873 1.351 2.645 1.157.772-.195 1.149-1.025 1.149-1.025s.062.71.801 1.045c.414.19 1.003.194 1.003.194l-.083 1.058s-.78.31-1.1.934c0 0-1.003-1.4-2.921-.945 0 0 1.037.427 1.43.535.391.108 1.885 1.152 1.235 3.224.019-.128.22-1.627-.757-1.915-1.021-.298-1.81.69-1.962 1.858a2.286 2.286 0 01-.156-1.079c.036-.368.16-.72.359-1.019a2.074 2.074 0 00-.87 1.504s-.283-.66.126-1.584c0 0-.373.214-.568 1.303-.195 1.088.593 2.039 1.339 2.176 0 0-.636-.037-.904-.26l-.152.883-.559 1.35s.96-.448 1.669.183c.709.632 1.458 2.324.2 4.111h-.002zM27.424 45.476c.127.518.879.855 1.409.117 0 0-.113 1.01-.704.984-.832-.035-.705-1.1-.705-1.1zm1.415-5.216c.143.717.84.615 1.277.38-.014.047-.288.83-.798.727-.761-.156-.479-1.107-.479-1.107zm1.999-5.647c.062.416.258.646.923.348 0 0-.015.861-.631.656-.542-.18-.287-1.004-.292-1.004zm1.713-4.208c.099.377.381.68.995.435 0 0-.192.536-.703.409-.607-.148-.292-.844-.292-.844zm1.888-4.168c.341.643.925.136.97.092-.015.044-.118.693-.615.577-.504-.116-.355-.669-.355-.669zm1.107-3.601c.075.168.389.4.705.041 0 0 .007.617-.422.55-.345-.052-.283-.591-.283-.591zm.292-3.38c.127.417.642.334.804-.073 0 0 .026.593-.403.746-.428.154-.4-.673-.4-.673zm.19-3.6c.12.348.503.209.614.04 0 0 .043.51-.307.539-.35.029-.306-.579-.306-.579zm1.262 31.335a527.28 527.28 0 00-4.492 1.442c1.776-1.273 8.836-3.602 11.457-4.152-.135.058-3.936 1.746-6.965 2.71zm4.8-1.144c-.847.408-4.66 2.205-6.755 2.764l-2.532.678c.9-.416 7.84-2.795 9.287-3.445v.003zm1.007 6.646c-4.565 2.393-7.25 2.952-7.412 2.984 1.772-.688 3.157-1.47 4.561-2.124 4.347-2.025 7.145-3.688 7.984-4.557-.285.308-1.954 2.03-5.133 3.694v.003zm3.52-.872c-.094.125-1.65 2.12-4.502 3.365-2.399 1.045-4.302 1.055-4.434 1.055 2.247-.314 6.552-2.509 8.936-4.42zm36.093-4.628c-3.03-.964-6.83-2.652-6.966-2.712 2.621.55 9.682 2.879 11.457 4.152a527.28 527.28 0 00-4.491-1.442v.002zm4.486 2.296l-2.533-.678c-2.094-.559-5.906-2.356-6.752-2.764 1.445.647 8.385 3.026 9.285 3.44v.002zm-10.295 3.204c-3.18-1.667-4.846-3.386-5.133-3.696.84.869 3.637 2.532 7.984 4.557 1.404.653 2.79 1.436 4.56 2.124-.16-.036-2.844-.595-7.411-2.988v.003zm5.419 3.547c-.132 0-2.037-.01-4.435-1.054-2.854-1.243-4.407-3.24-4.502-3.365 2.382 1.911 6.695 4.108 8.937 4.417v.003zm1.344-39.803c-.35-.03-.307-.538-.307-.538.111.168.495.307.614-.04 0-.003.043.607-.308.576v.002zm.096 3.697c-.428-.156-.403-.746-.403-.746.162.406.678.49.803.073 0-.005.027.83-.4.67v.003zm.41 3.296c-.43.066-.423-.55-.423-.55.318.36.628.127.703-.042 0-.003.063.537-.28.59v.002zm1.034 3.68c-.497.117-.6-.533-.618-.577.046.044.632.551.973-.092.002-.004.15.549-.354.664l-.001.005zm1.953 4.343c-.511.127-.703-.408-.703-.408.613.245.896-.059.995-.436 0-.004.315.692-.293.84v.004zm1.713 4.37c-.616.205-.632-.657-.632-.657.665.295.864.068.924-.348-.005-.005.25.82-.293 1l.001.005zm1.81 5.749c-.508.102-.782-.68-.797-.728.437.235 1.136.338 1.278-.38-.001-.005.282.947-.482 1.103v.005zm1.19 5.21c-.594.026-.706-.985-.706-.985.533.738 1.285.401 1.408-.116.002-.005.13 1.061-.703 1.096v.005zm1.608 21.174c-.454.218-.745-.504-.745-.504.478.281.747.295.753-.36 0-.004.372.675-.008.86v.004zm-.836-1.76c-.487.257-.238 1.15-.224 1.21-.355-.315-.548-1.094-.398-1.442.283-.64.868-1.135 1.733-.503.203.15.223.191.39.476a.943.943 0 00-1.023-.136c.694.315.782 1.087.782 1.087-.184-.392-.814-.93-1.26-.695v.003zm1.136 4.656c-.257-.606-.027-1.591.603-1.808.295-.1.869-.125 1.19.273.36.447.347.84.347.84-.153-.378-.693-.616-.693-.616.346.427.401 1.01.401 1.01-.16-.305-.733-.708-1.204-.633-.689.104-.644.93-.644.93v.004zm1.52-4.5c.31.235.595.36.772-.33 0 0 .328.739-.062.874-.514.176-.674-.5-.71-.548v.005zm-.97 5.055c.188.31.962.313.97-.397 0 0 .29.826-.303.951-.604.125-.667-.558-.667-.558v.004zm.647 1.937c.467-.262 1.013-.12 1.248.18a.623.623 0 01.112.409c-.222-.214-.54-.147-.54-.147.426.42.283 1.538.283 1.538-.098-.79-.631-1.4-1.16-1.244-.514.15-.52.987-.52 1.027-.157-.944.234-1.575.577-1.768v.005zm.616 2.32s-.08.447-.404.46c-.324.012-.375-.46-.375-.46s.113.296.779-.005v.005zm-1.544 2.897c-.04-.79.291-1.29.913-1.428.593-.13 1.006.255.96 1.136l-.234-.56c.05.367-.161.796-.161.796s.111-1.008-.654-.906c-.587.072-.827.957-.827.957l.002.005zm1.024.368s-.014.49-.509.49c-.375 0-.15-.597-.15-.597.03.208.203.524.657.102l.002.005zm-2.044 2.75c.493-.634.977-1 1.442-1.04.464-.04.863.523.905.58-.034-.031-.347-.316-.59-.266a.682.682 0 00-.162.056c-.032.288-.29.712-.576 1.097-.425.573-.886.764-1.167.605-.182-.11-.27-.501.145-1.036l.003.004zm-2.464 1.895c.103-.217.776-.705 1.19-.74.076-.007.36.084.666.327-.031-.013-.39-.192-.582-.13-.057.017-.259.253-.43.357a6.548 6.548 0 01-.733.364c-.26.11-.057.597-.049.647-.022-.024-.24-.458-.065-.83l.003.005zm-2.26.429c.446-.129 1.142-.176 1.296-.1.153.076.396.339.55.602-.033-.032-.3-.298-.482-.348-.062-.015-.305.1-.457.117-.176.02-.233.038-.85.031-.198 0-.35.318-.398.368.027-.064.156-.627.338-.676l.003.006zm-1.953-.358c.17.012.872.249.995.361.124.112.215.579.175.764 0 0-.028-.42-.255-.611-.116-.1-.662-.363-.94-.348-.258.014-.63.212-.682.24.056-.05.546-.424.703-.41l.004.004zm-2.325-1.193c.088 0 .213.03.414.142.202.112.61.509.71.64.1.13.073.315.054.576 0 0-.075-.292-.182-.436-.107-.144-.628-.566-.782-.646a.844.844 0 00-.727-.026.79.79 0 01.51-.256l.003.006zm-.551-7.36c-.05.062-.475.489-.55.551.07-.081.4-.588.426-.776.02-.204.029-.41.028-.615.182.367.145.767.092.834l.004.005zm1.81-.5c-.22.099-.822.012-.822.012s.55-.028.78-.204c.2-.149.311-.434.341-.509-.087.273-.083.6-.302.695l.004.005zm1.697.546c-.25-.028-.598-.262-.657-.298.072.017.576.142.707.102a3.36 3.36 0 00.438-.194c-.237.347-.227.415-.492.387l.004.003zm1.123 4.16c-1.38.58-2.29-.34-2.439-1.02-.07-.344.042-.327.1-.243.515.722 1.09.823 1.454.774.747-.103 1.387-.65 1.577-1.597 0 0 .035.904-.53 1.491.063-.023 1.068-.465 1.198-2.134-.004-.003.24 2.032-1.364 2.725l.004.003zm11.76-12.596c1.479 3.973 1.953 6.647 1.419 10.436-.4 2.84-1.485 5.344-3.057 7.34 1.941-2.812 2.578-6.92 2.398-9.788 0 .019.091 4.454-2.512 8.495-.847 1.31-2.737 3.852-4.854 4.537 1.454-1.081 1.986-1.342 3.507-3.228.652-.809 1.43-2.205 1.696-3.216-1.227 2.023-2.516 3.581-4.19 4.783-2.025 1.457-4.064 1.835-5.395 1.835-4.392 0-7.622-2.323-8.826-6.67.032.2 1.144 6.69 7.757 7.186 0 0-4.081.273-6.922-3.497.042.113 1.245 3.033 4.288 4.16-4.65-1.321-6.912-5.812-6.793-10.32.106-2.475 1.895-6.78 5.519-7.52 2.95-.603 4.871.846 5.678 2.557-1.59-2.066-3.943-1.882-3.943-1.882 1.112.205 2.076.623 2.77 1.4.859.965.914 1.797.914 1.797s-1.218-2.66-4.137-2.692c-2.707-.03-4.06 1.981-4.134 2.096.073-.092 1.447-1.65 4.078-1.622 2.195.026 3.87 1.916 3.695 3.819a3.439 3.439 0 00-.186-.95c-.442-1.243-2.21-2.4-3.967-2.324-1.758.077-4.473 1.588-4.581 4.861 0 0 .045-.205.292-.554.246-.349 1.254-.415 1.164-.535-.05-.062.15-.666.292-.651.09.01-.363-.512-.397-.552.041.024.708.44.698.543-.01.104-.09.66-.282.854-.192.195-.96.362-1.004.547-.045.186.123.117.57.125.446.009.467.209.59.414.123.204.267.78.268.898.014.725-.545 1.104-.623 1.152.068-.024.514-.171.915.044.173.092.64.828.668 1.476.013.306-.435 1.071-.435 1.071s.627-.158.85-.09c.405.124.901.438 1.179.926.182.328.171.767.171.767s.124-.378.8-.319c.675.06 1.2.417 1.385.668.409.51.219 1.662.253 1.864.072.46 1.964.746 2.95.045 0 0-.724.1-1.358-.03.119 0 .681-.196 1.178-.759-.217.094-.681.157-1.136.124-.51-.035-1.21-.257-1.175-.83.031-.53.837-.712 1.39-.702.696.009 1.08.15 1.292.613.046.097.077.2.094.307.02.13.258.94.354 1.01.434.322 1.771.078 2.57-1.119-.072.068-.645.611-1.366.662a2.485 2.485 0 001.064-1.18s-.513.591-1.572.598c-1.06.006-.89-1.136.041-1.822.93-.686 1.398-.365 1.518-.235.12.13.506 1.023.732 1.24.225.218 1.317-.215 1.96-1.52-.343.46-.8.803-1.317.985 0 0 .78-.503 1.01-1.222-.04.047-.683.79-1.339.903-.675.116-.656-.573-.249-1.243.407-.67 1.421-1.468 1.802-1.252.38.215.334.173.597.447.082.085.242.365.339.387.184-.234-.344-.646-.19-.892.136-.215.124-.497.347-.497.877 0 1.5.158 1.942-.895.1-.51.116-.85-.086-1.5-.024.256-.15.971-.249 1.268 0 0 .013-.903-.208-1.4 0 0-.058.958-.502 1.4.307-1.037-.055-1.983-.597-2.054-.542-.071-.938.532-1.045.88 0 0-.036-1.086.768-1.31.322-.09.79-.082 1.17.107.794.27.992 1.393.988 1.949a15.56 15.56 0 00.58-3.118c.014-.172-.382.17-.463.026.665-1.442-.206-2.504-.25-2.549.369.992-.094 1.952-.094 1.952-.016-.583-.234-2.183-1.314-2.143-.804.028-.939 1.283-.939 1.283-.027-.404-.197-1.927.84-2.242.767-.232 1.483-.135 1.961.574.316.467.348.798.348.798 0-.906-.264-3.256-.264-3.256s-.194.306-.661.493c.6-.727.414-1.665.292-2.054l-.144.933s-.055-.655-.6-1.293c.252.829.12 1.462.12 1.462-.226-1.128-.704-1.565-1.332-1.502-.785.082-.98 1.013-.906 1.306-.36-1.06.186-2.456 1.506-2.332.626.059.914.42 1.167.741-.234-.816-.794-1.94-1.277-2.816-.101-1.003-.839-1.527-.85-1.527.295.448.285.653.389 1.249-.333-.626-1.272-1.101-1.344-1.129.836.686.877 1.483.877 1.483-.374-.719-.972-1.153-1.688-1.094-.272.02-.856.497-.603 1.094 0 0-.518-.62-.317-1.153.085-.227.278-.778.825-1.018.44-.193 1.19-.161 1.655.238a19.35 19.35 0 00-1.654-1.967c.08-.13.18-.295.289-.492a22.912 22.912 0 012.416 2.92c-.043-.084-.762-1.449-2.253-3.223.158-.298.301-.604.43-.918 1.641 1.892 3.026 4.061 3.96 6.567l.004.003zM96.42 79.183c.159.497.552.597.844.356 0 0-.064.53-.505.531-.57.003-.343-.887-.343-.887h.004zm.707-4.215c.129.381.197.723.595.723.31 0 .56-.41.595-.592 0 0 .04.964-.614 1.007-.654.043-.579-1.138-.579-1.138h.003zm-.15-4.602c.298.38.908.207 1.03-.067 0 0 .199.656-.383.816-.342.09-.607-.311-.651-.749h.004zm.26-11.811c-.364-.066-.77-.271-.876-.325v-.009c.136.02.707.1.961.06.29-.05.818-.42.818-.42-.312.646-.488.772-.907.693h.004zm.933-1.591c-.388.217-1.497-.103-2.139-.443a2.21 2.21 0 00-.296-.377l-.682-.7.266-.437c.262-.075.818-.17 1.56.06.305.092.59.255.833.476.244.222.442.498.58.81.075-.898.666-1.263.703-1.284-.456.542-.363 1.634-.83 1.896l.005-.002zm3.641 2.304c-.115.264-.301.59-.556.728-.235.126-.868.03-1.247-.146-.484-.224-.741-.332-.795-.457-.031-.078-.05-.505-.05-.82 0-.331-.228-.4-.228-.4s.429.008.467.4c.023.239.052.525.155.606.276.218 1.155.468 1.499.448.156-.01.468-.32.662-.514.167-.163.454 0 .454 0s-.274-.048-.364.157l.003-.002zm.727-1.509c-.014.537-.189.827-1.811.413-1.664-.422-2.048-.904-1.731-1.354.224-.316.587-1.05.574-1.664a2.033 2.033 0 01.06.23c.08.53-.147 1.168-.147 1.168s.554-.142 1.59.15c1.036.29 1.226.9 1.226.9-.02-.117.118-.751.315-1.213.138.309-.057.553-.079 1.372l.003-.002zm3.715 1.915c-.143.166-.241.692-.311.79-.07.097-.524.238-1.234.202-.709-.036-1.269-.224-1.375-.283-.106-.06-.108-.377-.116-.62-.008-.243-.062-.312-.284-.457 0 0 .47.058.522.31.052.252.117.497.117.497.702.249 1.999.184 2.079.142.079-.042.131-.425.309-.64.178-.216.639-.126.639-.126a.58.58 0 00-.349.188l.003-.003zm-1.208-.68c-1.07-.047-2.053-.47-1.863-.971.155-.408.363-1.12.303-1.936.336.867.204 1.384.204 1.384a3.07 3.07 0 01.38-.052 6.05 6.05 0 011.156.081c.259.052.514.12.765.203.549.223.727.515.727.515a7.75 7.75 0 01-.062-.746c-.002-.276.04-.55.124-.81.036.388-.016.675.155 1.454.147.683-.833.928-1.893.879l.004-.002zm-7.704-6.167c.062-.156.116-.315.162-.477 2.343 1.22 4.44 2.055 7.041 2.712 2.299.578 5.881.267 7.252-.785-.137.064-3.205 1.454-7.277.276-2.669-.77-4.426-1.677-6.378-2.739l-.484-.267c.01-.095.014-.19.02-.281 3.798 1.9 8.312 3.772 11.576 3.061-3.038.254-6.869-1.378-11.647-3.858a2.397 2.397 0 00-1.475-1.726l.022-.554c7.87 4.242 10.397 4.973 13.774 4.15 1.293-.313 3.333-1.348 4.361-3.44 1.266-2.579 1.483-5.826.435-9.926 1.172 3.305 1.334 4.331 1.312 6.677-.015 1.502-.403 2.978-1.118 4.42 0 0 1.263-1.327 1.736-4.312.231-1.483.27-3.376-.136-5.72 1.02 3.13 1.036 5.464.584 7.649-.249 1.21-.709 2.42-1.472 3.521-4.587 6.634-11.155 5.17-18.291 1.622l.003-.003zm12.932 7.205c-.078.15-.517.387-.933.483-.496.114-1.231.07-1.321-.045-.091-.115-.282-.476-.345-.614-.062-.137-.204-.309-.408-.34 0 0 .442-.008.577.129.135.136.328.497.328.497.988.18 1.758-.225 1.862-.34.105-.117.399-.801.399-.801s-.134.98-.163 1.034l.004-.003zm-.492-1.337c-1.156.306-2.209.116-2.197-.174.013-.278.06-.992-.075-1.797.197.332.423.875.396 1.419 0 0 .39-.372 1.278-.603.888-.231 1.491-.071 1.491-.071s-.423-.672-.346-1.384c.253.802.798 1.21.854 1.458.055.249-.245.85-1.404 1.155l.003-.003zm3.862-.092c-.301.259-.825.632-1.239.662-.17.011-.364-.216-.55-.457-.187-.242-.329-.34-.505-.398 0 0 .239-.047.542.142.209.129.328.355.522.373.195.02.515-.194.949-.543a2.96 2.96 0 00.666-.746 2.679 2.679 0 01.01-.774c0 .248.249.78.249.868.002.262-.345.616-.647.876l.003-.003zm-.565-1.322c-.782.554-1.258.554-1.339.188-.017-.078-.639-1.452-.639-1.452s.506.302.639.604c.063.131.116.268.159.409 0 0 .187-.31.827-.945a4.254 4.254 0 011.251-.67c-.363-.132-.617-.865-.631-.912.393.547 1.037.654 1.004 1.049-.034.394-.491 1.18-1.274 1.733l.003-.004zm2.495-.932c-.318.031-.826-.176-.826-.176a3.77 3.77 0 00.772-.06c.346-.075 1.027-.542 1.385-1.194-.03.084-.373 1.23-1.333 1.433l.002-.003zm-.29-1.01c-.541-.029-.387-.699-1.082-1.178.625.173.818.86.889.738.003-.004.003-.007.005-.012.112-.324.251-.636.417-.931.084-.138.175-.271.272-.398.236-.272.49-.524.762-.754a.403.403 0 00-.197-.14c-.136-.05-.53-.296-.579-.587.428.444 1.136.17 1.136.991-.001.744-.859 2.312-1.626 2.275l.003-.003zm2.113-2.088s.071-.608.14-.781c.069-.174.539-.33.539-.33.105.078-.202.77-.682 1.114l.003-.003zm1.267-3.78c-.147 1.006-.764 2.093-1.245 2.413-.48.319-.685-.27-1.086-.483.327.05.555.206.839 0 .454-.334.831-1.235 1.023-2.261-.038.073-.664 1.256-.857 1.419l.378-1.55c-.032.06-.536 1.051-.917 1.409.393-.787.689-1.628.881-2.5.363.192.613.128.775.23.364.237.308.63.207 1.324h.002zm.703-3.321s-.255-.98-.527-1.545c-.016.592-.394 1.293-.394 1.293l-.136-2.224c.003.037.046.329.668.476.15.037.25.136.322.431.176.751.064 1.57.064 1.57l.003-.001z" fill="#FFD79C"/></svg>