<svg width="44" height="46" fill="none" xmlns="http://www.w3.org/2000/svg"><path d="M30.423 39.611a16.33 16.33 0 01-8.546-2.408 16.509 16.509 0 01-6.057-6.536h12.067c1.395 0 2.536-1.15 2.536-2.556 0-1.405-1.141-2.555-2.536-2.555h-13.74A17.083 17.083 0 0113.944 23c0-.869.076-1.712.202-2.556h13.741c1.395 0 2.536-1.15 2.536-2.555 0-1.406-1.141-2.556-2.536-2.556H15.82a16.537 16.537 0 016.06-6.532 16.358 16.358 0 018.543-2.412c3.169 0 6.135.92 8.67 2.479 1.268.792 2.915.664 3.98-.41 1.47-1.481 1.141-3.91-.633-5.008A22.768 22.768 0 0030.423 0C20.485 0 12.068 6.414 8.924 15.333H2.535C1.141 15.333 0 16.483 0 17.89c0 1.405 1.14 2.555 2.535 2.555h5.223a21.283 21.283 0 000 5.112H2.535C1.141 25.556 0 26.706 0 28.11c0 1.406 1.14 2.556 2.535 2.556h6.389C12.068 39.586 20.484 46 30.423 46c4.41 0 8.518-1.252 12.017-3.45 1.749-1.099 2.078-3.552.608-5.034-1.065-1.074-2.713-1.202-3.98-.384-2.51 1.585-5.451 2.48-8.645 2.48z" fill="#FFD79C"/></svg>