<svg width="27" height="48" fill="none" xmlns="http://www.w3.org/2000/svg"><path fill-rule="evenodd" clip-rule="evenodd" d="M16.2 2.667A2.65 2.65 0 0015.41.78 2.717 2.717 0 0013.5 0a2.72 2.72 0 00-1.91.781 2.65 2.65 0 00-.79 1.886v2.666a10.869 10.869 0 00-7.637 3.125A10.6 10.6 0 000 16a10.6 10.6 0 003.163 7.543c2.026 2 4.773 3.124 7.637 3.124v10.666a5.449 5.449 0 01-3.119-.978 5.344 5.344 0 01-1.975-2.576 2.68 2.68 0 00-1.387-1.483 2.73 2.73 0 00-2.04-.098 2.689 2.689 0 00-1.527 1.343c-.31.627-.36 1.35-.136 2.014a10.686 10.686 0 003.948 5.154 10.898 10.898 0 006.236 1.958v2.666c0 .708.284 1.386.79 1.886.507.5 1.194.781 1.91.781s1.403-.28 1.91-.781c.505-.5.79-1.178.79-1.886v-2.666a10.87 10.87 0 007.637-3.125A10.6 10.6 0 0027 32a10.6 10.6 0 00-3.163-7.543 10.869 10.869 0 00-7.637-3.124V10.667a5.45 5.45 0 013.119.978 5.344 5.344 0 011.975 2.576 2.68 2.68 0 001.386 1.483 2.73 2.73 0 002.042.098 2.689 2.689 0 001.526-1.343c.31-.627.36-1.35.136-2.014a10.686 10.686 0 00-3.948-5.154A10.897 10.897 0 0016.2 5.333V2.667zm-5.4 8a5.434 5.434 0 00-3.818 1.562A5.3 5.3 0 005.4 16a5.3 5.3 0 001.582 3.771 5.434 5.434 0 003.818 1.562V10.667zm5.4 16v10.666a5.434 5.434 0 003.818-1.562A5.3 5.3 0 0021.6 32a5.3 5.3 0 00-1.582-3.771 5.434 5.434 0 00-3.818-1.562z" fill="#FFD79C"/></svg>