<svg width="29" height="44" fill="none" xmlns="http://www.w3.org/2000/svg"><path d="M23.863 20.125a9.549 9.549 0 001.925-4.238 9.692 9.692 0 00-.291-4.669A9.464 9.464 0 0023.06 7.27a9.082 9.082 0 00-3.98-2.256V2.357c0-.625-.242-1.225-.671-1.667a2.257 2.257 0 00-1.62-.69c-.606 0-1.189.248-1.618.69a2.393 2.393 0 00-.67 1.667v2.357h-3.053V2.357c0-.625-.241-1.225-.67-1.667A2.256 2.256 0 009.157 0C8.552 0 7.97.248 7.54.69a2.393 2.393 0 00-.67 1.667v2.356H2.29c-.608 0-1.19.249-1.62.69A2.393 2.393 0 000 7.072c0 .625.241 1.224.67 1.666.43.442 1.012.69 1.62.69h.763v25.144h-.764c-.607 0-1.19.248-1.618.69A2.393 2.393 0 000 36.928c0 .625.241 1.225.67 1.666.43.443 1.012.69 1.62.69h4.58v2.359c0 .625.24 1.225.67 1.667.43.442 1.011.69 1.619.69.607 0 1.19-.248 1.618-.69.43-.442.671-1.042.671-1.667v-2.358h3.053v2.358c0 .625.24 1.225.67 1.667.43.442 1.012.69 1.619.69s1.19-.248 1.619-.69a2.39 2.39 0 00.67-1.667v-2.357c2.201 0 4.34-.754 6.08-2.142a10.24 10.24 0 003.529-5.529 10.493 10.493 0 00-.502-6.595 10.111 10.111 0 00-4.323-4.895zm-2.494-5.982a4.791 4.791 0 01-1.343 3.332 4.518 4.518 0 01-3.236 1.382H7.63v-9.43h1.515l.013.002.012-.001h7.619a4.518 4.518 0 013.236 1.383 4.791 4.791 0 011.343 3.332zm-2.29 20.428H7.631v-11H19.08c1.417 0 2.776.58 3.778 1.611a5.583 5.583 0 011.564 3.89 5.584 5.584 0 01-1.564 3.888 5.265 5.265 0 01-3.777 1.611z" fill="#FFD79C"/></svg>