<svg width="38" height="44" fill="none" xmlns="http://www.w3.org/2000/svg"><path d="M23.524 28.16c3.84 0 7.521-1.483 10.236-4.124 2.715-2.64 4.24-6.222 4.24-9.956 0-3.734-1.525-7.316-4.24-9.956C31.045 1.484 27.363 0 23.524 0H9.952c-.72 0-1.41.278-1.919.773a2.604 2.604 0 00-.795 1.867v20.24H2.714c-.72 0-1.41.278-1.919.773A2.604 2.604 0 000 25.52c0 .7.286 1.372.795 1.867.509.495 1.2.773 1.92.773h4.523v3.52H2.714c-.72 0-1.41.278-1.919.773A2.604 2.604 0 000 34.32c0 .7.286 1.372.795 1.867.509.495 1.2.773 1.92.773h4.523v4.4c0 .7.286 1.372.795 1.867.51.495 1.2.773 1.92.773s1.41-.278 1.919-.773a2.604 2.604 0 00.795-1.867v-4.4h9.952c.72 0 1.41-.278 1.92-.773.508-.495.794-1.167.794-1.867s-.286-1.372-.795-1.867a2.753 2.753 0 00-1.919-.773h-9.952v-3.52h10.857zM12.667 5.28h10.857c2.4 0 4.7.927 6.397 2.577a8.68 8.68 0 012.65 6.223 8.68 8.68 0 01-2.65 6.222 9.178 9.178 0 01-6.397 2.578H12.667V5.28z" fill="#FFD79C"/></svg>