<svg width="26" height="41" fill="none" xmlns="http://www.w3.org/2000/svg"><path d="M5.305 7.564c-.493.834-1.656 1.162-2.596.725-.947-.43-1.31-1.462-.824-2.303 1.063-1.797 2.665-3.314 4.63-4.373A13.66 13.66 0 0113 0c3.459 0 6.586 1.244 8.851 3.253 2.265 2.009 3.667 4.783 3.667 7.851 0 2.631-1.033 5.05-2.758 6.95l1.81.43c1.025.24 1.64 1.175 1.363 2.091-.277.909-1.324 1.449-2.357 1.203l-4.36-1.032a13.648 13.648 0 01-4.614 1.373l8.281 1.968c1.025.24 1.633 1.176 1.356 2.085-.27.915-1.325 1.455-2.35 1.21L7.494 23.957a8.395 8.395 0 00-.624.505c-1.564 1.387-2.535 3.308-2.535 5.433s.971 4.045 2.535 5.44c1.571 1.386 3.736 2.247 6.131 2.247 1.58 0 3.058-.369 4.322-1.011 1.31-.67 2.41-1.647 3.173-2.815.54-.813 1.71-1.094 2.627-.622.924.471 1.232 1.517.7 2.33-1.1 1.681-2.687 3.082-4.59 4.052A13.701 13.701 0 0113 41c-3.458 0-6.586-1.244-8.85-3.253C1.885 35.738.483 32.964.483 29.896c0-2.631 1.032-5.043 2.75-6.95l-1.81-.43C.398 22.276-.21 21.34.067 20.432c.27-.916 1.325-1.456 2.35-1.21l4.36 1.039a13.607 13.607 0 014.613-1.38l-8.273-1.962c-1.024-.246-1.633-1.182-1.363-2.09.277-.91 1.333-1.45 2.357-1.21l14.397 3.423c.216-.157.424-.328.616-.498 1.572-1.395 2.542-3.315 2.542-5.44 0-2.125-.97-4.045-2.542-5.432C17.56 4.278 15.388 3.417 13 3.417c-1.656 0-3.196.403-4.498 1.107-1.348.724-2.457 1.776-3.197 3.04z" fill="#FFD79C"/></svg>