<svg width="79" height="55" fill="none" xmlns="http://www.w3.org/2000/svg"><path d="M28.528 0C12.728 0 0 12.09 0 27.099s12.728 27.099 28.528 27.099c15.8 0 28.529-12.09 28.529-27.1C57.057 12.09 44.329 0 28.528 0zm41.696 0c-.549 0-1.096.21-1.535.627l-6.583 6.254c-.878.833-.878 2.08 0 2.915a2.195 2.195 0 003.069 0l2.854-2.708v36.687c0 3.544-2.852 6.254-6.583 6.254h-8.778c-1.317 0-2.195.833-2.195 2.084 0 1.25.878 2.085 2.195 2.085h8.778c6.144 0 10.972-4.586 10.972-10.423V7.088l2.855 2.708c.439.417 1.095.627 1.534.627.44 0 1.096-.21 1.535-.627.877-.834.877-2.082 0-2.915L71.758.627A2.222 2.222 0 0070.224 0zM28.528 4.17c13.387 0 24.14 10.213 24.14 22.929s-10.753 22.93-24.14 22.93c-13.386 0-24.139-10.215-24.139-22.93 0-12.716 10.753-22.93 24.14-22.93zm0 4.168c-1.316 0-2.194.834-2.194 2.085v2.292c-3.73.834-6.584 4.17-6.584 8.13 0 4.586 3.95 8.338 8.778 8.338 2.414 0 4.39 1.877 4.39 4.17 0 2.292-1.976 4.169-4.39 4.169-2.413 0-4.389-1.877-4.389-4.17 0-1.25-.877-2.084-2.194-2.084s-2.195.834-2.195 2.084c0 3.961 2.853 7.089 6.584 8.13v2.5c0 1.251.878 2.085 2.194 2.085 1.317 0 2.195-.834 2.195-2.084v-2.5c3.73-.834 6.583-4.17 6.583-8.13 0-4.587-3.95-8.339-8.778-8.339-2.413 0-4.389-1.876-4.389-4.169 0-2.293 1.757-3.96 4.17-4.169h.438c2.414.209 4.17 1.876 4.17 4.17 0 1.25.878 2.084 2.195 2.084 1.317 0 2.194-.834 2.194-2.085 0-3.96-2.852-7.088-6.583-8.13v-2.292c0-1.251-.878-2.085-2.195-2.085z" fill="#FFD79C"/></svg>