<svg width="90" height="58" fill="none" xmlns="http://www.w3.org/2000/svg"><path d="M17.85 36.435a1.818 1.818 0 103.424 1.229l-3.423-1.23zm7.825-15.688l1.712-.616a1.818 1.818 0 00-3.41-.032l1.698.648zm4.431 16.992a1.818 1.818 0 003.365-1.38l-3.365 1.38zm-8.788-5.58l-1.699-.65-.006.018-.007.017 1.712.615zm2.646-10.796l4.107 11.411 3.422-1.231-4.106-11.412-3.422 1.232zm5.818 10.796l-1.682.69v.002l.003.007.01.025.041.098.15.363.505 1.234 1.297 3.161 3.365-1.38-1.297-3.162-.506-1.233-.15-.364a51.281 51.281 0 01-.05-.123l-.002-.006-.001-.002-1.683.69zm-8.508 5.505l1.135-3.162.443-1.233.13-.364.035-.098.01-.025.002-.007v-.001l-1.711-.615-1.712-.615v.002a.156.156 0 01-.003.007l-.009.025-.035.098-.13.364-.443 1.233-1.135 3.162 3.423 1.229zm1.743-4.857l4.357-11.411-3.397-1.297-4.358 11.41 3.398 1.298zm6.765-2.467h-8.464v3.637h8.464V30.34z" fill="#FFD79C"/><path d="M57.778 13.556h8m8 0h-4m-4 0V8.223m0 5.333h4m.541 12.445L59.94 19.334m9.838-5.778c-.108 1.926-1.967 7.111-8.54 12.445" stroke="#FFD79C" stroke-width="3.637" stroke-linecap="round" stroke-linejoin="round"/><path d="M57.778 13.556h8m8 0h-4m-4 0V8.223m0 5.333h4m.541 12.445L59.94 19.334m9.838-5.778c-.108 1.926-1.967 7.111-8.54 12.445" stroke="#FFD79C" stroke-width="3.637" stroke-linecap="round" stroke-linejoin="round"/><path d="M12.028 45.064l-.03-1.787H10.11c-4.88 0-8.29-3.283-8.29-6.716v-15.36c0-3.433 3.41-6.716 8.29-6.716h31.338c4.88 0 8.29 3.283 8.29 6.716v15.36c0 3.433-3.41 6.716-8.29 6.716H31.153l-.416.236-18.241 10.33a.215.215 0 01-.322-.183l-.146-8.596z" stroke="#FFD79C" stroke-width="3.637"/><path d="M12.028 45.064l-.03-1.787H10.11c-4.88 0-8.29-3.283-8.29-6.716v-15.36c0-3.433 3.41-6.716 8.29-6.716h31.338c4.88 0 8.29 3.283 8.29 6.716v15.36c0 3.433-3.41 6.716-8.29 6.716H31.153l-.416.236-18.241 10.33a.215.215 0 01-.322-.183l-.146-8.596z" stroke="#FFD79C" stroke-width="3.637"/><path d="M78.42 31.834l-1.818-.031.031-1.787h1.787v1.818zm-.132 7.668l1.818.031-1.818-.031zM58.32 31.834v-1.818h.471l.412.228-.883 1.59zm16.946 9.41l.883-1.59-.883 1.59zM41.801 8.27a1.818 1.818 0 11-3.602-.501l3.602.501zm15.175 25.384a1.818 1.818 0 110-3.637v3.637zM86.182 9.85c0-3.025-3.096-6.033-7.667-6.033V.182c5.906 0 11.303 4.022 11.303 9.67h-3.636zm0 14.132V9.851h3.636v14.132h-3.636zm-7.667 6.033c4.571 0 7.666-3.008 7.666-6.033h3.638c0 5.647-5.398 9.67-11.304 9.67v-3.637zm-.095 0h.095v3.637h-.095v-3.637zm-1.95 9.454l.132-7.667 3.636.063-.132 7.667-3.636-.063zm-17.266-9.226l16.946 9.41-1.766 3.18-16.946-9.41 1.766-3.18zm-8.93-26.426c-2.31 0-4.443.623-6.005 1.551-1.613.958-2.352 2.062-2.468 2.9l-3.602-.501c.33-2.372 2.11-4.277 4.213-5.526 2.154-1.28 4.934-2.06 7.863-2.06v3.636zm28.241 0h-28.24V.182h28.24v3.636zm-21.54 26.198h1.346v3.637h-1.345v-3.637zm23.13 9.517c-.05 2.907-3.179 4.713-5.72 3.301l1.765-3.18a.215.215 0 00.32-.184l3.636.063z" fill="#FFD79C"/><path d="M78.42 31.834l-1.818-.031.031-1.787h1.787v1.818zm-.132 7.668l1.818.031-1.818-.031zM58.32 31.834v-1.818h.471l.412.228-.883 1.59zm16.946 9.41l.883-1.59-.883 1.59zM41.801 8.27a1.818 1.818 0 11-3.602-.501l3.602.501zm15.175 25.384a1.818 1.818 0 110-3.637v3.637zM86.182 9.85c0-3.025-3.096-6.033-7.667-6.033V.182c5.906 0 11.303 4.022 11.303 9.67h-3.636zm0 14.132V9.851h3.636v14.132h-3.636zm-7.667 6.033c4.571 0 7.666-3.008 7.666-6.033h3.638c0 5.647-5.398 9.67-11.304 9.67v-3.637zm-.095 0h.095v3.637h-.095v-3.637zm-1.95 9.454l.132-7.667 3.636.063-.132 7.667-3.636-.063zm-17.266-9.226l16.946 9.41-1.766 3.18-16.946-9.41 1.766-3.18zm-8.93-26.426c-2.31 0-4.443.623-6.005 1.551-1.613.958-2.352 2.062-2.468 2.9l-3.602-.501c.33-2.372 2.11-4.277 4.213-5.526 2.154-1.28 4.934-2.06 7.863-2.06v3.636zm28.241 0h-28.24V.182h28.24v3.636zm-21.54 26.198h1.346v3.637h-1.345v-3.637zm23.13 9.517c-.05 2.907-3.179 4.713-5.72 3.301l1.765-3.18a.215.215 0 00.32-.184l3.636.063z" fill="#FFD79C"/></svg>