<svg width="69" height="61" fill="none" xmlns="http://www.w3.org/2000/svg"><path d="M31.526 47.424v4.967h7.077l-2.406-6.656-4.671 1.689zm-6.174-17.082l4.671-1.689-1.185-3.279h-3.486v4.968zm-3.368 0v-4.968h-3.482l-1.188 3.273 4.67 1.695zm-6.198 17.082l-4.67-1.695L8.7 52.391h7.087v-4.967zm3.05 0v4.967h3.533l1.16-3.337-4.693-1.63zm1.196-3.441v-4.968h-3.533l-1.16 3.337 4.693 1.63zm7.272 0l4.692-1.63-1.16-3.338h-3.532v4.968zm1.196 3.44l-4.692 1.631 1.16 3.337H28.5v-4.967zm-4.832-13.787l4.687-1.646-4.687-13.343L18.98 31.99l4.687 1.646zm2.709 7.711v4.968h7.01L31.063 39.7l-4.686 1.646zm-5.418 0l-4.687-1.646-2.323 6.614h7.01v-4.968zm15.238 4.388l-6.174-17.082-9.343 3.377 6.174 17.082 9.343-3.377zm-10.845-20.36h-3.368v9.934h3.368v-9.935zm-8.038 3.272L11.116 45.73l9.34 3.39 6.198-17.083-9.34-3.389zm-1.528 23.744h3.05v-9.935h-3.05v9.935zm7.742-3.337l1.196-3.44-9.384-3.262-1.196 3.441 9.384 3.261zm-3.496-.104h7.272v-9.935h-7.272v9.935zm2.58-3.337l1.196 3.441 9.384-3.26-1.196-3.442-9.384 3.262zm5.888 6.778h3.026v-9.935H28.5v9.935zm-9.52-17.109l2.709 7.712 9.373-3.293-2.708-7.711-9.374 3.292zm7.396 1.098h-5.418v9.935h5.418V36.38zm-.731 6.614l2.709-7.712-9.374-3.292-2.709 7.711 9.374 3.293zm7.717-12.652v-4.968h-4.968v4.968h4.968zm0 17.082h-4.968v4.967h4.968v-4.967zm2.806 0v4.967h4.967v-4.967H36.17zm0-5.857v-4.968H31.2v4.968h4.968zm7.516-1.61l-3.513-3.513 3.513 3.512zm0-8.005l-3.513 3.513.02.02.02.019 3.473-3.552zm-7.516 6.98H31.2v4.967h4.968v-4.968zm0-5.955V28.01H31.2v4.967h4.968zm-7.774-2.635v17.082h9.935V30.342h-9.935zm4.968 22.05h2.806v-9.936h-2.806v9.935zm7.773-4.968v-5.857H31.2v5.857h9.935zm-4.967-.89h3.49V36.6h-3.49v9.934zm3.49 0c2.839 0 5.472-.999 7.539-3.065l-7.026-7.025c-.085.085-.129.102-.144.108-.02.008-.124.047-.37.047v9.936zm7.539-3.065c2.055-2.056 3.09-4.648 3.09-7.515h-9.935c0 .221-.035.3-.038.307-.001.003-.021.061-.142.183l7.025 7.025zm3.09-7.515c0-2.833-1.014-5.484-3.13-7.554l-6.946 7.104a.626.626 0 01.082.094.17.17 0 01.018.033c.005.01.04.099.04.323h9.936zm-3.09-7.514c-2.067-2.067-4.7-3.066-7.54-3.066v9.935c.246 0 .35.04.37.047.015.006.059.023.145.109l7.025-7.025zm-7.54-3.066h-6.295v9.935h6.295v-9.935zm1.478 13.558v-5.955H31.2v5.955h9.935zm-4.967-.987h3.49V28.01h-3.49v9.935zm3.49 0c-.46 0-1.062-.196-1.535-.69-.461-.48-.578-1.006-.578-1.3h9.935c0-4.281-3.228-7.945-7.823-7.945v9.935zm-2.113-1.99c0-.296.117-.82.578-1.302.473-.493 1.075-.689 1.534-.689v9.935c4.595 0 7.823-3.664 7.823-7.945h-9.935zm2.112-1.991h-3.49v9.935h3.49v-9.935zm8.099 13.46h-4.968v4.967h4.968v-4.967zm2.806 0v4.967h4.967v-4.967h-4.967zm0-17.082h4.967v-4.968h-4.967v4.968zm-2.806 0v-4.968h-4.968v4.968h4.968zm0 22.05h2.806v-9.936h-2.806v9.935zm7.773-4.968V30.342h-9.935v17.082h9.935zm-4.967-22.05h-2.806v9.935h2.806v-9.935zm-7.774 4.968v17.082h9.935V30.342h-9.935z" fill="#FFD79C"/><path d="M68.484 30.391a2.484 2.484 0 00-4.968 0h4.968zM3.824 5.484h61.353V.516H3.823v4.968zm61.353 49.815H3.823v4.967h61.354V55.3zm-1.66-24.908V56.96h4.967V30.39h-4.968zm0-26.568v12.05h4.967V3.823h-4.968zM5.483 56.96V15.326H.516V56.96h4.968zm0-41.634V3.823H.516v11.503h4.968zM3 17.81h.852v-4.968H3v4.968zm62.177-3.598H7.257v4.967h57.92v-4.967zM3.823 55.299a1.66 1.66 0 011.661 1.66H.516a3.307 3.307 0 003.307 3.307V55.3zm61.354 4.967a3.307 3.307 0 003.307-3.306h-4.968a1.66 1.66 0 011.661-1.661v4.967zm0-54.782a1.661 1.661 0 01-1.66-1.661h4.967A3.307 3.307 0 0065.177.516v4.968zm-1.66 10.389a1.66 1.66 0 011.66-1.661v4.967a3.307 3.307 0 003.307-3.306h-4.968zM3.822.516A3.307 3.307 0 00.516 3.823h4.968a1.66 1.66 0 01-1.66 1.66V.517z" fill="#FFD79C"/><path d="M30.391 16.696H3" stroke="#FFD79C" stroke-width="4.968"/></svg>