<svg width="100" height="65" fill="none" xmlns="http://www.w3.org/2000/svg"><path d="M73.286 9.838H51.98" stroke="#000" stroke-width="3.271" stroke-linecap="round" stroke-linejoin="round"/><path d="M73.286 9.838H51.98" stroke="#FFD79C" stroke-width="3.271" stroke-linecap="round" stroke-linejoin="round"/><path d="M57.094 2.169l-5.965 7.67 5.965 7.669" stroke="#000" stroke-width="3.271" stroke-linecap="round" stroke-linejoin="round"/><path d="M57.094 2.169l-5.965 7.67 5.965 7.669" stroke="#FFD79C" stroke-width="3.271" stroke-linecap="round" stroke-linejoin="round"/><path d="M72.616 9.838H93.92" stroke="#000" stroke-width="3.271" stroke-linecap="round" stroke-linejoin="round"/><path d="M72.616 9.838H93.92" stroke="#FFD79C" stroke-width="3.271" stroke-linecap="round" stroke-linejoin="round"/><path d="M88.807 2.169l5.966 7.67-5.966 7.669" stroke="#000" stroke-width="3.271" stroke-linecap="round" stroke-linejoin="round"/><path d="M88.807 2.169l5.966 7.67-5.966 7.669" stroke="#FFD79C" stroke-width="3.271" stroke-linecap="round" stroke-linejoin="round"/><path d="M98 29.439h1.635c0-.904-.732-1.636-1.635-1.636v1.636zm0 23.86v1.636c.903 0 1.635-.732 1.635-1.636H98zm-45.165 0h-1.636c0 .904.733 1.636 1.636 1.636v-1.636zm0-23.86v-1.636c-.903 0-1.636.732-1.636 1.636h1.636zm9.774 1.635a1.635 1.635 0 000-3.27v3.27zm7.27-3.27a1.635 1.635 0 000 3.27v-3.27zm26.486 1.635v23.86h3.27V29.44h-3.27zM54.47 53.299V29.44H51.2V53.3h3.27zm-1.635-22.225h9.774v-3.27h-9.774v3.27zm17.043 0h11.943v-3.27H69.878v3.27zm11.943 0H98v-3.27H81.82v3.27zM98 51.664H81.82v3.27H98v-3.27zm-16.179 0H52.835v3.27h28.986v-3.27z" fill="#000"/><path d="M98 29.439h1.635c0-.904-.732-1.636-1.635-1.636v1.636zm0 23.86v1.636c.903 0 1.635-.732 1.635-1.636H98zm-45.165 0h-1.636c0 .904.733 1.636 1.636 1.636v-1.636zm0-23.86v-1.636c-.903 0-1.636.732-1.636 1.636h1.636zm9.774 1.635a1.635 1.635 0 000-3.27v3.27zm7.27-3.27a1.635 1.635 0 000 3.27v-3.27zm26.486 1.635v23.86h3.27V29.44h-3.27zM54.47 53.299V29.44H51.2V53.3h3.27zm-1.635-22.225h9.774v-3.27h-9.774v3.27zm17.043 0h11.943v-3.27H69.878v3.27zm11.943 0H98v-3.27H81.82v3.27zM98 51.664H81.82v3.27H98v-3.27zm-16.179 0H52.835v3.27h28.986v-3.27z" fill="#FFD79C"/><circle cx="75.418" cy="41.795" r="4.756" stroke="#000" stroke-width="3.271" stroke-linecap="round"/><circle cx="75.418" cy="41.795" r="4.756" stroke="#FFD79C" stroke-width="3.271" stroke-linecap="round"/><path fill-rule="evenodd" clip-rule="evenodd" d="M50.343 24.144c-1.063.504-2.323.043-2.947-.955a18.29 18.29 0 10-4.197 24.078c.925-.728 2.267-.736 3.097.098.83.834.832 2.192-.076 2.94a22.55 22.55 0 115.046-28.953c.602 1.011.14 2.288-.923 2.792z" fill="#000"/><path fill-rule="evenodd" clip-rule="evenodd" d="M50.343 24.144c-1.063.504-2.323.043-2.947-.955a18.29 18.29 0 10-4.197 24.078c.925-.728 2.267-.736 3.097.098.83.834.832 2.192-.076 2.94a22.55 22.55 0 115.046-28.953c.602 1.011.14 2.288-.923 2.792z" fill="#FFD79C"/></svg>