<svg width="70" height="54" fill="none" xmlns="http://www.w3.org/2000/svg"><rect width="16.565" height="21.835" rx="2.814" transform="matrix(0 1 1 0 39.894 29.859)" fill="#FFD79C"/><rect width="16.565" height="12.047" rx="2.814" transform="matrix(0 1 1 0 7.518 29.859)" fill="#FFD79C"/><path d="M36.62 11.76l1.232 1.842-1.232-1.842zm13.12-8.772l1.232 1.842-1.232-1.842zm2.956 0l-1.23 1.842 1.231-1.842zM65.82 11.76l-1.232 1.842 1.232-1.842zm-1.035 6.167a2.216 2.216 0 104.432 0h-4.432zm4.432 12.066a2.216 2.216 0 10-4.432 0h4.432zM37.655 48.685V13.97h-4.433v34.715h4.433zm26.686.443H38.098v4.432h26.243v-4.432zM37.85 13.602L50.974 4.83 48.51 1.146 35.388 9.917l2.464 3.685zM51.467 4.83l13.12 8.772 2.464-3.685L53.93 1.146 51.466 4.83zm13.318 9.14v3.957h4.432V13.97h-4.432zm0 16.023v18.692h4.432V29.992h-4.432zM50.973 4.83c.149-.1.343-.1.493 0l2.463-3.684a4.876 4.876 0 00-5.42 0l2.464 3.684zM64.34 53.56a4.876 4.876 0 004.875-4.876h-4.432a.443.443 0 01-.443.444v4.432zm.246-39.958c.123.082.197.22.197.368h4.432a4.876 4.876 0 00-2.166-4.053l-2.463 3.685zm-26.932.368c0-.148.074-.286.197-.368l-2.464-3.685a4.876 4.876 0 00-2.166 4.053h4.433zm-4.433 34.715a4.876 4.876 0 004.876 4.875v-4.432a.443.443 0 01-.443-.444h-4.433zM4.035 20.703l1.354 1.755-1.354-1.755zm7.861-6.063l1.354 1.755-1.354-1.755zm3.249 0l-1.354 1.755 1.354-1.755zm7.86 6.063l1.355-1.754-1.354 1.754zm-1.18 4.936a2.216 2.216 0 004.432 0h-4.432zm4.432 10.997a2.216 2.216 0 10-4.432 0h4.432zM5.217 48.684V22.81H.783v25.875h4.432zm16.165.444H5.659v4.432h15.723v-4.432zM5.389 22.458l7.86-6.063-2.706-3.51-7.861 6.064 2.707 3.51zm8.402-6.063l7.861 6.063 2.707-3.51-7.86-6.063-2.708 3.51zm8.034 6.414v2.83h4.432v-2.83h-4.432zm0 13.827v12.048h4.432V36.636h-4.432zM13.25 16.395a.443.443 0 01.541 0l2.707-3.51a4.876 4.876 0 00-5.955 0l2.707 3.51zm8.132 37.165a4.876 4.876 0 004.875-4.876h-4.432a.443.443 0 01-.443.444v4.432zm.27-31.102a.443.443 0 01.173.351h4.432a4.876 4.876 0 00-1.898-3.86l-2.707 3.51zm-16.436.351a.44.44 0 01.173-.35l-2.707-3.51a4.875 4.875 0 00-1.898 3.86h4.432zM.784 48.684a4.876 4.876 0 004.875 4.876v-4.432a.443.443 0 01-.443-.444H.784z" fill="#FFD79C"/></svg>