<svg width="53" height="53" fill="none" xmlns="http://www.w3.org/2000/svg"><path d="M33.743 37.443a3.884 3.884 0 013.878-3.878 3.884 3.884 0 013.878 3.878 3.884 3.884 0 01-3.878 3.878 3.884 3.884 0 01-3.878-3.878zm1.284 0a2.595 2.595 0 002.594 2.593 2.596 2.596 0 002.593-2.593 2.596 2.596 0 00-2.593-2.594 2.595 2.595 0 00-2.594 2.594zM11.091 14.792a3.884 3.884 0 013.878-3.878 3.884 3.884 0 013.878 3.878 3.884 3.884 0 01-3.878 3.878 3.884 3.884 0 01-3.878-3.878zm1.284 0a2.596 2.596 0 002.594 2.593 2.596 2.596 0 002.594-2.593 2.596 2.596 0 00-2.594-2.594 2.596 2.596 0 00-2.594 2.594zm9.658 11.709a3.884 3.884 0 013.878-3.878 3.884 3.884 0 013.878 3.878 3.884 3.884 0 01-3.878 3.878 3.884 3.884 0 01-3.878-3.878zm1.284 0a2.595 2.595 0 002.594 2.594 2.595 2.595 0 002.594-2.594 2.596 2.596 0 00-2.594-2.594 2.596 2.596 0 00-2.594 2.594z" fill="#000" stroke="#E9DAC5" stroke-width="1.951"/><path d="M50 26.728V8.854A5.854 5.854 0 0044.146 3H8.854A5.854 5.854 0 003 8.854v35.748a5.854 5.854 0 005.854 5.854h35.292A5.854 5.854 0 0050 44.602v-6.01" stroke="#E9DAC5" stroke-width="4.879" stroke-linecap="round" stroke-linejoin="round"/></svg>