<svg width="47" height="46" fill="none" xmlns="http://www.w3.org/2000/svg"><path d="M16.216 22.985c.536.055.97.302 1.304.742.333.434.499.963.499 1.588 0 .416-.088.79-.263 1.123-.172.333-.405.6-.7.804a3.4 3.4 0 01-1.006.465c-.37.106-.763.16-1.18.16h-4.687v-9.709h4.452c.564 0 1.072.09 1.526.27.457.181.83.468 1.116.86.291.393.437.867.437 1.422 0 .583-.13 1.075-.388 1.477a1.876 1.876 0 01-1.11.798zm-4.306-3.627v2.989h2.628c.411 0 .758-.139 1.04-.416.287-.282.43-.64.43-1.075 0-.435-.143-.793-.43-1.075a1.414 1.414 0 00-1.04-.423H11.91zm2.857 7.219c.411 0 .758-.139 1.04-.416.286-.282.43-.64.43-1.075 0-.435-.143-.79-.43-1.068a1.414 1.414 0 00-1.04-.423H11.91v2.982h2.857zm12.539-8.419v1.512h-2.954v8.196h-1.734V19.67H19.65v-1.512h7.656zm5.874 8.218c.685 0 1.276-.167 1.776-.5.499-.337.857-.818 1.074-1.442l1.706.263c-.286 1.027-.841 1.829-1.664 2.407-.818.578-1.782.867-2.892.867-.915 0-1.736-.197-2.461-.59a4.303 4.303 0 01-1.727-1.727c-.425-.758-.638-1.639-.638-2.642s.213-1.884.638-2.642c.425-.758 1-1.333 1.727-1.726.725-.393 1.546-.59 2.461-.59 1.11 0 2.074.29 2.892.867.823.578 1.378 1.38 1.664 2.406l-1.706.264c-.217-.624-.575-1.103-1.074-1.436-.5-.337-1.091-.506-1.776-.506-.92 0-1.666.298-2.24.895-.568.591-.852 1.414-.852 2.468s.284 1.88.852 2.476c.574.592 1.32.888 2.24.888z" fill="#E9DAC5"/><path fill-rule="evenodd" clip-rule="evenodd" d="M34.748 6.783C30.544 4.014 25.402 2.9 20.374 3.67c-5.028.77-9.56 3.364-12.667 7.25-3.108 3.888-4.555 8.773-4.046 13.656.509 4.883 2.936 9.393 6.784 12.606 3.415 2.852 7.719 4.49 12.2 4.675.945.04 1.744.765 1.786 1.71.043.949-.695 1.758-1.644 1.73-5.387-.158-10.574-2.097-14.674-5.52C3.578 35.988.718 30.673.118 24.918c-.6-5.755 1.106-11.513 4.768-16.094C8.55 4.245 13.89 1.187 19.816.28c5.925-.907 11.986.406 16.94 3.668 4.954 3.263 8.426 8.229 9.705 13.88 1.278 5.65.265 11.559-2.83 16.513-2.803 4.487-7.122 7.884-12.205 9.639-.886.306-1.822-.226-2.083-1.127-.267-.925.28-1.883 1.185-2.212 4.181-1.517 7.73-4.353 10.053-8.07 2.626-4.205 3.485-9.218 2.4-14.012-1.084-4.795-4.03-9.008-8.233-11.776z" fill="#E9DAC5"/></svg>