<svg width="47" height="92" fill="none" xmlns="http://www.w3.org/2000/svg"><path d="M9.524 31.08l-.48-14.273 2.38 7.618 11.006 20.25.114 3.281-4.66.254-8.36-17.13z" fill="#4B4B4B"/><path d="M33.907 9.349l-4.42 14.07-3.769-14.734L29.662.382l4.245 8.967z" fill="#343434"/><path d="M21.529 29.316l2.91 8.357.773-1.856-3.71-17.96.027 11.46z" fill="#313131"/><path d="M25.718 8.685l3.77 14.734-4.276 12.398-3.71-17.96 4.216-9.172z" fill="#565656"/><path d="M38.217 18.718l-4.35 18.1-4.38-13.398 4.42-14.07 4.31 9.368z" fill="#4E4E4E"/><path d="M11.623 6.167l6.943 21.646-7.143-3.388-2.378-7.617 2.579-10.641z" fill="#383838"/><path d="M38.271 18.544l-4.404 18.274.909 2.575 4.673-9.41-1.178-11.44z" fill="#323232"/><path d="M5.873 69.438l-4.291 8.195 3.107-.17 8.197-5.44-4.243-2.287-1.435.313-1.335-.61z" fill="#535353"/><path d="M4.689 77.464l4.065 5.284 18.104-5.383 1.632-2.159-7.634-8.505L4.688 77.464z" fill="#2B2B2B"/><path d="M14.517 86.275l19.06-6.609-6.72-2.301-18.102 5.383-.764 2.432 6.526 1.095z" fill="#4E4E4E"/><path d="M20.856 66.702l7.634 8.505 9.906.057-3.435-5.468-14.105-3.094z" fill="#3D3D3D"/><path d="M21.583 29.143l7.409 21.983-4.462-1.592-1.986-1.578-.961-18.813z" fill="#424242"/><path d="M7.584 58.526l2.442 1.34 4.064-1.396 10.44-8.935-1.985-1.578-4.66.254L7.584 58.526z" fill="#525252"/><path d="M4.824 58.804l2.76-.279 10.3-10.314-13.06 10.593z" fill="#C6C6C6"/><path d="M13.267 64.127l7.588 2.574-6.765-8.232-4.065 1.396-3.016 5.35.2 4.834 1.434-.313 1.002-1.976 3.622-3.633z" fill="#414141"/><path d="M28.992 51.127L20.855 66.7l14.105 3.095-.802-16.283-5.166-2.386z" fill="#525252"/><path d="M14.09 58.469l6.765 8.232 8.136-15.575-4.461-1.592-10.44 8.935z" fill="#303030"/><path d="M34.776 39.393l-5.785 11.733-4.553-13.453 5.05-14.254 5.288 15.974z" fill="#2A2828"/><path d="M5.874 69.439l1.335.61-.2-4.834 3.017-5.35-2.442-1.34-2.76.279 1.05 10.635z" fill="#6B6B6B"/><path d="M11.424 24.425L22.43 44.676l-.498-8.744-3.193-8.064-7.315-3.443z" fill="#9E9E9E"/><path d="M41.03 64.45l-6.07 5.346-.856-16.11 6.925 10.764z" fill="#303030"/><path d="M42.941 71.73l-1.912-7.28-6.069 5.346 3.436 5.468 4.545-3.534z" fill="#424242"/><path d="M44.737 69.05l-1.796 2.68-1.912-7.28 1.916-2.452 1.792 7.052z" fill="#8D8D8D"/><path d="M26.858 77.365l1.632-2.159 9.906.058-4.818 4.403-6.72-2.302z" fill="#636363"/><path d="M1.582 77.633l3.107-.17 4.066 5.285-.764 2.432-4.547-3.145-1.862-4.402z" fill="#A9A9A9"/><path d="M34.903 49.93l8.041 12.068-1.915 2.452-6.925-10.763.799-3.757z" fill="#636363"/><path d="M39.504 29.81L28.992 51.126l5.167 2.386 5.345-23.704z" fill="#474747"/><path d="M15.05 70.603l5.806-3.902-7.589-2.574-3.796 3.579-.828 2.03 6.407.867z" fill="#222"/><path d="M12.886 72.023l2.164-1.42-6.407-.867 4.243 2.287z" fill="#3D3D3D"/><path d="M9.524 31.08l13.02 16.877-4.66.254-8.36-17.13z" fill="#424242"/></svg>