<svg width="38" height="44" viewBox="0 0 38 44" fill="none" xmlns="http://www.w3.org/2000/svg">
<path d="M23.5238 28.16C27.3631 28.16 31.0452 26.6766 33.76 24.0361C36.4748 21.3956 38 17.8142 38 14.08C38 10.3458 36.4748 6.76445 33.76 4.12394C31.0452 1.48342 27.3631 0 23.5238 0H9.95238C9.23251 0 8.54212 0.278142 8.03309 0.773238C7.52406 1.26833 7.2381 1.93983 7.2381 2.64V22.88H2.71429C1.99441 22.88 1.30402 23.1581 0.794996 23.6532C0.285968 24.1483 0 24.8198 0 25.52C0 26.2202 0.285968 26.8917 0.794996 27.3868C1.30402 27.8819 1.99441 28.16 2.71429 28.16H7.2381V31.68H2.71429C1.99441 31.68 1.30402 31.9581 0.794996 32.4532C0.285968 32.9483 0 33.6198 0 34.32C0 35.0202 0.285968 35.6917 0.794996 36.1868C1.30402 36.6819 1.99441 36.96 2.71429 36.96H7.2381V41.36C7.2381 42.0602 7.52406 42.7317 8.03309 43.2268C8.54212 43.7219 9.23251 44 9.95238 44C10.6723 44 11.3626 43.7219 11.8717 43.2268C12.3807 42.7317 12.6667 42.0602 12.6667 41.36V36.96H22.619C23.3389 36.96 24.0293 36.6819 24.5383 36.1868C25.0474 35.6917 25.3333 35.0202 25.3333 34.32C25.3333 33.6198 25.0474 32.9483 24.5383 32.4532C24.0293 31.9581 23.3389 31.68 22.619 31.68H12.6667V28.16H23.5238ZM12.6667 5.28H23.5238C25.9234 5.28 28.2247 6.20714 29.9214 7.85746C31.6182 9.50778 32.5714 11.7461 32.5714 14.08C32.5714 16.4139 31.6182 18.6522 29.9214 20.3025C28.2247 21.9529 25.9234 22.88 23.5238 22.88H12.6667V5.28Z" fill="#FFD79C"/>
</svg>
