<svg width="29" height="44" viewBox="0 0 29 44" fill="none" xmlns="http://www.w3.org/2000/svg">
<path d="M23.8632 20.1251C24.8408 18.9015 25.5029 17.4439 25.7884 15.8871C26.0739 14.3303 25.9736 12.7245 25.4968 11.2181C25.0199 9.7118 24.1819 8.35355 23.0603 7.26895C21.9386 6.18435 20.5694 5.4084 19.0793 5.01286V2.35714C19.0793 1.73199 18.8381 1.13244 18.4088 0.690391C17.9794 0.248341 17.3971 0 16.7899 0C16.1827 0 15.6004 0.248341 15.1711 0.690391C14.7417 1.13244 14.5005 1.73199 14.5005 2.35714V4.71409L11.448 4.71389V2.35714C11.448 1.73199 11.2068 1.13244 10.7774 0.690391C10.3481 0.248341 9.76577 0 9.15858 0C8.55139 0 7.96907 0.248341 7.53972 0.690391C7.11038 1.13244 6.86917 1.73199 6.86917 2.35714V4.7135H2.28941C1.68222 4.7135 1.0999 4.96184 0.670552 5.40389C0.241205 5.84594 0 6.44549 0 7.07064C0 7.6958 0.241205 8.29534 0.670552 8.73739C1.0999 9.17945 1.68222 9.42778 2.28941 9.42778H3.05254V34.5706H2.28941C1.68222 34.5706 1.0999 34.819 0.670552 35.261C0.241205 35.7031 0 36.3026 0 36.9278C0 37.5529 0.241205 38.1525 0.670552 38.5945C1.0999 39.0366 1.68222 39.2849 2.28941 39.2849H6.86917V41.6429C6.86917 42.268 7.11038 42.8676 7.53972 43.3096C7.96907 43.7517 8.55139 44 9.15858 44C9.76577 44 10.3481 43.7517 10.7774 43.3096C11.2068 42.8676 11.448 42.268 11.448 41.6429V39.2851L14.5005 39.2855V41.6429C14.5005 42.268 14.7417 42.8676 15.1711 43.3096C15.6004 43.7517 16.1827 44 16.7899 44C17.3971 44 17.9794 43.7517 18.4088 43.3096C18.8381 42.8676 19.0793 42.268 19.0793 41.6429V39.2857C21.2805 39.2859 23.4192 38.5324 25.1587 37.1438C26.8981 35.7551 28.1396 33.8102 28.6876 31.6153C29.2357 29.4204 29.059 27.1002 28.1856 25.02C27.3122 22.9398 25.7916 21.2178 23.8632 20.1251ZM21.3687 14.1429C21.3674 15.3927 20.8845 16.591 20.0261 17.4748C19.1677 18.3586 18.0039 18.8557 16.7899 18.8571H7.63116V9.42778H9.14637C9.15037 9.42798 9.15438 9.42857 9.15858 9.42857C9.16259 9.42857 9.16659 9.42798 9.17079 9.42798L16.7899 9.42857C18.0039 9.42998 19.1677 9.92711 20.0261 10.8109C20.8845 11.6947 21.3674 12.893 21.3687 14.1429ZM19.0795 34.5714L7.63116 34.5706V23.5714H19.0793C20.4961 23.5714 21.8549 24.1508 22.8567 25.1823C23.8585 26.2137 24.4214 27.6126 24.4214 29.0713C24.4214 30.53 23.8586 31.929 22.8568 32.9604C21.855 33.9919 20.4963 34.5714 19.0795 34.5714Z" fill="#FFD79C"/>
</svg>
