<svg width="27" height="48" viewBox="0 0 27 48" fill="none" xmlns="http://www.w3.org/2000/svg">
<path fill-rule="evenodd" clip-rule="evenodd" d="M16.2 2.66667C16.2 1.95942 15.9155 1.28115 15.4092 0.781048C14.9028 0.280951 14.2161 0 13.5 0C12.7839 0 12.0972 0.280951 11.5908 0.781048C11.0845 1.28115 10.8 1.95942 10.8 2.66667V5.33333C7.93566 5.33333 5.18864 6.45714 3.16325 8.45753C1.13785 10.4579 0 13.171 0 16C0 18.829 1.13785 21.5421 3.16325 23.5425C5.18864 25.5429 7.93566 26.6667 10.8 26.6667V37.3333C9.68311 37.3335 8.59361 36.9918 7.68145 36.3552C6.76929 35.7186 6.07931 34.8185 5.70645 33.7787C5.45865 33.1241 4.96061 32.5918 4.31948 32.2962C3.67834 32.0006 2.94535 31.9654 2.2782 32.1982C1.61105 32.4309 1.06306 32.913 0.752125 33.5407C0.441194 34.1684 0.39217 34.8916 0.6156 35.5547C1.36054 37.6345 2.73986 39.4351 4.56372 40.7088C6.38758 41.9824 8.5663 42.6664 10.8 42.6667V45.3333C10.8 46.0406 11.0845 46.7189 11.5908 47.219C12.0972 47.7191 12.7839 48 13.5 48C14.2161 48 14.9028 47.7191 15.4092 47.219C15.9155 46.7189 16.2 46.0406 16.2 45.3333V42.6667C19.0643 42.6667 21.8114 41.5429 23.8368 39.5425C25.8621 37.5421 27 34.829 27 32C27 29.171 25.8621 26.4579 23.8368 24.4575C21.8114 22.4571 19.0643 21.3333 16.2 21.3333V10.6667C17.3169 10.6665 18.4064 11.0082 19.3185 11.6448C20.2307 12.2814 20.9207 13.1815 21.2936 14.2213C21.5413 14.8759 22.0394 15.4082 22.6805 15.7038C23.3217 15.9994 24.0547 16.0346 24.7218 15.8018C25.389 15.5691 25.9369 15.087 26.2479 14.4593C26.5588 13.8316 26.6078 13.1084 26.3844 12.4453C25.6395 10.3655 24.2601 8.56485 22.4363 7.29121C20.6124 6.01757 18.4337 5.33356 16.2 5.33333V2.66667ZM10.8 10.6667C9.36783 10.6667 7.99432 11.2286 6.98162 12.2288C5.96893 13.229 5.4 14.5855 5.4 16C5.4 17.4145 5.96893 18.771 6.98162 19.7712C7.99432 20.7714 9.36783 21.3333 10.8 21.3333V10.6667ZM16.2 26.6667V37.3333C17.6322 37.3333 19.0057 36.7714 20.0184 35.7712C21.0311 34.771 21.6 33.4145 21.6 32C21.6 30.5855 21.0311 29.229 20.0184 28.2288C19.0057 27.2286 17.6322 26.6667 16.2 26.6667Z" fill="#FFD79C"/>
</svg>
