<svg width="26" height="41" viewBox="0 0 26 41" fill="none" xmlns="http://www.w3.org/2000/svg">
<path d="M5.30503 7.5645C4.81204 8.39817 3.6489 8.72617 2.70914 8.28883C1.76168 7.85833 1.39964 6.8265 1.88493 5.986C2.94793 4.18883 4.55014 2.67183 6.51439 1.61267C8.41702 0.587667 10.6355 0 13.0003 0C16.4589 0 19.5863 1.24367 21.851 3.25267C24.1156 5.26167 25.5176 8.036 25.5176 11.1042C25.5176 13.735 24.4854 16.154 22.7599 18.0537L24.5701 18.4842C25.5946 18.7233 26.2108 19.6595 25.9335 20.5752C25.6562 21.484 24.6086 22.0238 23.5764 21.7778L19.2165 20.746C17.83 21.4498 16.2663 21.9282 14.6025 22.1195L22.8832 24.0875C23.9076 24.3267 24.5162 25.2628 24.2389 26.1717C23.9693 27.0873 22.914 27.6272 21.8895 27.3812L7.49267 23.9577C7.27699 24.1148 7.06901 24.2857 6.86873 24.4633C5.30503 25.8505 4.33446 27.7707 4.33446 29.8958C4.33446 32.021 5.30503 33.9412 6.86873 35.3352C8.44013 36.7223 10.6047 37.5833 13.0003 37.5833C14.5794 37.5833 16.0583 37.2143 17.3216 36.572C18.6311 35.9023 19.7326 34.9252 20.4952 33.7567C21.0344 32.9435 22.2053 32.6633 23.1219 33.1348C24.0463 33.6063 24.3544 34.6518 23.8229 35.465C22.7214 37.146 21.1346 38.5468 19.232 39.5172C17.3832 40.4602 15.2572 41 13.0003 41C9.54165 41 6.41426 39.7563 4.14959 37.7473C1.88493 35.7383 0.48299 32.964 0.48299 29.8958C0.48299 27.265 1.51518 24.8528 3.23294 22.9463L1.42275 22.5158C0.398257 22.2767 -0.210275 21.3405 0.067031 20.4317C0.336634 19.516 1.39194 18.9762 2.41643 19.2222L6.7763 20.2608C8.17053 19.5502 9.73423 19.0718 11.3904 18.8805L3.1174 16.9193C2.09291 16.6733 1.48437 15.7372 1.75398 14.8283C2.03128 13.9195 3.08659 13.3797 4.11108 13.6188L18.5079 17.0423C18.7236 16.8852 18.9315 16.7143 19.1241 16.5435C20.6955 15.1495 21.6661 13.2293 21.6661 11.1042C21.6661 8.979 20.6955 7.05883 19.1241 5.67167C17.5604 4.27767 15.3882 3.41667 13.0003 3.41667C11.3441 3.41667 9.80355 3.81983 8.50175 4.52367C7.15374 5.248 6.04452 6.30033 5.30503 7.5645Z" fill="#FFD79C"/>
</svg>
