<svg width="35" height="46" viewBox="0 0 35 46" fill="none" xmlns="http://www.w3.org/2000/svg">
<path d="M32.0833 11H2.91667C2.14312 11 1.40125 11.3073 0.854272 11.8543C0.307291 12.4013 0 13.1431 0 13.9167C0 14.6902 0.307291 15.4321 0.854272 15.9791C1.40125 16.526 2.14312 16.8333 2.91667 16.8333H14.5833V43.0833C14.5833 43.8569 14.8906 44.5988 15.4376 45.1457C15.9846 45.6927 16.7265 46 17.5 46C18.2735 46 19.0154 45.6927 19.5624 45.1457C20.1094 44.5988 20.4167 43.8569 20.4167 43.0833V16.8333H32.0833C32.8569 16.8333 33.5988 16.526 34.1457 15.9791C34.6927 15.4321 35 14.6902 35 13.9167C35 13.1431 34.6927 12.4013 34.1457 11.8543C33.5988 11.3073 32.8569 11 32.0833 11Z" fill="#FFD79C"/>
<path d="M32.0833 6H2.91667C2.14312 6 1.40125 5.68393 0.854272 5.12132C0.307291 4.55871 0 3.79565 0 3C0 2.20435 0.307291 1.44129 0.854272 0.87868C1.40125 0.316071 2.14312 0 2.91667 0H32.0833C32.8569 0 33.5988 0.316071 34.1457 0.87868C34.6927 1.44129 35 2.20435 35 3C35 3.79565 34.6927 4.55871 34.1457 5.12132C33.5988 5.68393 32.8569 6 32.0833 6Z" fill="#FFD79C"/>
</svg>
