<svg width="48" height="48" viewBox="0 0 48 48" fill="none" xmlns="http://www.w3.org/2000/svg">
<path fill-rule="evenodd" clip-rule="evenodd" d="M24 48C10.7445 48 0 37.2555 0 24C0 10.7445 10.7445 0 24 0C37.2555 0 48 10.7445 48 24C48 37.2555 37.2555 48 24 48ZM26.883 20.6895V17.1405H35.004V11.7285H12.8925V17.1405H21.0135V20.688C14.4135 20.991 9.45 22.299 9.45 23.865C9.45 25.431 14.4135 26.7375 21.0135 27.042V38.415H26.883V27.039C33.4725 26.736 38.424 25.4295 38.424 23.865C38.424 22.3005 33.4725 20.994 26.883 20.6895ZM26.883 26.0745V26.0715C26.718 26.0835 25.8675 26.1345 23.97 26.1345C22.455 26.1345 21.3885 26.0895 21.0135 26.0715V26.076C15.1815 25.8195 10.8285 24.804 10.8285 23.589C10.8285 22.3755 15.1815 21.36 21.0135 21.099V25.065C21.3945 25.092 22.4865 25.1565 23.9955 25.1565C25.806 25.1565 26.7135 25.0815 26.883 25.0665V21.102C32.703 21.3615 37.0455 22.377 37.0455 23.589C37.0455 24.804 32.703 25.8165 26.883 26.0745Z" fill="#FFD79C"/>
</svg>
