<svg width="44" height="46" viewBox="0 0 44 46" fill="none" xmlns="http://www.w3.org/2000/svg">
<path d="M30.4226 39.6111C27.4088 39.6139 24.4523 38.7809 21.8768 37.2033C19.3012 35.6257 17.2057 33.3643 15.8197 30.6667H27.8874C29.2817 30.6667 30.4226 29.5167 30.4226 28.1111C30.4226 26.7056 29.2817 25.5556 27.8874 25.5556H14.1465C14.0197 24.7122 13.9437 23.8689 13.9437 23C13.9437 22.1311 14.0197 21.2878 14.1465 20.4444H27.8874C29.2817 20.4444 30.4226 19.2944 30.4226 17.8889C30.4226 16.4833 29.2817 15.3333 27.8874 15.3333H15.8197C17.2082 12.6377 19.3042 10.3781 21.8792 8.80081C24.4542 7.22357 27.4095 6.38927 30.4226 6.38889C33.5916 6.38889 36.5578 7.30889 39.093 8.86778C40.3606 9.66 42.0085 9.53222 43.0733 8.45889C44.5438 6.97667 44.2142 4.54889 42.4395 3.45C38.8285 1.19953 34.668 0.00508103 30.4226 0C20.4845 0 12.0676 6.41444 8.92396 15.3333H2.53522C1.14085 15.3333 0 16.4833 0 17.8889C0 19.2944 1.14085 20.4444 2.53522 20.4444H7.75776C7.55244 22.1419 7.55244 23.8581 7.75776 25.5556H2.53522C1.14085 25.5556 0 26.7056 0 28.1111C0 29.5167 1.14085 30.6667 2.53522 30.6667H8.92396C12.0676 39.5856 20.4845 46 30.4226 46C34.8339 46 38.9409 44.7478 42.4395 42.55C44.1888 41.4511 44.5184 38.9978 43.048 37.5156C41.9832 36.4422 40.3353 36.3144 39.0677 37.1322C36.5578 38.7167 33.617 39.6111 30.4226 39.6111Z" fill="#FFD79C"/>
</svg>
