<svg width="70" height="54" viewBox="0 0 70 54" fill="none" xmlns="http://www.w3.org/2000/svg">
<rect width="16.5647" height="21.8353" rx="2.81362" transform="matrix(2.64131e-08 1 1 -2.10811e-08 39.894 29.8587)" fill="#FFD79C"/>
<rect width="16.5647" height="12.047" rx="2.81362" transform="matrix(2.64131e-08 1 1 -2.10811e-08 7.51758 29.8587)" fill="#FFD79C"/>
<path d="M36.6199 11.7596L37.8516 13.602L37.8516 13.602L36.6199 11.7596ZM49.7413 2.98802L50.9729 4.83048L49.7413 2.98802ZM52.6973 2.98802L51.4656 4.83048L51.4656 4.83048L52.6973 2.98802ZM65.8186 11.7596L64.5869 13.602L64.5869 13.602L65.8186 11.7596ZM64.7839 17.9275C64.7839 19.1515 65.7761 20.1437 67.0001 20.1437C68.2241 20.1437 69.2163 19.1515 69.2163 17.9275L64.7839 17.9275ZM69.2163 29.9932C69.2163 28.7692 68.2241 27.777 67.0001 27.777C65.7761 27.777 64.7839 28.7692 64.7839 29.9932L69.2163 29.9932ZM37.6547 48.6845L37.6547 13.9705L33.2222 13.9705L33.2222 48.6845L37.6547 48.6845ZM64.3406 49.1278L38.098 49.1278L38.098 53.5602L64.3406 53.5602L64.3406 49.1278ZM37.8516 13.602L50.9729 4.83048L48.5096 1.14555L35.3883 9.91711L37.8516 13.602ZM51.4656 4.83048L64.5869 13.602L67.0503 9.91711L53.929 1.14555L51.4656 4.83048ZM64.7839 13.9705L64.7839 17.9275L69.2163 17.9275L69.2163 13.9705L64.7839 13.9705ZM64.7839 29.9932L64.7838 48.6845L69.2163 48.6845L69.2163 29.9932L64.7839 29.9932ZM50.9729 4.83048C51.122 4.73081 51.3165 4.73081 51.4656 4.83048L53.929 1.14556C52.2889 0.0491527 50.1497 0.0491527 48.5096 1.14555L50.9729 4.83048ZM64.3406 53.5602C67.0334 53.5602 69.2163 51.3773 69.2163 48.6845L64.7838 48.6845C64.7838 48.9293 64.5854 49.1278 64.3406 49.1278L64.3406 53.5602ZM64.5869 13.602C64.71 13.6843 64.7839 13.8225 64.7839 13.9705L69.2163 13.9705C69.2163 12.3425 68.4038 10.8219 67.0503 9.91711L64.5869 13.602ZM37.6547 13.9705C37.6547 13.8225 37.7286 13.6843 37.8516 13.602L35.3883 9.91711C34.0348 10.8219 33.2222 12.3425 33.2222 13.9705L37.6547 13.9705ZM33.2222 48.6845C33.2222 51.3773 35.4052 53.5602 38.098 53.5602L38.098 49.1278C37.8532 49.1278 37.6547 48.9293 37.6547 48.6845L33.2222 48.6845Z" fill="#FFD79C"/>
<path d="M4.03518 20.7035L5.38877 22.4584L5.38877 22.4584L4.03518 20.7035ZM11.8962 14.64L13.2498 16.3948L13.2498 16.3948L11.8962 14.64ZM15.1448 14.64L13.7913 16.3948L13.7913 16.3948L15.1448 14.64ZM23.0059 20.7035L24.3595 18.9487L24.3595 18.9487L23.0059 20.7035ZM21.8248 25.639C21.8248 26.863 22.8171 27.8552 24.0411 27.8552C25.2651 27.8552 26.2573 26.863 26.2573 25.639L21.8248 25.639ZM26.2573 36.6357C26.2573 35.4117 25.2651 34.4194 24.0411 34.4194C22.8171 34.4194 21.8248 35.4117 21.8248 36.6357L26.2573 36.6357ZM5.21624 48.6845L5.21624 22.8093L0.783764 22.8093L0.783763 48.6845L5.21624 48.6845ZM21.3816 49.1278L5.65948 49.1278L5.65948 53.5602L21.3816 53.5602L21.3816 49.1278ZM5.38877 22.4584L13.2498 16.3948L10.5426 12.8851L2.68159 18.9487L5.38877 22.4584ZM13.7913 16.3948L21.6523 22.4584L24.3595 18.9487L16.4984 12.8851L13.7913 16.3948ZM21.8248 22.8093L21.8248 25.639L26.2573 25.639L26.2573 22.8093L21.8248 22.8093ZM21.8248 36.6357L21.8248 48.6845L26.2573 48.6845L26.2573 36.6357L21.8248 36.6357ZM13.2498 16.3948C13.4093 16.2718 13.6317 16.2718 13.7913 16.3948L16.4984 12.8851C14.7438 11.5317 12.2972 11.5317 10.5426 12.8851L13.2498 16.3948ZM21.3816 53.5602C24.0744 53.5602 26.2573 51.3773 26.2573 48.6845L21.8248 48.6845C21.8248 48.9293 21.6264 49.1278 21.3816 49.1278L21.3816 53.5602ZM21.6523 22.4584C21.7611 22.5423 21.8248 22.6719 21.8248 22.8093L26.2573 22.8093C26.2573 21.2978 25.5563 19.8718 24.3595 18.9487L21.6523 22.4584ZM5.21624 22.8093C5.21624 22.6719 5.27997 22.5423 5.38877 22.4584L2.68159 18.9487C1.48477 19.8718 0.783764 21.2978 0.783764 22.8093L5.21624 22.8093ZM0.783763 48.6845C0.783763 51.3773 2.96669 53.5602 5.65948 53.5602L5.65948 49.1278C5.41469 49.1278 5.21624 48.9293 5.21624 48.6845L0.783763 48.6845Z" fill="#FFD79C"/>
</svg>
