<svg width="100" height="65" viewBox="0 0 100 65" fill="none" xmlns="http://www.w3.org/2000/svg">
<path d="M73.2856 9.83838L51.9814 9.83838" stroke="black" stroke-width="3.27091" stroke-linecap="round" stroke-linejoin="round"/>
<path d="M73.2856 9.83838L51.9814 9.83838" stroke="#FFD79C" stroke-width="3.27091" stroke-linecap="round" stroke-linejoin="round"/>
<path d="M57.0945 2.16895L51.1293 9.83847L57.0945 17.508" stroke="black" stroke-width="3.27091" stroke-linecap="round" stroke-linejoin="round"/>
<path d="M57.0945 2.16895L51.1293 9.83847L57.0945 17.508" stroke="#FFD79C" stroke-width="3.27091" stroke-linecap="round" stroke-linejoin="round"/>
<path d="M72.616 9.83838L93.9202 9.83838" stroke="black" stroke-width="3.27091" stroke-linecap="round" stroke-linejoin="round"/>
<path d="M72.616 9.83838L93.9202 9.83838" stroke="#FFD79C" stroke-width="3.27091" stroke-linecap="round" stroke-linejoin="round"/>
<path d="M88.8074 2.16895L94.7726 9.83847L88.8074 17.508" stroke="black" stroke-width="3.27091" stroke-linecap="round" stroke-linejoin="round"/>
<path d="M88.8074 2.16895L94.7726 9.83847L88.8074 17.508" stroke="#FFD79C" stroke-width="3.27091" stroke-linecap="round" stroke-linejoin="round"/>
<path d="M97.9999 29.4387H99.6354C99.6354 28.5355 98.9032 27.8033 97.9999 27.8033V29.4387ZM97.9999 53.2995V54.9349C98.9032 54.9349 99.6354 54.2027 99.6354 53.2995H97.9999ZM52.835 53.2995H51.1995C51.1995 54.2027 51.9317 54.9349 52.835 54.9349V53.2995ZM52.835 29.4387V27.8033C51.9317 27.8033 51.1995 28.5355 51.1995 29.4387H52.835ZM62.6095 31.0742C63.5127 31.0742 64.2449 30.342 64.2449 29.4387C64.2449 28.5355 63.5127 27.8033 62.6095 27.8033V31.0742ZM69.8783 27.8033C68.9751 27.8033 68.2429 28.5355 68.2429 29.4387C68.2429 30.342 68.9751 31.0742 69.8783 31.0742V27.8033ZM96.3645 29.4387V53.2995H99.6354V29.4387H96.3645ZM54.4704 53.2995V29.4387H51.1995V53.2995H54.4704ZM52.835 31.0742H62.6095V27.8033H52.835V31.0742ZM69.8783 31.0742H81.8214V27.8033H69.8783V31.0742ZM81.8214 31.0742H97.9999V27.8033H81.8214V31.0742ZM97.9999 51.664H81.8214V54.9349H97.9999V51.664ZM81.8214 51.664H52.835V54.9349H81.8214V51.664Z" fill="black"/>
<path d="M97.9999 29.4387H99.6354C99.6354 28.5355 98.9032 27.8033 97.9999 27.8033V29.4387ZM97.9999 53.2995V54.9349C98.9032 54.9349 99.6354 54.2027 99.6354 53.2995H97.9999ZM52.835 53.2995H51.1995C51.1995 54.2027 51.9317 54.9349 52.835 54.9349V53.2995ZM52.835 29.4387V27.8033C51.9317 27.8033 51.1995 28.5355 51.1995 29.4387H52.835ZM62.6095 31.0742C63.5127 31.0742 64.2449 30.342 64.2449 29.4387C64.2449 28.5355 63.5127 27.8033 62.6095 27.8033V31.0742ZM69.8783 27.8033C68.9751 27.8033 68.2429 28.5355 68.2429 29.4387C68.2429 30.342 68.9751 31.0742 69.8783 31.0742V27.8033ZM96.3645 29.4387V53.2995H99.6354V29.4387H96.3645ZM54.4704 53.2995V29.4387H51.1995V53.2995H54.4704ZM52.835 31.0742H62.6095V27.8033H52.835V31.0742ZM69.8783 31.0742H81.8214V27.8033H69.8783V31.0742ZM81.8214 31.0742H97.9999V27.8033H81.8214V31.0742ZM97.9999 51.664H81.8214V54.9349H97.9999V51.664ZM81.8214 51.664H52.835V54.9349H81.8214V51.664Z" fill="#FFD79C"/>
<circle cx="75.4176" cy="41.7954" r="4.75581" stroke="black" stroke-width="3.27091" stroke-linecap="round"/>
<circle cx="75.4176" cy="41.7954" r="4.75581" stroke="#FFD79C" stroke-width="3.27091" stroke-linecap="round"/>
<path fill-rule="evenodd" clip-rule="evenodd" d="M50.3432 24.1443C49.2801 24.6483 48.0198 24.1866 47.3957 23.1892C45.7269 20.5224 43.3913 18.3203 40.6043 16.8103C37.1903 14.9606 33.2763 14.2454 29.4288 14.7682C25.5813 15.291 22 17.0247 19.2034 19.7183C16.4068 22.4119 14.54 25.9257 13.8732 29.7508C13.2065 33.576 13.7745 37.5142 15.4948 40.9951C17.2152 44.476 19.9988 47.3191 23.4425 49.1128C26.8863 50.9064 30.8115 51.5576 34.6499 50.9719C37.7834 50.4938 40.7264 49.2118 43.1989 47.2669C44.1237 46.5395 45.4659 46.5314 46.2958 47.3653C47.1258 48.1993 47.1284 49.5572 46.2198 50.3048C43.0935 52.8773 39.3208 54.5694 35.2926 55.184C30.5599 55.9061 25.7203 55.1033 21.4743 52.8917C17.2282 50.6802 13.7962 47.1748 11.6751 42.8829C9.55388 38.5911 8.85363 33.7355 9.67568 29.0192C10.4977 24.3029 12.7994 19.9706 16.2475 16.6494C19.6956 13.3283 24.1112 11.1907 28.8551 10.5461C33.5989 9.90152 38.4248 10.7834 42.6341 13.064C46.2168 15.0052 49.1946 17.874 51.2662 21.3525C51.8682 22.3634 51.4064 23.6403 50.3432 24.1443Z" fill="black"/>
<path fill-rule="evenodd" clip-rule="evenodd" d="M50.3432 24.1443C49.2801 24.6483 48.0198 24.1866 47.3957 23.1892C45.7269 20.5224 43.3913 18.3203 40.6043 16.8103C37.1903 14.9606 33.2763 14.2454 29.4288 14.7682C25.5813 15.291 22 17.0247 19.2034 19.7183C16.4068 22.4119 14.54 25.9257 13.8732 29.7508C13.2065 33.576 13.7745 37.5142 15.4948 40.9951C17.2152 44.476 19.9988 47.3191 23.4425 49.1128C26.8863 50.9064 30.8115 51.5576 34.6499 50.9719C37.7834 50.4938 40.7264 49.2118 43.1989 47.2669C44.1237 46.5395 45.4659 46.5314 46.2958 47.3653C47.1258 48.1993 47.1284 49.5572 46.2198 50.3048C43.0935 52.8773 39.3208 54.5694 35.2926 55.184C30.5599 55.9061 25.7203 55.1033 21.4743 52.8917C17.2282 50.6802 13.7962 47.1748 11.6751 42.8829C9.55388 38.5911 8.85363 33.7355 9.67568 29.0192C10.4977 24.3029 12.7994 19.9706 16.2475 16.6494C19.6956 13.3283 24.1112 11.1907 28.8551 10.5461C33.5989 9.90152 38.4248 10.7834 42.6341 13.064C46.2168 15.0052 49.1946 17.874 51.2662 21.3525C51.8682 22.3634 51.4064 23.6403 50.3432 24.1443Z" fill="#FFD79C"/>
</svg>
