<svg width="79" height="55" viewBox="0 0 79 55" fill="none" xmlns="http://www.w3.org/2000/svg">
<path d="M28.5284 0C12.7281 0 0 12.0903 0 27.0989C0 42.1075 12.7281 54.1977 28.5284 54.1977C44.3288 54.1977 57.0568 42.1075 57.0568 27.0989C57.0568 12.0903 44.3288 0 28.5284 0ZM70.2238 0C69.6752 0 69.1283 0.210081 68.6894 0.626987L62.1059 6.88057C61.2281 7.71438 61.2281 8.96184 62.1059 9.79565C62.9837 10.6295 64.297 10.6295 65.1748 9.79565L68.0293 7.08821V43.7751C68.0293 47.3188 65.1765 50.0287 61.4458 50.0287H52.6679C51.3512 50.0287 50.4734 50.8625 50.4734 52.1132C50.4734 53.3639 51.3512 54.1977 52.6679 54.1977H61.4458C67.5904 54.1977 72.4183 49.6118 72.4183 43.7751V7.08821L75.2729 9.79565C75.7117 10.2126 76.3684 10.4226 76.8073 10.4226C77.2462 10.4226 77.9028 10.2126 78.3417 9.79565C79.2195 8.96184 79.2195 7.71438 78.3417 6.88057L71.7582 0.626987C71.3193 0.210081 70.7724 0 70.2238 0ZM28.5284 4.16905C41.9148 4.16905 52.6679 14.3832 52.6679 27.0989C52.6679 39.8145 41.9148 50.0287 28.5284 50.0287C15.142 50.0287 4.38899 39.8145 4.38899 27.0989C4.38899 14.3832 15.142 4.16905 28.5284 4.16905ZM28.5284 8.33811C27.2117 8.33811 26.3339 9.17192 26.3339 10.4226V12.7148C22.6033 13.5486 19.7504 16.8847 19.7504 20.8453C19.7504 25.4312 23.7005 29.1834 28.5284 29.1834C30.9424 29.1834 32.9174 31.0595 32.9174 33.3524C32.9174 35.6454 30.9424 37.5215 28.5284 37.5215C26.1145 37.5215 24.1394 35.6454 24.1394 33.3524C24.1394 32.1017 23.2616 31.2679 21.9449 31.2679C20.6282 31.2679 19.7504 32.1017 19.7504 33.3524C19.7504 37.313 22.6033 40.4406 26.3339 41.4829V43.9827C26.3339 45.2334 27.2117 46.0672 28.5284 46.0672C29.8451 46.0672 30.7229 45.2334 30.7229 43.9827V41.4829C34.4536 40.6491 37.3064 37.313 37.3064 33.3524C37.3064 28.7665 33.3563 25.0143 28.5284 25.0143C26.1145 25.0143 24.1394 23.1383 24.1394 20.8453C24.1394 18.5523 25.8959 16.8847 28.3098 16.6762H28.5284H28.747C31.161 16.8847 32.9174 18.5523 32.9174 20.8453C32.9174 22.096 33.7952 22.9298 35.1119 22.9298C36.4286 22.9298 37.3064 22.096 37.3064 20.8453C37.3064 16.8847 34.4536 13.7571 30.7229 12.7148V10.4226C30.7229 9.17192 29.8451 8.33811 28.5284 8.33811Z" fill="#FFD79C"/>
</svg>
