<svg width="69" height="61" viewBox="0 0 69 61" fill="none" xmlns="http://www.w3.org/2000/svg">
<path d="M31.5257 47.4237V52.3912H38.603L36.1974 45.7352L31.5257 47.4237ZM25.3517 30.3416L30.0234 28.6531L28.8383 25.3741H25.3517V30.3416ZM21.9841 30.3416V25.3741H18.5022L17.3145 28.6472L21.9841 30.3416ZM15.7857 47.4237L11.1161 45.7293L8.69882 52.3912H15.7857V47.4237ZM18.8361 47.4237V52.3912H22.3687L23.5283 49.0543L18.8361 47.4237ZM20.0318 43.9829V39.0154H16.4992L15.3396 42.3523L20.0318 43.9829ZM27.3039 43.9829L31.9962 42.3523L30.8366 39.0154H27.3039V43.9829ZM28.4997 47.4237L23.8075 49.0543L24.9671 52.3912H28.4997V47.4237ZM23.6679 33.636L28.3547 31.9897L23.6679 18.6472L18.9811 31.9897L23.6679 33.636ZM26.3766 41.3474V46.3149H33.3866L31.0634 39.7011L26.3766 41.3474ZM20.9592 41.3474L16.2724 39.7011L13.9492 46.3149H20.9592V41.3474ZM36.1974 45.7352L30.0234 28.6531L20.68 32.0301L26.8539 49.1122L36.1974 45.7352ZM25.3517 25.3741H21.9841V35.3091H25.3517V25.3741ZM17.3145 28.6472L11.1161 45.7293L20.4553 49.1181L26.6537 32.036L17.3145 28.6472ZM15.7857 52.3912H18.8361V42.4562H15.7857V52.3912ZM23.5283 49.0543L24.7241 45.6135L15.3396 42.3523L14.1439 45.7931L23.5283 49.0543ZM20.0318 48.9504H27.3039V39.0154H20.0318V48.9504ZM22.6117 45.6135L23.8075 49.0543L33.1919 45.7931L31.9962 42.3523L22.6117 45.6135ZM28.4997 52.3912H31.5257V42.4562H28.4997V52.3912ZM18.9811 35.2823L21.6899 42.9937L31.0634 39.7011L28.3547 31.9897L18.9811 35.2823ZM26.3766 36.3799H20.9592V46.3149H26.3766V36.3799ZM25.6459 42.9937L28.3547 35.2823L18.9811 31.9897L16.2724 39.7011L25.6459 42.9937ZM33.3626 30.3416V25.3741H28.3951V30.3416H33.3626ZM33.3626 47.4237H28.3951V52.3912H33.3626V47.4237ZM36.1689 47.4237V52.3912H41.1364V47.4237H36.1689ZM36.1689 41.567V36.5995H31.2014V41.567H36.1689ZM43.685 39.9564L40.1725 36.4438V36.4438L43.685 39.9564ZM43.685 31.9522L40.1725 35.4648L40.1922 35.4845L40.2122 35.504L43.685 31.9522ZM36.1689 38.9315H31.2014V43.899H36.1689V38.9315ZM36.1689 32.9771V28.0096H31.2014V32.9771H36.1689ZM28.3951 30.3416V47.4237H38.33V30.3416H28.3951ZM33.3626 52.3912H36.1689V42.4562H33.3626V52.3912ZM41.1364 47.4237V41.567H31.2014V47.4237H41.1364ZM36.1689 46.5345H39.6585V36.5995H36.1689V46.5345ZM39.6585 46.5345C42.4979 46.5345 45.1314 45.5352 47.1976 43.4689L40.1725 36.4438C40.0869 36.5295 40.0434 36.5461 40.0282 36.5521C40.0073 36.5605 39.9039 36.5995 39.6585 36.5995V46.5345ZM47.1976 43.4689C49.253 41.4135 50.2875 38.8212 50.2875 35.9543H40.3525C40.3525 36.1753 40.3177 36.2549 40.3153 36.2608C40.314 36.264 40.294 36.3223 40.1725 36.4438L47.1976 43.4689ZM50.2875 35.9543C50.2875 33.1211 49.2742 30.4697 47.1579 28.4004L40.2122 35.504C40.2603 35.551 40.2838 35.5827 40.2939 35.5976C40.3036 35.6119 40.3084 35.6217 40.3123 35.6313C40.3165 35.6415 40.3525 35.7297 40.3525 35.9543H50.2875ZM47.1976 28.4397C45.1314 26.3734 42.4979 25.3741 39.6585 25.3741V35.3091C39.9039 35.3091 40.0073 35.3481 40.0282 35.3565C40.0434 35.3625 40.0869 35.3791 40.1725 35.4648L47.1976 28.4397ZM39.6585 25.3741H33.3626V35.3091H39.6585V25.3741ZM41.1364 38.9315V32.9771H31.2014V38.9315H41.1364ZM36.1689 37.9446H39.6585V28.0096H36.1689V37.9446ZM39.6585 37.9446C39.1985 37.9446 38.5974 37.7486 38.1241 37.2553C37.6627 36.7745 37.5462 36.2494 37.5462 35.9543H47.4812C47.4812 31.6736 44.2528 28.0096 39.6585 28.0096V37.9446ZM37.5462 35.9543C37.5462 35.6592 37.6627 35.1341 38.1241 34.6533C38.5974 34.16 39.1985 33.964 39.6585 33.964V43.899C44.2528 43.899 47.4812 40.235 47.4812 35.9543H37.5462ZM39.6585 33.964H36.1689V43.899H39.6585V33.964ZM47.7565 47.4237H42.789V52.3912H47.7565V47.4237ZM50.5628 47.4237V52.3912H55.5303V47.4237H50.5628ZM50.5628 30.3416H55.5303V25.3741H50.5628V30.3416ZM47.7565 30.3416V25.3741H42.789V30.3416H47.7565ZM47.7565 52.3912H50.5628V42.4562H47.7565V52.3912ZM55.5303 47.4237V30.3416H45.5954V47.4237H55.5303ZM50.5628 25.3741H47.7565V35.3091H50.5628V25.3741ZM42.789 30.3416V47.4237H52.724V30.3416H42.789Z" fill="#FFD79C"/>
<path d="M68.4837 30.3912C68.4837 29.0195 67.3717 27.9075 66 27.9075C64.6283 27.9075 63.5162 29.0195 63.5162 30.3912H68.4837ZM3.82308 5.48375H65.1772V0.516252H3.82308V5.48375ZM65.1772 55.2987H3.82308V60.2662H65.1772V55.2987ZM63.5162 30.3912V56.9596H68.4837V30.3912H63.5162ZM63.5162 3.82284V15.8728H68.4837V3.82284H63.5162ZM5.48399 56.9596V15.326H0.516496V56.9596H5.48399ZM5.48399 15.326V3.82284H0.516496V15.326H5.48399ZM3.00024 17.8098H3.85159V12.8423H3.00024V17.8098ZM65.1772 14.2119H7.25698V19.1793H65.1772V14.2119ZM3.82308 55.2987C4.74039 55.2987 5.48399 56.0423 5.48399 56.9596H0.516496C0.516496 58.7857 1.99689 60.2662 3.82308 60.2662V55.2987ZM65.1772 60.2662C67.0033 60.2662 68.4837 58.7857 68.4837 56.9596H63.5162C63.5162 56.0423 64.2598 55.2987 65.1772 55.2987V60.2662ZM65.1772 5.48375C64.2599 5.48375 63.5162 4.74013 63.5162 3.82284H68.4837C68.4837 1.99667 67.0033 0.516252 65.1772 0.516252V5.48375ZM63.5162 15.8728C63.5162 14.9555 64.2599 14.2119 65.1772 14.2119V19.1793C67.0033 19.1793 68.4837 17.6989 68.4837 15.8728H63.5162ZM3.82308 0.516252C1.99691 0.516252 0.516496 1.99666 0.516496 3.82284H5.48399C5.48399 4.74014 4.74038 5.48375 3.82308 5.48375V0.516252Z" fill="#FFD79C"/>
<path d="M30.3912 16.6956H3" stroke="#FFD79C" stroke-width="4.9675"/>
</svg>
