<svg width="74" height="63" viewBox="0 0 74 63" fill="none" xmlns="http://www.w3.org/2000/svg">
<path d="M70.5686 1.29153C70.4062 1.80175 70.2439 2.30424 70.0738 2.81439C69.6254 4.19817 69.1771 5.57415 68.7364 6.95791C68.0793 8.99886 67.4145 11.0474 66.7574 13.0882C65.9534 15.5774 65.1417 18.0744 64.3378 20.5637C63.4565 23.2927 62.5675 26.0292 61.6861 28.7582C60.7971 31.5179 59.9004 34.2701 59.0113 37.03C58.1765 39.6043 57.3492 42.1708 56.5144 44.7451C55.8109 46.9173 55.1074 49.0896 54.4039 51.2696C53.8937 52.839 53.3912 54.4082 52.881 55.9776C52.6414 56.712 52.3863 57.4465 52.1621 58.1886C52.1544 58.2195 52.1389 58.2505 52.1312 58.2891C52.9815 57.9412 53.8319 57.5933 54.69 57.2532C53.8088 56.658 52.9198 56.055 52.0384 55.4596C50.0748 54.13 48.1036 52.8004 46.1399 51.4706C44.1609 50.1332 42.1819 48.7958 40.2028 47.4584C39.252 46.8168 38.2934 46.1674 37.3426 45.5258C35.8583 44.5208 34.374 43.5158 32.882 42.5109C32.8279 42.4722 32.766 42.4336 32.7119 42.3949C32.8279 43.3071 32.9438 44.2193 33.0675 45.1238C33.7787 44.2657 34.4899 43.4076 35.2012 42.5495C36.8943 40.501 38.595 38.4524 40.2879 36.4037C42.3364 33.9299 44.3928 31.4483 46.4414 28.9745C48.2116 26.8332 49.9898 24.6918 51.76 22.5505C52.6258 21.5068 53.4994 20.4709 54.3575 19.4197C54.373 19.4042 54.3807 19.3887 54.3961 19.3733C54.9528 18.7007 55.0919 17.8194 54.5353 17.0927C54.0173 16.4202 53.0433 16.196 52.2935 16.6443C51.2499 17.2705 50.2062 17.889 49.1627 18.5151C46.6579 20.0071 44.1455 21.5068 41.6408 22.9989C38.6181 24.8001 35.6032 26.6013 32.5805 28.4026C29.9676 29.9564 27.3546 31.518 24.7495 33.0718C23.4817 33.8294 22.1674 34.5483 20.9305 35.3524C20.9151 35.3601 20.8919 35.3756 20.8764 35.3833H22.6313C20.4203 33.8449 18.217 32.3065 16.0062 30.7604C12.5119 28.3252 9.01766 25.8824 5.51576 23.4474C4.70405 22.883 3.90003 22.3187 3.08834 21.7543C2.94919 22.8134 2.81004 23.8724 2.6709 24.9316C3.29707 24.7384 3.92325 24.5451 4.54942 24.3518C6.25011 23.8261 7.9508 23.3082 9.65927 22.7825C12.164 22.0094 14.6764 21.244 17.1811 20.471C20.2502 19.5278 23.3192 18.5847 26.3883 17.6415C29.7357 16.6133 33.0907 15.5852 36.4381 14.5571C39.8318 13.5134 43.2256 12.4775 46.6192 11.4339C49.781 10.4598 52.9505 9.49342 56.1123 8.51946C58.7793 7.70001 61.4387 6.88054 64.1058 6.06886C66.0306 5.48134 67.9555 4.88607 69.8728 4.29861C70.7773 4.02031 71.6895 3.74975 72.594 3.46372C72.6326 3.44826 72.6713 3.44053 72.7099 3.42507C73.5757 3.16222 74.2174 2.19591 73.9236 1.28376C73.6376 0.410199 72.7176 -0.215923 71.7823 0.0700604C71.1561 0.263327 70.5299 0.456593 69.9038 0.649859C68.2031 1.17555 66.5024 1.69349 64.7939 2.21923C62.2892 2.99229 59.7768 3.75764 57.2721 4.53073C54.203 5.47387 51.134 6.41703 48.0649 7.36018C44.7175 8.38834 41.3625 9.41653 38.0151 10.4446C34.6214 11.4883 31.2276 12.5242 27.834 13.5678C24.6722 14.5419 21.5027 15.5083 18.3409 16.4822C15.6739 17.3017 13.0145 18.1211 10.3474 18.9328C8.42255 19.5204 6.49766 20.1156 4.58041 20.7031C3.67593 20.9814 2.75602 21.2442 1.85924 21.538C1.82059 21.5534 1.78193 21.5612 1.74328 21.5766C1.07846 21.7776 0.591431 22.3265 0.498657 23.0223C0.398159 23.749 0.746036 24.3442 1.32583 24.754C3.53683 26.2924 5.74006 27.8308 7.95092 29.3768C11.4452 31.812 14.9394 34.2548 18.4413 36.6899C19.253 37.2542 20.0571 37.8186 20.8687 38.383C21.3635 38.7308 22.1211 38.6845 22.6236 38.383C23.6672 37.7568 24.7109 37.1383 25.7544 36.5122C28.2592 35.0202 30.7715 33.5205 33.2763 32.0284C36.299 30.2272 39.3139 28.426 42.3365 26.6247C44.9494 25.0709 47.5625 23.5093 50.1676 21.9555C51.4354 21.1979 52.7496 20.479 53.9865 19.6749C54.002 19.6672 54.0252 19.6517 54.0406 19.644C53.3372 18.7318 52.6337 17.8196 51.9301 16.9151C51.2189 17.7731 50.5078 18.6313 49.7965 19.4893C48.1034 21.5379 46.4027 23.5865 44.7098 25.6352C42.6612 28.109 40.6049 30.5906 38.5563 33.0644C36.7861 35.2057 35.0079 37.3471 33.2377 39.4884C32.3718 40.5321 31.4982 41.568 30.6402 42.6192C30.6247 42.6347 30.617 42.6502 30.6015 42.6656C29.8594 43.5624 29.9599 44.7298 30.9571 45.3946C32.4724 46.415 33.9798 47.4431 35.495 48.4636C36.2836 48.997 37.072 49.5304 37.8605 50.0638C39.77 51.3548 41.6795 52.6459 43.5888 53.9368C45.6065 55.2973 47.6242 56.6657 49.6418 58.0263C50.7241 58.753 51.7832 59.5337 52.8887 60.2217C52.9042 60.2295 52.9197 60.2449 52.9351 60.2527C53.9092 60.9098 55.1693 60.214 55.494 59.2168C55.6563 58.7065 55.8187 58.2041 55.9888 57.6939C56.4371 56.3101 56.8855 54.9341 57.3261 53.5504C57.9832 51.5094 58.6481 49.4609 59.3052 47.4201C60.1091 44.9309 60.9209 42.4339 61.7248 39.9446C62.6061 37.2156 63.4951 34.479 64.3764 31.7501C65.2655 28.9904 66.1622 26.2382 67.0512 23.4783C67.8861 20.904 68.7133 18.3375 69.5482 15.7632C70.2517 13.591 70.9552 11.4187 71.6587 9.23865C72.1689 7.66928 72.6714 6.10006 73.1815 4.53069C73.4212 3.79628 73.6763 3.06182 73.9005 2.31969C73.9082 2.28876 73.9237 2.25784 73.9314 2.21919C74.2097 1.35336 73.6067 0.278752 72.7177 0.0778804C71.7514 -0.138569 70.8702 0.363906 70.5686 1.29158L70.5686 1.29153Z" fill="#FFD79C"/>
<path d="M51.9304 16.9075C50.3457 18.817 48.7687 20.7265 47.1839 22.6358C44.0685 26.3929 40.9608 30.1499 37.8454 33.9147C35.588 36.6437 33.3231 39.3725 31.0657 42.1014C30.9111 42.2869 30.7565 42.4647 30.6096 42.6503C30.3545 42.9672 30.223 43.2455 30.053 43.6166C29.2799 45.2941 28.5068 46.9794 27.7338 48.6569C26.0408 52.329 24.3556 56.0009 22.6626 59.673C22.6317 59.7426 22.6007 59.8121 22.5621 59.8894C23.6444 60.1832 24.7266 60.477 25.8012 60.7707C25.5383 58.0805 25.2755 55.3825 25.0127 52.6923C24.5952 48.4018 24.1778 44.1192 23.7603 39.8287C23.6675 38.8546 23.567 37.8728 23.4743 36.8987C23.1883 37.4012 22.9022 37.9037 22.6162 38.3984C23.6598 37.7722 24.7035 37.1538 25.747 36.5276C28.2518 35.0356 30.7641 33.5359 33.2689 32.0439C36.2916 30.2427 39.3065 28.4415 42.3292 26.6401C44.942 25.0863 47.5551 23.5247 50.1602 21.9709C51.4357 21.2133 52.7267 20.4789 53.9791 19.6903C53.9946 19.6826 54.0178 19.6672 54.0332 19.6594C54.814 19.1956 55.1696 18.0747 54.6594 17.2784C54.1492 16.4899 53.1132 16.1574 52.2784 16.6522C51.2347 17.2784 50.1911 17.8968 49.1475 18.5229C46.6428 20.015 44.1304 21.5147 41.6257 23.0067C38.603 24.8079 35.5881 26.6091 32.5654 28.4104C29.9525 29.9643 27.3395 31.5259 24.7344 33.0797C23.4588 33.8373 22.1679 34.5717 20.9154 35.3602C20.9 35.368 20.8768 35.3834 20.8613 35.3912C20.3743 35.6849 19.9414 36.2956 20.0032 36.8908C20.2661 39.581 20.5289 42.279 20.7917 44.9692C21.2092 49.2598 21.6266 53.5424 22.0441 57.8329C22.1369 58.807 22.2374 59.7888 22.3301 60.7629C22.3997 61.505 22.8171 62.2625 23.6057 62.4404C24.3092 62.6027 25.2446 62.3553 25.5693 61.6441C27.0381 58.4514 28.5146 55.2509 29.9835 52.0583C30.8803 50.1102 31.7771 48.1621 32.6737 46.2217C32.8824 45.7733 33.1066 45.3327 33.2922 44.8766C33.4236 44.5519 32.9829 45.2245 33.0834 45.1162C33.1375 45.0544 33.1839 44.9925 33.238 44.9307C35.2403 42.511 37.2502 40.0914 39.2525 37.6716C42.3911 33.8836 45.5296 30.0956 48.6606 26.3076C50.5469 24.0348 52.4332 21.7697 54.3117 19.4893C54.3427 19.4584 54.3658 19.4197 54.3968 19.3888C54.9766 18.6853 55.1312 17.603 54.3968 16.9304C53.7474 16.3197 52.5492 16.1574 51.9308 16.9072L51.9304 16.9075Z" fill="#FFD79C"/>
<path d="M34.4752 45.4335C33.161 47.0183 31.8546 48.6109 30.5404 50.1956C28.4531 52.7236 26.3581 55.2591 24.2708 57.7871C23.7915 58.3669 23.3122 58.9466 22.8329 59.5265C22.2531 60.23 22.0985 61.3123 22.8329 61.9849C23.4745 62.5724 24.6728 62.7347 25.2913 61.9849C26.6055 60.4001 27.9119 58.8075 29.2262 57.2228C31.3135 54.6948 33.4084 52.1593 35.4957 49.6313C35.975 49.0515 36.4543 48.4718 36.9336 47.8919C37.5134 47.1884 37.668 46.1061 36.9336 45.4335C36.2997 44.846 35.1015 44.6837 34.4752 45.4335Z" fill="#FFD79C"/>
</svg>
