<svg width="90" height="58" viewBox="0 0 90 58" fill="none" xmlns="http://www.w3.org/2000/svg">
<path d="M17.8507 36.4349C17.5114 37.3801 18.0026 38.4215 18.9479 38.7608C19.8931 39.1001 20.9345 38.6089 21.2738 37.6636L17.8507 36.4349ZM25.6755 20.7473L27.3865 20.1315C27.129 19.4159 26.4535 18.9362 25.6931 18.9289C24.9327 18.9215 24.248 19.3881 23.9767 20.0985L25.6755 20.7473ZM30.1064 37.7395C30.4876 38.6686 31.5498 39.1128 32.479 38.7316C33.4081 38.3504 33.8523 37.2882 33.4711 36.359L30.1064 37.7395ZM21.3179 32.1587L19.619 31.5099L19.6125 31.527L19.6063 31.5443L21.3179 32.1587ZM23.9645 21.363L28.0713 32.7744L31.4934 31.5429L27.3865 20.1315L23.9645 21.363ZM29.7824 32.1587C28.1 32.8489 28.1 32.8489 28.1 32.8489C28.1 32.8489 28.1 32.849 28.1 32.849C28.1 32.849 28.1001 32.8491 28.1001 32.8492C28.1001 32.8492 28.1002 32.8493 28.1002 32.8494C28.1004 32.8498 28.1005 32.8503 28.1009 32.851C28.1014 32.8524 28.1024 32.8547 28.1035 32.8575C28.1059 32.8632 28.1093 32.8716 28.1139 32.8828C28.1231 32.9051 28.1365 32.938 28.154 32.9807C28.189 33.0659 28.2398 33.1898 28.3033 33.3444C28.4302 33.6537 28.6075 34.086 28.8093 34.5779C29.213 35.5619 29.7146 36.7845 30.1064 37.7395L33.4711 36.359C33.0794 35.4041 32.5778 34.1814 32.1741 33.1975C31.9723 32.7056 31.7949 32.2733 31.6681 31.964C31.6046 31.8094 31.5538 31.6855 31.5188 31.6002C31.5013 31.5576 31.4878 31.5247 31.4787 31.5024C31.4741 31.4913 31.4706 31.4827 31.4683 31.477C31.4671 31.4741 31.4662 31.4721 31.4656 31.4706C31.4653 31.4697 31.4652 31.4695 31.465 31.469C31.4649 31.4689 31.4649 31.4688 31.4649 31.4687C31.4648 31.4687 31.4648 31.4686 31.4648 31.4686C31.4648 31.4685 31.4648 31.4685 31.4648 31.4685C31.4647 31.4685 31.4647 31.4684 29.7824 32.1587ZM21.2738 37.6636C21.6166 36.7087 22.0555 35.486 22.4087 34.5021C22.5853 34.0102 22.7405 33.5779 22.8515 33.2686C22.907 33.114 22.9515 32.9901 22.9821 32.9049C22.9974 32.8622 23.0092 32.8293 23.0172 32.807C23.0212 32.7958 23.0243 32.7873 23.0263 32.7817C23.0273 32.7788 23.0281 32.7767 23.0286 32.7752C23.0289 32.7744 23.029 32.774 23.0292 32.7736C23.0293 32.7732 23.0292 32.7735 23.0293 32.7732C23.0294 32.7731 23.0294 32.7731 23.0294 32.7731C23.0294 32.7731 23.0294 32.773 21.3179 32.1587C19.6063 31.5443 19.6063 31.5443 19.6063 31.5443C19.6063 31.5443 19.6063 31.5443 19.6063 31.5444C19.6063 31.5444 19.6062 31.5447 19.6061 31.5448C19.606 31.5452 19.6058 31.5457 19.6055 31.5464C19.605 31.5479 19.6043 31.55 19.6032 31.5529C19.6012 31.5586 19.5981 31.5671 19.5941 31.5782C19.5861 31.6005 19.5743 31.6334 19.559 31.6761C19.5284 31.7613 19.4839 31.8852 19.4284 32.0398C19.3174 32.3491 19.1622 32.7814 18.9856 33.2733C18.6324 34.2573 18.1935 35.4799 17.8507 36.4349L21.2738 37.6636ZM23.0167 32.8074L27.3743 21.396L23.9767 20.0985L19.619 31.5099L23.0167 32.8074ZM29.7824 30.3402H21.3179V33.9771H29.7824V30.3402Z" fill="#FFD79C"/>
<path d="M57.7783 13.556H65.7784M73.7784 13.556H69.7784M65.7784 13.556V8.22266M65.7784 13.556H69.7784M70.319 26.0006L59.9405 19.3339M69.7784 13.556C69.6703 15.482 67.8108 20.6672 61.2378 26.0006" stroke="#FFD79C" stroke-width="3.63693" stroke-linecap="round" stroke-linejoin="round"/>
<path d="M57.7783 13.556H65.7784M73.7784 13.556H69.7784M65.7784 13.556V8.22266M65.7784 13.556H69.7784M70.319 26.0006L59.9405 19.3339M69.7784 13.556C69.6703 15.482 67.8108 20.6672 61.2378 26.0006" stroke="#FFD79C" stroke-width="3.63693" stroke-linecap="round" stroke-linejoin="round"/>
<path d="M12.0285 45.0643L11.9982 43.2767H10.2103H10.109C5.22939 43.2767 1.81847 39.9937 1.81847 36.5614V21.2006C1.81847 17.7684 5.22939 14.4853 10.109 14.4853H41.4469C46.3266 14.4853 49.7375 17.7684 49.7375 21.2006V36.5614C49.7375 39.9937 46.3266 43.2767 41.4469 43.2767H31.6327H31.1535L30.7366 43.5128L12.4955 53.8432C12.3534 53.9236 12.1771 53.8228 12.1743 53.6596L12.0285 45.0643Z" stroke="#FFD79C" stroke-width="3.63693"/>
<path d="M12.0285 45.0643L11.9982 43.2767H10.2103H10.109C5.22939 43.2767 1.81847 39.9937 1.81847 36.5614V21.2006C1.81847 17.7684 5.22939 14.4853 10.109 14.4853H41.4469C46.3266 14.4853 49.7375 17.7684 49.7375 21.2006V36.5614C49.7375 39.9937 46.3266 43.2767 41.4469 43.2767H31.6327H31.1535L30.7366 43.5128L12.4955 53.8432C12.3534 53.9236 12.1771 53.8228 12.1743 53.6596L12.0285 45.0643Z" stroke="#FFD79C" stroke-width="3.63693"/>
<path d="M78.4203 31.8341L76.6021 31.8026L76.6331 30.0156H78.4203V31.8341ZM78.2877 39.5017L80.1059 39.5331L78.2877 39.5017ZM58.3212 31.8341V30.0156H58.7922L59.204 30.2443L58.3212 31.8341ZM75.2671 41.2444L76.15 39.6546H76.15L75.2671 41.2444ZM41.8007 8.26923C41.6623 9.26396 40.7437 9.95811 39.749 9.81967C38.7542 9.68123 38.0601 8.76262 38.1985 7.7679L41.8007 8.26923ZM56.9757 33.6525C55.9714 33.6525 55.1572 32.8384 55.1572 31.8341C55.1572 30.8297 55.9714 30.0156 56.9757 30.0156V33.6525ZM86.1815 9.85107C86.1815 6.82591 83.0861 3.81847 78.5154 3.81847V0.181535C84.4211 0.181535 89.8185 4.20417 89.8185 9.85107H86.1815ZM86.1815 23.983V9.85107H89.8185V23.983H86.1815ZM78.5154 30.0156C83.0861 30.0156 86.1815 27.0081 86.1815 23.983H89.8185C89.8185 29.6299 84.4211 33.6525 78.5154 33.6525V30.0156ZM78.4203 30.0156H78.5154V33.6525H78.4203V30.0156ZM76.4695 39.4702L76.6021 31.8026L80.2385 31.8655L80.1059 39.5331L76.4695 39.4702ZM59.204 30.2443L76.15 39.6546L74.3843 42.8342L57.4384 33.4238L59.204 30.2443ZM50.2746 3.81847C47.9645 3.81847 45.831 4.44144 44.2688 5.36913C42.6562 6.32674 41.9174 7.43077 41.8007 8.26923L38.1985 7.7679C38.5286 5.39646 40.3082 3.49121 42.4118 2.24201C44.5659 0.962888 47.3465 0.181535 50.2746 0.181535V3.81847ZM78.5154 3.81847H50.2746V0.181535H78.5154V3.81847ZM56.9757 30.0156H58.3212V33.6525H56.9757V30.0156ZM80.1059 39.5331C80.0556 42.4401 76.9261 44.2457 74.3843 42.8342L76.15 39.6546C76.2919 39.7334 76.4667 39.6326 76.4695 39.4702L80.1059 39.5331Z" fill="#FFD79C"/>
<path d="M78.4203 31.8341L76.6021 31.8026L76.6331 30.0156H78.4203V31.8341ZM78.2877 39.5017L80.1059 39.5331L78.2877 39.5017ZM58.3212 31.8341V30.0156H58.7922L59.204 30.2443L58.3212 31.8341ZM75.2671 41.2444L76.15 39.6546H76.15L75.2671 41.2444ZM41.8007 8.26923C41.6623 9.26396 40.7437 9.95811 39.749 9.81967C38.7542 9.68123 38.0601 8.76262 38.1985 7.7679L41.8007 8.26923ZM56.9757 33.6525C55.9714 33.6525 55.1572 32.8384 55.1572 31.8341C55.1572 30.8297 55.9714 30.0156 56.9757 30.0156V33.6525ZM86.1815 9.85107C86.1815 6.82591 83.0861 3.81847 78.5154 3.81847V0.181535C84.4211 0.181535 89.8185 4.20417 89.8185 9.85107H86.1815ZM86.1815 23.983V9.85107H89.8185V23.983H86.1815ZM78.5154 30.0156C83.0861 30.0156 86.1815 27.0081 86.1815 23.983H89.8185C89.8185 29.6299 84.4211 33.6525 78.5154 33.6525V30.0156ZM78.4203 30.0156H78.5154V33.6525H78.4203V30.0156ZM76.4695 39.4702L76.6021 31.8026L80.2385 31.8655L80.1059 39.5331L76.4695 39.4702ZM59.204 30.2443L76.15 39.6546L74.3843 42.8342L57.4384 33.4238L59.204 30.2443ZM50.2746 3.81847C47.9645 3.81847 45.831 4.44144 44.2688 5.36913C42.6562 6.32674 41.9174 7.43077 41.8007 8.26923L38.1985 7.7679C38.5286 5.39646 40.3082 3.49121 42.4118 2.24201C44.5659 0.962888 47.3465 0.181535 50.2746 0.181535V3.81847ZM78.5154 3.81847H50.2746V0.181535H78.5154V3.81847ZM56.9757 30.0156H58.3212V33.6525H56.9757V30.0156ZM80.1059 39.5331C80.0556 42.4401 76.9261 44.2457 74.3843 42.8342L76.15 39.6546C76.2919 39.7334 76.4667 39.6326 76.4695 39.4702L80.1059 39.5331Z" fill="#FFD79C"/>
</svg>
