<svg width="47" height="46" viewBox="0 0 47 46" fill="none" xmlns="http://www.w3.org/2000/svg">
<path d="M16.216 22.9846C16.7523 23.0401 17.1869 23.2874 17.5197 23.7266C17.8526 24.1612 18.019 24.6905 18.019 25.3146C18.019 25.7307 17.9312 26.1051 17.7555 26.438C17.5844 26.7708 17.351 27.0389 17.0551 27.2424C16.7592 27.4458 16.4241 27.6006 16.0496 27.707C15.6798 27.8133 15.2868 27.8665 14.8708 27.8665H10.1831V18.1583H14.635C15.199 18.1583 15.7075 18.2484 16.1606 18.4287C16.6182 18.609 16.9904 18.8956 17.277 19.2886C17.5683 19.6815 17.7139 20.1554 17.7139 20.7101C17.7139 21.2926 17.5844 21.785 17.3256 22.1872C17.0667 22.5847 16.6968 22.8506 16.216 22.9846ZM11.9098 19.3579V22.3467H14.5379C14.9494 22.3467 15.2961 22.208 15.5781 21.9306C15.8647 21.6486 16.008 21.2903 16.008 20.8557C16.008 20.4212 15.8647 20.0629 15.5781 19.7809C15.2961 19.4989 14.9494 19.3579 14.5379 19.3579H11.9098ZM14.7668 26.5767C15.1782 26.5767 15.5249 26.438 15.8069 26.1606C16.0935 25.8786 16.2369 25.5203 16.2369 25.0857C16.2369 24.6512 16.0935 24.2952 15.8069 24.0178C15.5249 23.7358 15.1782 23.5948 14.7668 23.5948H11.9098V26.5767H14.7668ZM27.3058 18.1583V19.67H24.3518V27.8665H22.6181V19.67H19.6502V18.1583H27.3058ZM33.1804 26.3756C33.8646 26.3756 34.4563 26.2091 34.9556 25.8763C35.4549 25.5388 35.8131 25.058 36.0304 24.4339L37.7363 24.6974C37.4497 25.7237 36.8949 26.5258 36.072 27.1037C35.2538 27.6815 34.2899 27.9705 33.1804 27.9705C32.265 27.9705 31.4444 27.774 30.7186 27.381C29.9928 26.9881 29.4173 26.4125 28.992 25.6544C28.5667 24.8962 28.354 24.0155 28.354 23.0124C28.354 22.0092 28.5667 21.1285 28.992 20.3703C29.4173 19.6122 29.9928 19.0366 30.7186 18.6437C31.4444 18.2507 32.265 18.0542 33.1804 18.0542C34.2899 18.0542 35.2538 18.3432 36.072 18.921C36.8949 19.4989 37.4497 20.301 37.7363 21.3273L36.0304 21.5908C35.8131 20.9667 35.4549 20.4882 34.9556 20.1554C34.4563 19.8179 33.8646 19.6492 33.1804 19.6492C32.2604 19.6492 31.5138 19.9473 30.9405 20.5437C30.3719 21.1354 30.0876 21.9583 30.0876 23.0124C30.0876 24.0664 30.3719 24.8916 30.9405 25.4879C31.5138 26.0797 32.2604 26.3756 33.1804 26.3756Z" fill="#E9DAC5"/>
<path fill-rule="evenodd" clip-rule="evenodd" d="M34.7477 6.78253C30.5443 4.01431 25.4017 2.90077 20.3739 3.67015C15.3462 4.43953 10.8141 7.03356 7.70659 10.9206C4.59909 14.8076 3.15153 19.6931 3.66061 24.5759C4.16969 29.4587 6.59684 33.9688 10.4446 37.1819C13.8596 40.0337 18.164 41.672 22.6447 41.8574C23.5897 41.8964 24.3893 42.6217 24.4314 43.5665C24.4737 44.5156 23.7362 45.3248 22.7866 45.297C17.4001 45.1394 12.2129 43.1997 8.11328 39.7763C3.57842 35.9894 0.717844 30.6738 0.11786 24.9191C-0.482125 19.1644 1.22392 13.4064 4.88633 8.82535C8.54874 4.24424 13.8901 1.187 19.8157 0.280225C25.7412 -0.626546 31.8022 0.685838 36.7562 3.94839C41.7103 7.21094 45.1822 12.1765 46.4605 17.8274C47.7387 23.4784 46.7264 29.3866 43.631 34.3411C40.8279 38.8278 36.5088 42.2248 31.4262 43.98C30.54 44.286 29.6038 43.7537 29.3433 42.8531C29.0757 41.928 29.6228 40.9701 30.5281 40.6415C34.7092 39.1235 38.2583 36.2878 40.5809 32.5703C43.2072 28.3664 44.0662 23.3534 42.9816 18.5587C41.897 13.764 38.9511 9.55075 34.7477 6.78253Z" fill="#E9DAC5"/>
</svg>
