<svg width="53" height="53" viewBox="0 0 53 53" fill="none" xmlns="http://www.w3.org/2000/svg">
<path d="M33.7426 37.4427C33.7426 35.3052 35.4832 33.5646 37.6207 33.5646C39.7583 33.5646 41.4989 35.3052 41.4989 37.4427C41.4989 39.5803 39.7583 41.3208 37.6207 41.3208C35.4832 41.3208 33.7426 39.5803 33.7426 37.4427ZM35.0271 37.4427C35.0271 38.8737 36.1897 40.0364 37.6207 40.0364C39.0517 40.0364 40.2144 38.8737 40.2144 37.4427C40.2144 36.0117 39.0517 34.849 37.6207 34.849C36.1897 34.849 35.0271 36.0117 35.0271 37.4427Z" fill="black" stroke="#E9DAC5" stroke-width="1.95144"/>
<path d="M11.091 14.7916C11.091 12.6541 12.8316 10.9135 14.9691 10.9135C17.1066 10.9135 18.8472 12.6541 18.8472 14.7916C18.8472 16.9291 17.1066 18.6697 14.9691 18.6697C12.8316 18.6697 11.091 16.9291 11.091 14.7916ZM12.3754 14.7916C12.3754 16.2226 13.5381 17.3853 14.9691 17.3853C16.4001 17.3853 17.5628 16.2226 17.5628 14.7916C17.5628 13.3606 16.4001 12.1979 14.9691 12.1979C13.5381 12.1979 12.3754 13.3606 12.3754 14.7916Z" fill="black" stroke="#E9DAC5" stroke-width="1.95144"/>
<path d="M22.0329 26.5011C22.0329 24.3635 23.7735 22.6229 25.911 22.6229C28.0485 22.6229 29.7891 24.3635 29.7891 26.5011C29.7891 28.6386 28.0485 30.3792 25.911 30.3792C23.7735 30.3792 22.0329 28.6386 22.0329 26.5011ZM23.3173 26.5011C23.3173 27.9321 24.48 29.0947 25.911 29.0947C27.342 29.0947 28.5047 27.9321 28.5047 26.5011C28.5047 25.0701 27.342 23.9074 25.911 23.9074C24.48 23.9074 23.3173 25.0701 23.3173 26.5011Z" fill="black" stroke="#E9DAC5" stroke-width="1.95144"/>
<path d="M50 26.7282V8.85433C50 5.62107 47.3789 3 44.1457 3H8.85433C5.62107 3 3 5.62107 3 8.85432V44.6021C3 47.8353 5.62107 50.4564 8.85433 50.4564H44.1457C47.3789 50.4564 50 47.8353 50 44.6021V38.5923" stroke="#E9DAC5" stroke-width="4.87861" stroke-linecap="round" stroke-linejoin="round"/>
</svg>
