<svg width="47" height="92" viewBox="0 0 47 92" fill="none" xmlns="http://www.w3.org/2000/svg">
<path d="M9.52372 31.0801L9.04468 16.8071L11.4233 24.4246L22.4295 44.6758L22.5443 47.9562L17.8842 48.2102L9.52372 31.0801Z" fill="#4B4B4B"/>
<path d="M33.9071 9.34894L29.4878 23.4193L25.7183 8.68542L29.6622 0.381914L33.9071 9.34894Z" fill="#343434"/>
<path d="M21.5286 29.3161L24.4384 37.6729L25.2122 35.8167L21.5017 17.8569L21.5286 29.3161Z" fill="#313131"/>
<path d="M25.7182 8.68514L29.4876 23.419L25.2119 35.8169L21.5014 17.8572L25.7182 8.68514Z" fill="#565656"/>
<path d="M38.2167 18.7181L33.8676 36.8183L29.4879 23.4195L33.9072 9.34912L38.2167 18.7181Z" fill="#4E4E4E"/>
<path d="M11.6235 6.16699L18.5655 27.8135L11.4234 24.4252L9.04482 16.8077L11.6235 6.16699Z" fill="#383838"/>
<path d="M38.271 18.5439L33.8674 36.8178L34.776 39.3934L39.4493 29.983L38.271 18.5439Z" fill="#323232"/>
<path d="M5.87333 69.4384L1.582 77.6328L4.68869 77.4635L12.8863 72.0228L8.64263 69.7357L7.20844 70.0486L5.87333 69.4384Z" fill="#535353"/>
<path d="M4.68863 77.4637L8.75414 82.7483L26.8575 77.3653L28.4899 75.2062L20.8555 66.7014L4.68863 77.4637Z" fill="#2B2B2B"/>
<path d="M14.517 86.2754L33.5779 79.6665L26.8579 77.3649L8.75451 82.7479L7.99069 85.1799L14.517 86.2754Z" fill="#4E4E4E"/>
<path d="M20.8556 66.7018L28.49 75.2067L38.3958 75.2644L34.9605 69.796L20.8556 66.7018Z" fill="#3D3D3D"/>
<path d="M21.583 29.1426L28.9915 51.1265L24.5297 49.5342L22.5443 47.9564L21.583 29.1426Z" fill="#424242"/>
<path d="M7.58375 58.5256L10.0257 59.8651L14.09 58.4698L24.5301 49.5348L22.5447 47.957L17.8847 48.211L7.58375 58.5256Z" fill="#525252"/>
<path d="M4.82434 58.8038L7.58361 58.5253L17.8845 48.2107L4.82434 58.8038Z" fill="#C6C6C6"/>
<path d="M13.2669 64.1271L20.8555 66.7014L14.0897 58.4693L10.0254 59.8646L7.00896 65.2151L7.20836 70.0488L8.64255 69.7359L9.64468 67.7605L13.2669 64.1271Z" fill="#414141"/>
<path d="M28.9916 51.1267L20.8555 66.7015L34.9603 69.7957L34.1583 53.5129L28.9916 51.1267Z" fill="#525252"/>
<path d="M14.0895 58.4689L20.8553 66.701L28.9915 51.1262L24.5296 49.5339L14.0895 58.4689Z" fill="#303030"/>
<path d="M34.776 39.3934L28.9915 51.1265L24.4381 37.6732L29.4877 23.419L34.776 39.3934Z" fill="#2A2828"/>
<path d="M5.8736 69.4386L7.20871 70.0488L7.00931 65.215L10.0257 59.8646L7.58377 58.5251L4.8245 58.8035L5.8736 69.4386Z" fill="#6B6B6B"/>
<path d="M11.4236 24.4253L22.4298 44.6765L21.932 35.9321L18.7394 27.8681L11.4236 24.4253Z" fill="#9E9E9E"/>
<path d="M41.0291 64.4496L34.9606 69.7957L34.104 53.6865L41.0291 64.4496Z" fill="#303030"/>
<path d="M42.941 71.7298L41.029 64.4497L34.9604 69.7957L38.3957 75.2641L42.941 71.7298Z" fill="#424242"/>
<path d="M44.7375 69.0496L42.9414 71.7298L41.0294 64.4497L42.9446 61.9978L44.7375 69.0496Z" fill="#8D8D8D"/>
<path d="M26.8576 77.3655L28.49 75.2064L38.3958 75.2642L33.5777 79.6671L26.8576 77.3655Z" fill="#636363"/>
<path d="M1.58231 77.6331L4.689 77.4638L8.75451 82.7484L7.99068 85.1803L3.44417 82.0347L1.58231 77.6331Z" fill="#A9A9A9"/>
<path d="M34.9026 49.9297L42.9445 61.9978L41.0294 64.4498L34.1043 53.6867L34.9026 49.9297Z" fill="#636363"/>
<path d="M39.5042 29.8094L28.9919 51.1266L34.1586 53.5128L39.5042 29.8094Z" fill="#474747"/>
<path d="M15.0501 70.6031L20.8559 66.7013L13.2672 64.127L9.47135 67.7059L8.64293 69.7358L15.0501 70.6031Z" fill="#222222"/>
<path d="M12.8865 72.0232L15.05 70.6034L8.64286 69.7361L12.8865 72.0232Z" fill="#3D3D3D"/>
<path d="M9.52393 31.0806L22.5445 47.9567L17.8844 48.2107L9.52393 31.0806Z" fill="#424242"/>
</svg>
