<svg width="24" height="23" fill="none" xmlns="http://www.w3.org/2000/svg"><path d="M10 12.83a5.465 5.465 0 008.207.584l3.265-3.245A5.393 5.393 0 0023 6.363a5.394 5.394 0 00-1.594-3.778A5.458 5.458 0 0017.605 1a5.46 5.46 0 00-3.828 1.519l-1.872 1.85" stroke="#fff" stroke-width="1.5" stroke-linecap="round" stroke-linejoin="round"/><path d="M15 10.17a5.751 5.751 0 00-1.883-1.508 6.31 6.31 0 00-4.858-.321 5.937 5.937 0 00-2.097 1.244l-3.517 3.246C1.578 13.851.987 15.218 1 16.637c.014 1.418.63 2.775 1.717 3.778C3.803 21.42 5.273 21.988 6.81 22c1.537.012 3.017-.533 4.122-1.519l2.005-1.85" stroke="#fff" stroke-width="1.5" stroke-linecap="round" stroke-linejoin="round"/></svg>