<svg width="17" height="16" fill="none" xmlns="http://www.w3.org/2000/svg"><path fill-rule="evenodd" clip-rule="evenodd" d="M7.547 11.464l-4.34-4.395c-.7-.702.35-1.754 1.05-1.052L7.184 8.95c.143.144.26.095.26-.11V.745a.744.744 0 111.486 0v8.093c0 .205.116.256.26.111l2.925-2.933c.7-.702 1.75.35 1.05 1.052l-4.31 4.39a.913.913 0 01-1.307.005zm7.337 2.677v-2.606a.744.744 0 011.488 0v3.35c0 .618-.502 1.115-1.12 1.115H1.12C.504 16 0 15.5 0 14.885v-3.35a.744.744 0 111.488 0v2.606c0 .202.167.37.373.37h12.65a.373.373 0 00.373-.37z" fill="#000"/></svg>