<svg width="24" height="22" fill="none" xmlns="http://www.w3.org/2000/svg"><path d="M16.4 7v5c0 .795.348 1.558.967 2.12A3.475 3.475 0 0019.7 15c.875 0 1.715-.317 2.334-.88.618-.562.966-1.325.966-2.12v-1c0-2.258-.84-4.448-2.383-6.216-1.544-1.768-3.7-3.01-6.117-3.522a12.007 12.007 0 00-7.2.697c-2.245.964-4.064 2.59-5.163 4.614-1.1 2.024-1.413 4.326-.89 6.532.522 2.207 1.85 4.188 3.769 5.62 1.918 1.434 4.313 2.235 6.795 2.273 2.482.04 4.906-.686 6.877-2.059M16.4 11c0 2.21-1.97 4-4.4 4-2.43 0-4.4-1.79-4.4-4 0-2.208 1.97-4 4.4-4 2.43 0 4.4 1.792 4.4 4z" stroke="#fff" stroke-width="1.5" stroke-linecap="round" stroke-linejoin="round"/></svg>