<svg width="23" height="22" fill="none" xmlns="http://www.w3.org/2000/svg"><path fill-rule="evenodd" clip-rule="evenodd" d="M18.413 5.024a1.293 1.293 0 11-2.586 0 1.293 1.293 0 012.586 0zm-7.045 9.343a3.592 3.592 0 110-7.183 3.592 3.592 0 010 7.183zm0-9.125a5.533 5.533 0 100 11.067 5.533 5.533 0 000-11.067zm0-3.3c2.877 0 3.218.01 4.354.062 1.05.048 1.621.224 2 .371a3.34 3.34 0 011.24.807c.377.377.61.736.806 1.239.147.38.323.95.37 2 .053 1.137.064 1.478.064 4.355 0 2.877-.011 3.218-.063 4.354-.048 1.05-.223 1.621-.371 2a3.34 3.34 0 01-.806 1.24 3.34 3.34 0 01-1.24.806c-.379.147-.95.323-2 .37-1.136.053-1.477.064-4.354.064-2.878 0-3.218-.011-4.355-.063-1.05-.048-1.62-.224-2-.371a3.337 3.337 0 01-1.24-.806 3.338 3.338 0 01-.806-1.24c-.147-.379-.323-.95-.37-2-.053-1.136-.063-1.477-.063-4.354s.01-3.218.062-4.355c.048-1.05.224-1.62.371-2a3.36 3.36 0 01.807-1.24c.377-.377.735-.61 1.239-.806.38-.147.95-.323 2-.37 1.137-.052 1.477-.063 4.355-.063zm0-1.942C8.44 0 8.074.012 6.925.065c-1.147.052-1.93.234-2.616.5A5.28 5.28 0 002.401 1.81a5.28 5.28 0 00-1.243 1.908c-.266.686-.449 1.469-.5 2.616C.604 7.482.591 7.849.591 10.775c0 2.927.013 3.294.065 4.443.052 1.147.235 1.93.501 2.616A5.28 5.28 0 002.4 19.742c.599.6 1.2.968 1.908 1.243.686.267 1.47.449 2.616.501 1.15.052 1.516.065 4.443.065 2.926 0 3.293-.013 4.442-.065 1.147-.052 1.93-.235 2.616-.5a5.28 5.28 0 001.909-1.244c.599-.599.967-1.2 1.242-1.908.267-.686.449-1.469.501-2.616.053-1.15.065-1.516.065-4.443 0-2.926-.012-3.293-.065-4.442-.052-1.147-.234-1.93-.5-2.616a5.283 5.283 0 00-1.244-1.908A5.282 5.282 0 0018.426.566C17.74.299 16.957.117 15.81.065 14.661.012 14.294 0 11.368 0z" fill="#F8F8F8"/></svg>