<svg width="23" height="14" fill="none" xmlns="http://www.w3.org/2000/svg"><path d="M12.421 13.096c.3-.06.84-.177.84-.887 0 0-.06-1.773.78-2.01.84-.236 1.92 1.715 3.06 2.483.84.532 1.5.473 1.5.473l3.061-.06s1.56-.117.84-1.359c-.06-.118-.54-.886-2.34-2.483-1.86-1.773-1.56-1.478.66-4.493 1.38-1.832 1.98-2.955 1.8-3.37-.24-.413-1.2-.354-1.2-.354h-3.42c-.36 0-.54.06-.72.355 0 0-.54 1.478-1.26 2.66-1.5 2.542-2.1 2.66-2.4 2.483-.54-.296-.42-1.419-.42-2.187 0-2.66.42-3.606-.78-3.843C11.64.386 8.88.268 8.04.681c-.42.237-.66.65-.48.71.18 0 .72.059 1.02.414.48.768.54 4.433-.12 4.788-.9.65-3.18-3.665-3.72-5.084-.12-.355-.3-.414-.721-.532H.72c-.36 0-.9.06-.66.769 1.62 3.31 4.98 11.409 11.04 11.35h1.321z" fill="#F8F8F8"/></svg>