<svg width="25" height="18" fill="none" xmlns="http://www.w3.org/2000/svg"><path fill-rule="evenodd" clip-rule="evenodd" d="M24.404 3.935s-.232-1.668-.94-2.402c-.9-.965-1.907-.97-2.369-1.025-3.309-.245-8.272-.245-8.272-.245h-.01S7.85.263 4.54.508c-.463.056-1.47.06-2.37 1.025-.708.734-.939 2.402-.939 2.402S.996 5.894.996 7.852V9.69c0 1.959.236 3.917.236 3.917s.23 1.668.94 2.403c.9.964 2.08.934 2.607 1.034 1.891.186 8.039.244 8.039.244s4.968-.008 8.277-.253c.462-.056 1.47-.061 2.369-1.025.709-.735.94-2.403.94-2.403s.236-1.958.236-3.917V7.852c0-1.958-.236-3.917-.236-3.917zm-14.027 7.98l-.001-6.802 6.388 3.413-6.387 3.388z" fill="#F8F8F8"/></svg>