<svg width="24" height="23" viewBox="0 0 24 23" fill="none" xmlns="http://www.w3.org/2000/svg">
<path d="M10 12.8304C10.4674 13.4516 11.0638 13.9657 11.7487 14.3376C12.4335 14.7096 13.1908 14.9308 13.9692 14.9862C14.7476 15.0416 15.5289 14.9299 16.2601 14.6588C16.9912 14.3877 17.6552 13.9634 18.2069 13.4147L21.4723 10.1686C22.4636 9.14826 23.0122 7.78165 22.9998 6.36313C22.9874 4.94461 22.415 3.58768 21.406 2.58459C20.397 1.58151 19.032 1.01253 17.605 1.0002C16.1781 0.987878 14.8034 1.53319 13.7769 2.51869L11.9048 4.36896" stroke="white" stroke-width="1.5" stroke-linecap="round" stroke-linejoin="round"/>
<path d="M15 10.1696C14.4966 9.54836 13.8544 9.03434 13.1168 8.66238C12.3793 8.29043 11.5637 8.06924 10.7255 8.01382C9.88719 7.9584 9.04581 8.07005 8.25839 8.34119C7.47097 8.61233 6.75593 9.03662 6.16176 9.58529L2.64522 12.8314C1.57761 13.8517 0.986868 15.2184 1.00022 16.6369C1.01358 18.0554 1.62996 19.4123 2.71662 20.4154C3.80328 21.4185 5.27326 21.9875 6.80997 21.9998C8.34668 22.0121 9.82716 21.4668 10.9325 20.4813L12.937 18.631" stroke="white" stroke-width="1.5" stroke-linecap="round" stroke-linejoin="round"/>
</svg>
