<svg width="17" height="16" viewBox="0 0 17 16" fill="none" xmlns="http://www.w3.org/2000/svg">
<path fill-rule="evenodd" clip-rule="evenodd" d="M7.54692 11.4638L3.20775 7.06916C2.50739 6.36733 3.55793 5.31497 4.25793 6.01679L7.18268 8.95015C7.32621 9.0941 7.44336 9.04481 7.44336 8.83908V0.74602C7.44336 0.333287 7.77588 0 8.18606 0C8.5991 0 8.92876 0.334004 8.92876 0.74602V8.83908C8.92876 9.04385 9.04547 9.09454 9.18944 8.95015L12.1142 6.01679C12.8146 5.31497 13.8647 6.36733 13.1644 7.06916L8.85368 11.4586C8.49154 11.8274 7.90733 11.8288 7.54692 11.4638ZM14.8837 14.1406V11.5349C14.8837 11.1239 15.2169 10.7907 15.6279 10.7907C16.0389 10.7907 16.3721 11.1239 16.3721 11.5349V14.8854C16.3721 15.5033 15.8695 16 15.2525 16H1.11954C0.503598 16 0 15.4996 0 14.8854V11.5349C0 11.1239 0.333183 10.7907 0.744186 10.7907C1.15519 10.7907 1.48837 11.1239 1.48837 11.5349V14.1406C1.48837 14.3431 1.65503 14.5116 1.86062 14.5116H14.5115C14.7144 14.5116 14.8837 14.3455 14.8837 14.1406Z" fill="black"/>
</svg>
