<svg width="24" height="22" viewBox="0 0 24 22" fill="none" xmlns="http://www.w3.org/2000/svg">
<path d="M16.4 6.99938V11.9994C16.4 12.795 16.7477 13.5581 17.3666 14.1207C17.9854 14.6833 18.8248 14.9994 19.7 14.9994C20.5752 14.9994 21.4146 14.6833 22.0335 14.1207C22.6523 13.5581 23 12.795 23 11.9994V10.9994C22.9998 8.7424 22.1598 6.55185 20.6166 4.78391C19.0733 3.01596 16.9176 1.7746 14.4999 1.26168C12.0822 0.748749 9.54473 0.994421 7.30009 1.95875C5.05545 2.92307 3.23565 4.54933 2.13659 6.5731C1.03754 8.59687 0.723873 10.8991 1.24659 13.1055C1.76932 15.3119 3.09768 17.2926 5.0157 18.7256C6.93372 20.1587 9.32858 20.9597 11.8109 20.9985C14.2932 21.0373 16.7169 20.3116 18.688 18.9394M16.3999 10.9997C16.3999 13.2089 14.43 14.9997 11.9999 14.9997C9.56989 14.9997 7.59994 13.2089 7.59994 10.9997C7.59994 8.79062 9.56989 6.99977 11.9999 6.99977C14.43 6.99977 16.3999 8.79062 16.3999 10.9997Z" stroke="white" stroke-width="1.5" stroke-linecap="round" stroke-linejoin="round"/>
</svg>
