<svg width="23" height="22" viewBox="0 0 23 22" fill="none" xmlns="http://www.w3.org/2000/svg">
<path fill-rule="evenodd" clip-rule="evenodd" d="M18.4126 5.02353C18.4126 5.73774 17.8336 6.31658 17.1196 6.31658C16.4055 6.31658 15.8265 5.73774 15.8265 5.02353C15.8265 4.30932 16.4055 3.73048 17.1196 3.73048C17.8338 3.73048 18.4126 4.30932 18.4126 5.02353ZM11.3677 14.3672C9.38401 14.3672 7.77595 12.7591 7.77595 10.7754C7.77595 8.79172 9.38401 7.18366 11.3677 7.18366C13.3514 7.18366 14.9594 8.79172 14.9594 10.7754C14.9594 12.7591 13.3514 14.3672 11.3677 14.3672ZM11.3677 5.24207C8.31169 5.24207 5.83435 7.7194 5.83435 10.7754C5.83435 13.8314 8.31169 16.3087 11.3677 16.3087C14.4237 16.3087 16.901 13.8314 16.901 10.7754C16.901 7.7194 14.4237 5.24207 11.3677 5.24207ZM11.3677 1.94159C14.2449 1.94159 14.5857 1.95254 15.7218 2.00439C16.7724 2.05238 17.343 2.22782 17.7227 2.37547C18.2256 2.57095 18.5845 2.80447 18.9617 3.18161C19.3388 3.55858 19.5723 3.91753 19.7678 4.42061C19.9153 4.80028 20.0909 5.37087 20.1389 6.42147C20.1907 7.55777 20.2017 7.89854 20.2017 10.7757C20.2017 13.6529 20.1907 13.9937 20.1389 15.1299C20.0909 16.1805 19.9155 16.751 19.7678 17.1307C19.5723 17.6336 19.3388 17.9926 18.9617 18.3697C18.5847 18.7469 18.2257 18.9804 17.7227 19.1758C17.343 19.3233 16.7724 19.4989 15.7218 19.5469C14.5857 19.5988 14.2449 19.6097 11.3677 19.6097C8.49032 19.6097 8.14955 19.5988 7.01342 19.5469C5.96282 19.4989 5.39222 19.3235 5.01256 19.1758C4.50965 18.9804 4.1507 18.7469 3.77356 18.3697C3.39659 17.9927 3.16289 17.6338 2.96742 17.1307C2.81993 16.751 2.64433 16.1805 2.59634 15.1299C2.54449 13.9936 2.53354 13.6528 2.53354 10.7757C2.53354 7.89854 2.54449 7.55777 2.59634 6.42147C2.64433 5.37087 2.81976 4.80028 2.96742 4.42061C3.16289 3.9177 3.39642 3.55875 3.77356 3.18161C4.15053 2.80447 4.50948 2.57095 5.01256 2.37547C5.39222 2.22798 5.96282 2.05238 7.01342 2.00439C8.14972 1.95254 8.49049 1.94159 11.3677 1.94159ZM11.3677 0C8.44133 0 8.07429 0.0124591 6.92503 0.0648208C5.77812 0.117183 4.99471 0.299354 4.30946 0.565709C3.60081 0.840987 2.99992 1.20954 2.40087 1.80858C1.80182 2.40763 1.43327 3.00853 1.15799 3.71718C0.891639 4.4026 0.709468 5.18583 0.657106 6.33274C0.604744 7.48201 0.592285 7.84904 0.592285 10.7754C0.592285 13.7018 0.604744 14.0688 0.657106 15.2181C0.709468 16.365 0.891639 17.1482 1.15799 17.8336C1.43327 18.5423 1.80182 19.1432 2.40087 19.7422C2.99992 20.3413 3.60081 20.7097 4.30946 20.9851C4.99488 21.2515 5.77812 21.4336 6.92503 21.486C8.07429 21.5384 8.44133 21.5508 11.3677 21.5508C14.2941 21.5508 14.6611 21.5384 15.8104 21.486C16.9573 21.4336 17.7405 21.2515 18.4259 20.9851C19.1346 20.7097 19.7355 20.3413 20.3345 19.7422C20.9336 19.1432 21.3019 18.5423 21.5774 17.8336C21.8437 17.1482 22.0259 16.365 22.0783 15.2181C22.1306 14.0688 22.1431 13.7018 22.1431 10.7754C22.1431 7.84904 22.1306 7.48201 22.0783 6.33274C22.0259 5.18583 21.8437 4.4026 21.5774 3.71718C21.3019 3.00853 20.9336 2.40763 20.3345 1.80858C19.7355 1.20954 19.1346 0.841155 18.4259 0.565709C17.7405 0.299354 16.9573 0.117183 15.8104 0.0648208C14.6611 0.0124591 14.2941 0 11.3677 0Z" fill="#F8F8F8"/>
</svg>
