<svg width="23" height="14" viewBox="0 0 23 14" fill="none" xmlns="http://www.w3.org/2000/svg">
<path d="M12.4211 13.0959C12.7212 13.0368 13.2612 12.9186 13.2612 12.2092C13.2612 12.2092 13.2012 10.4357 14.0413 10.1992C14.8814 9.96273 15.9616 11.9136 17.1017 12.6821C17.9418 13.2142 18.6019 13.155 18.6019 13.155L21.6623 13.0959C21.6623 13.0959 23.2225 12.9777 22.5024 11.7362C22.4424 11.618 21.9624 10.8495 20.1621 9.25333C18.3019 7.47983 18.6019 7.77541 20.8222 4.76046C22.2024 2.92784 22.8025 1.80462 22.6224 1.3908C22.3824 0.976984 21.4223 1.0361 21.4223 1.0361H18.0018C17.6418 1.0361 17.4618 1.09522 17.2817 1.3908C17.2817 1.3908 16.7417 2.86872 16.0216 4.05106C14.5214 6.59308 13.9213 6.71131 13.6213 6.53396C13.0812 6.23838 13.2012 5.11516 13.2012 4.34664C13.2012 1.68639 13.6213 0.740517 12.4211 0.50405C11.641 0.385816 8.88065 0.267583 8.04054 0.6814C7.62049 0.917867 7.38046 1.33168 7.56048 1.3908C7.7405 1.3908 8.28057 1.44992 8.58061 1.80462C9.06068 2.57314 9.12068 6.23838 8.4606 6.59308C7.56048 7.24336 5.28018 2.92784 4.74011 1.50903C4.6201 1.15433 4.44008 1.09522 4.02002 0.976984H0.719592C0.359545 0.976984 -0.180525 1.0361 0.0595061 1.7455C1.67972 5.05604 5.04015 13.155 11.1009 13.0959H12.4211Z" fill="#F8F8F8"/>
</svg>
