<svg width="25" height="18" viewBox="0 0 25 18" fill="none" xmlns="http://www.w3.org/2000/svg">
<path fill-rule="evenodd" clip-rule="evenodd" d="M24.4037 3.93486C24.4037 3.93486 24.1725 2.26692 23.4639 1.53257C22.5646 0.568193 21.5568 0.563686 21.095 0.507732C17.7862 0.262695 12.8231 0.262695 12.8231 0.262695H12.8127C12.8127 0.262695 7.84958 0.262695 4.54082 0.507732C4.07827 0.563686 3.07116 0.568193 2.17118 1.53257C1.46259 2.26711 1.23205 3.93486 1.23205 3.93486C1.23205 3.93486 0.995605 5.89402 0.995605 7.85225L0.995605 9.6888C0.995605 11.6478 1.23205 13.6062 1.23205 13.6062C1.23205 13.6062 1.46259 15.2741 2.17118 16.0085C3.07116 16.9729 4.25265 16.9426 4.77874 17.0433C6.67031 17.2293 12.8179 17.2868 12.8179 17.2868C12.8179 17.2868 17.7862 17.2793 21.095 17.0343C21.5568 16.9775 22.5646 16.973 23.4639 16.0087C24.1725 15.2741 24.4037 13.6064 24.4037 13.6064C24.4037 13.6064 24.6402 11.648 24.6402 9.6888V7.85225C24.6402 5.89402 24.4037 3.93486 24.4037 3.93486ZM10.3766 11.9142L10.3759 5.11347L16.7643 8.52558L10.3766 11.9142Z" fill="#F8F8F8"/>
</svg>
